<?xml version="1.0" encoding="UTF-8" standalone="no"?>
<!-- Created with Inkscape (http://www.inkscape.org/) -->

<svg
   xmlns:dc="http://purl.org/dc/elements/1.1/"
   xmlns:cc="http://creativecommons.org/ns#"
   xmlns:rdf="http://www.w3.org/1999/02/22-rdf-syntax-ns#"
   xmlns:svg="http://www.w3.org/2000/svg"
   xmlns="http://www.w3.org/2000/svg"
   xmlns:sodipodi="http://sodipodi.sourceforge.net/DTD/sodipodi-0.dtd"
   xmlns:inkscape="http://www.inkscape.org/namespaces/inkscape"
   width="120"
   height="88"
   viewBox="0 0 120 88"
   id="svg2"
   version="1.1"
   inkscape:version="0.91 r13725"
   sodipodi:docname="ic_empty_arguments.svg"
   inkscape:export-filename="/Users/markus/path5202.png"
   inkscape:export-xdpi="3840"
   inkscape:export-ydpi="3840">
  <sodipodi:namedview
     id="base"
     pagecolor="#ffffff"
     bordercolor="#666666"
     borderopacity="1.0"
     inkscape:pageopacity="0.0"
     inkscape:pageshadow="2"
     inkscape:zoom="1.4625509"
     inkscape:cx="59.095729"
     inkscape:cy="38.3545"
     inkscape:document-units="px"
     inkscape:current-layer="layer1"
     showgrid="false"
     units="px"
     inkscape:showpageshadow="false"
     showguides="true"
     inkscape:guide-bbox="true"
     inkscape:window-width="1680"
     inkscape:window-height="925"
     inkscape:window-x="0"
     inkscape:window-y="1"
     inkscape:window-maximized="1"
     showborder="true"
     fit-margin-top="0"
     fit-margin-left="0"
     fit-margin-right="0"
     fit-margin-bottom="0">
    <inkscape:grid
       enabled="false"
       snapvisiblegridlinesonly="true"
       id="grid4582"
       type="xygrid"
       originx="-4.9042712"
       originy="-1.6455" />
  </sodipodi:namedview>
  <defs
     id="defs4" />
  <metadata
     id="metadata7">
    <rdf:RDF>
      <cc:Work
         rdf:about="">
        <dc:format>image/svg+xml</dc:format>
        <dc:type
           rdf:resource="http://purl.org/dc/dcmitype/StillImage" />
        <dc:title></dc:title>
      </cc:Work>
    </rdf:RDF>
  </metadata>
  <g
     transform="translate(-4.9042713,-962.7168)"
     id="layer1"
     inkscape:groupmode="layer"
     inkscape:label="Ebene 1">
    <circle
       style="fill:#333333;fill-opacity:1;stroke:none;stroke-width:1.5;stroke-linecap:butt;stroke-linejoin:round;stroke-miterlimit:4;stroke-dasharray:none;stroke-opacity:1"
       id="circle5919"
       cx="40.175743"
       cy="1006.2059"
       r="0" />
    <circle
       cy="1006.2059"
       cx="40.175743"
       id="circle5921"
       style="fill:#ffffff;fill-opacity:1;stroke:none;stroke-width:1.5;stroke-linecap:butt;stroke-linejoin:round;stroke-miterlimit:4;stroke-dasharray:none;stroke-opacity:1"
       r="0" />
    <circle
       style="fill:#1a1a1a;fill-opacity:1;stroke:none;stroke-width:1.5;stroke-linecap:butt;stroke-linejoin:round;stroke-miterlimit:4;stroke-dasharray:none;stroke-opacity:1"
       id="circle5923"
       cx="40.175743"
       cy="1006.2059"
       r="0" />
    <path
       style="fill:#f2f2f2;fill-opacity:1;stroke:none;stroke-width:2;stroke-linecap:butt;stroke-linejoin:round;stroke-miterlimit:4;stroke-dasharray:none;stroke-opacity:1"
       d="m 61.213023,1003.31 7.380874,0 -2.460291,46.6107 -2.460292,0 z"
       id="path5897"
       inkscape:connector-curvature="0"
       sodipodi:nodetypes="ccccc" />
    <path
       style="fill:none;fill-rule:evenodd;stroke:#e6e6e6;stroke-width:0.82009727;stroke-linecap:round;stroke-linejoin:round;stroke-miterlimit:4;stroke-dasharray:none;stroke-opacity:1"
       d="m 44.607531,1027.4722 c 0,0 -5.580146,-22.4013 -8.200972,-22.5527 -2.620784,-0.1513 -8.328907,22.5527 -8.328907,22.5527"
       id="path5901"
       inkscape:connector-curvature="0"
       sodipodi:nodetypes="czc" />
    <g
       transform="matrix(0.81671834,0,0,0.81671834,397.66318,703.65436)"
       id="g5903"
       style="fill:#f2f2f2">
      <path
         style="fill:#f2f2f2;fill-opacity:1;stroke:none;stroke-width:10.00000095;stroke-linecap:butt;stroke-linejoin:round;stroke-miterlimit:4;stroke-dasharray:none;stroke-opacity:1"
         id="path5905"
         sodipodi:type="arc"
         sodipodi:cx="-407.36807"
         sodipodi:cy="370.97913"
         sodipodi:rx="40.929768"
         sodipodi:ry="40.929768"
         sodipodi:start="3.6651914"
         sodipodi:end="4.712389"
         d="m -442.81429,350.51424 a 40.929768,40.929768 0 0 1 35.44622,-20.46488 l 0,40.92977 z" />
      <path
         d="m -407.36807,330.04936 a 40.929768,40.929768 0 0 1 28.94171,11.98805 l -28.94171,28.94172 z"
         sodipodi:end="5.4977871"
         sodipodi:start="4.712389"
         sodipodi:ry="40.929768"
         sodipodi:rx="40.929768"
         sodipodi:cy="370.97913"
         sodipodi:cx="-407.36807"
         sodipodi:type="arc"
         id="path5907"
         style="fill:#f2f2f2;fill-opacity:1;stroke:none;stroke-width:10.00000095;stroke-linecap:butt;stroke-linejoin:round;stroke-miterlimit:4;stroke-dasharray:none;stroke-opacity:1" />
      <path
         style="fill:#f2f2f2;fill-opacity:1;stroke:none;stroke-width:10.00000095;stroke-linecap:butt;stroke-linejoin:round;stroke-miterlimit:4;stroke-dasharray:none;stroke-opacity:1"
         id="path5909"
         sodipodi:type="arc"
         sodipodi:cx="-407.36807"
         sodipodi:cy="370.97913"
         sodipodi:rx="40.929768"
         sodipodi:ry="40.929768"
         sodipodi:start="5.4977871"
         sodipodi:end="5.7595865"
         d="m -378.42636,342.03741 a 40.929768,40.929768 0 0 1 6.50451,8.47683 l -35.44622,20.46489 z" />
    </g>
    <path
       sodipodi:nodetypes="czc"
       inkscape:connector-curvature="0"
       id="path5911"
       d="m 101.41435,1027.3556 c 0,0 -5.580146,-22.4013 -8.200971,-22.5527 -2.620785,-0.1513 -8.328907,22.5527 -8.328907,22.5527"
       style="fill:none;fill-rule:evenodd;stroke:#e6e6e6;stroke-width:0.82009727;stroke-linecap:round;stroke-linejoin:round;stroke-miterlimit:4;stroke-dasharray:none;stroke-opacity:1" />
    <path
       style="fill:#cccccc;fill-opacity:1;stroke:none;stroke-width:3;stroke-linecap:round;stroke-linejoin:round;stroke-miterlimit:4;stroke-dasharray:none"
       d="m 45.473553,1027.1291 c 0,1.4099 -4.088061,5.0132 -9.130962,5.0132 -5.042859,0 -9.130962,-3.6033 -9.130962,-5.0132 0,0 2.63526,0.3489 9.130962,0.3489 6.495703,0 9.130962,-0.3489 9.130962,-0.3489 z"
       id="path5913"
       inkscape:connector-curvature="0"
       sodipodi:nodetypes="csczc" />
    <path
       sodipodi:nodetypes="csczc"
       inkscape:connector-curvature="0"
       id="path5915"
       d="m 102.28037,1027.0125 c 0,1.4099 -4.088058,5.0132 -9.130959,5.0132 -5.04286,0 -9.130962,-3.6033 -9.130962,-5.0132 0,0 2.635259,0.3488 9.130962,0.3488 6.495703,0 9.130959,-0.3488 9.130959,-0.3488 z"
       style="fill:#cccccc;fill-opacity:1;stroke:none;stroke-width:3;stroke-linecap:round;stroke-linejoin:round;stroke-miterlimit:4;stroke-dasharray:none" />
    <path
       style="color:#000000;font-style:normal;font-variant:normal;font-weight:normal;font-stretch:normal;font-size:medium;line-height:normal;font-family:sans-serif;text-indent:0;text-align:start;text-decoration:none;text-decoration-line:none;text-decoration-style:solid;text-decoration-color:#000000;letter-spacing:normal;word-spacing:normal;text-transform:none;direction:ltr;block-progression:tb;writing-mode:lr-tb;baseline-shift:baseline;text-anchor:start;white-space:normal;clip-rule:nonzero;display:inline;overflow:visible;visibility:visible;opacity:1;isolation:auto;mix-blend-mode:normal;color-interpolation:sRGB;color-interpolation-filters:linearRGB;solid-color:#000000;solid-opacity:1;fill:#cccccc;fill-opacity:1;fill-rule:evenodd;stroke:none;stroke-width:3.00000024;stroke-linecap:round;stroke-linejoin:round;stroke-miterlimit:4;stroke-dasharray:none;stroke-dashoffset:0;stroke-opacity:1;color-rendering:auto;image-rendering:auto;shape-rendering:auto;text-rendering:auto;enable-background:accumulate"
       d="m 64.890666,985.53232 -5.266582,8.20097 4.273486,0.8201 -0.595063,8.32031 c -0.260094,0.032 -0.513217,0.06 -0.800866,0.1049 -2.864681,0.4799 -5.632345,1.7094 -8.224221,2.8415 -3.306222,1.4441 -6.337383,4.3142 -8.486079,4.0684 -4.212716,-0.4818 -8.127573,-4.2919 -8.831257,-5.0087 -0.329474,-0.4109 -0.827519,-0.6502 -1.354268,-0.6511 -0.960293,0 -1.73877,0.7785 -1.738688,1.7387 -8.2e-5,0.9603 0.778395,1.7388 1.738688,1.7387 0.446994,-4e-4 0.876643,-0.1731 1.19972,-0.4821 1.768376,1.5668 4.934976,3.8586 8.730345,4.2927 0.38848,0.044 0.778559,0.06 1.170074,0.05 2.740682,-0.07 5.556527,-1.3818 8.447657,-2.6445 2.38722,-1.0427 4.819957,-2.0743 7.133369,-2.5684 0,0 1.404293,0.7788 2.602865,0.8201 1.198572,0.041 2.602866,-0.8209 2.602866,-0.8209 2.313904,0.494 4.747132,1.5262 7.134968,2.5692 3.304131,1.4431 6.509932,2.9503 9.617731,2.5948 3.853924,-0.4408 7.023025,-2.7586 8.747976,-4.2991 0.324226,0.3134 0.757565,0.4886 1.208537,0.4885 0.960046,-2e-4 1.73795,-0.7787 1.737909,-1.7387 -8.2e-5,-0.9598 -0.777945,-1.7383 -1.737909,-1.7387 -0.353544,4e-4 -0.6986,0.1085 -0.989079,0.31 -0.09439,0.051 -0.177551,0.1159 -0.245865,0.1914 0,0 -4.328514,4.6267 -8.977029,5.1584 -2.148696,0.2458 -5.179857,-2.6243 -8.486079,-4.0684 -2.592573,-1.1324 -5.361098,-2.3619 -8.2266,-2.8415 -0.26891,-0.042 -0.533596,-0.075 -0.799308,-0.1098 l -0.594242,-8.31541 4.273485,-0.8201 z m -4.1e-5,18.89178 c 0.475288,3e-4 0.860282,0.3857 0.860159,0.861 -2.46e-4,0.4749 -0.385199,0.8599 -0.860118,0.8601 -0.475246,10e-5 -0.860774,-0.3849 -0.860979,-0.8601 -1.64e-4,-0.4756 0.385405,-0.8611 0.860938,-0.861 z"
       id="path5917"
       inkscape:connector-curvature="0"
       inkscape:transform-center-x="-0.28535136"
       inkscape:transform-center-y="-11.128703"
       sodipodi:nodetypes="cccccssccccccsscscssccscccsscccccccccc" />
    <path
       d="m 105.35973,1000.8219 c -2.44959,0 -4.43766,1.9881 -4.43766,4.4376 0,2.4496 1.98807,4.4377 4.43766,4.4377 2.44959,0 4.43766,-1.9881 4.43766,-4.4377 0,-2.4495 -1.98807,-4.4376 -4.43766,-4.4376 z m 2.21882,4.8814 -1.77505,0 0,1.775 -0.88754,0 0,-1.775 -1.77505,0 0,-0.8876 1.77505,0 0,-1.775 0.88754,0 0,1.775 1.77505,0 0,0.8876 z"
       id="path6"
       inkscape:connector-curvature="0"
       style="fill:#cccccc;fill-opacity:1" />
    <path
       d="m 20.731445,1007.3769 c -2.616806,0 -4.740592,2.1238 -4.740592,4.7406 0,2.6167 2.123786,4.7406 4.740592,4.7406 2.616808,0 4.740594,-2.1239 4.740594,-4.7406 0,-2.6168 -2.123786,-4.7406 -4.740594,-4.7406 z m 2.370297,5.2147 -4.740593,0 0,-0.9482 4.740593,0 0,0.9482 z"
       id="path6-3"
       inkscape:connector-curvature="0"
       style="fill:#cccccc;fill-opacity:1" />
    <path
       style="fill:#cccccc;fill-opacity:1"
       inkscape:connector-curvature="0"
       id="path4327"
       d="m 26.43737,989.30048 c -2.08136,0 -3.77058,1.68923 -3.77058,3.77059 0,2.08142 1.68922,3.77065 3.77058,3.77065 2.08136,0 3.77058,-1.68923 3.77058,-3.77065 0,-2.08136 -1.68922,-3.77059 -3.77058,-3.77059 z m 1.885291,4.14767 -3.770582,0 0,-0.75416 3.770582,0 0,0.75416 z" />
    <path
       d="m 25.465135,970.02654 c -2.049268,0 -3.712442,1.66318 -3.712442,3.71245 0,2.04933 1.663174,3.7125 3.712442,3.7125 2.049268,0 3.712442,-1.66317 3.712442,-3.7125 0,-2.04927 -1.663174,-3.71245 -3.712442,-3.71245 z m 1.856221,4.08372 -3.712442,0 0,-0.74253 3.712442,0 0,0.74253 z"
       id="path4329"
       inkscape:connector-curvature="0"
       style="fill:#cccccc;fill-opacity:1" />
    <path
       style="fill:#cccccc;fill-opacity:1"
       inkscape:connector-curvature="0"
       id="path4331"
       d="m 102.99896,983.68608 c -1.71567,0 -3.108103,1.39241 -3.108103,3.10803 0,1.7157 1.392433,3.10811 3.108103,3.10811 1.71567,0 3.1081,-1.39241 3.1081,-3.10811 0,-1.71562 -1.39243,-3.10803 -3.1081,-3.10803 z m 1.55405,3.41886 -1.24324,0 0,1.24323 -0.62162,0 0,-1.24323 -1.24324,0 0,-0.62165 1.24324,0 0,-1.24323 0.62162,0 0,1.24323 1.24324,0 0,0.62165 z" />
    <path
       d="m 108.84046,963.51286 c -2.38287,0 -4.3168,1.9339 -4.3168,4.3167 0,2.3829 1.93393,4.3168 4.3168,4.3168 2.38287,0 4.31679,-1.9339 4.31679,-4.3168 0,-2.3828 -1.93392,-4.3167 -4.31679,-4.3167 z m 2.15839,4.7484 -1.72671,0 0,1.7267 -0.86336,0 0,-1.7267 -1.72671,0 0,-0.8634 1.72671,0 0,-1.7267 0.86336,0 0,1.7267 1.72671,0 0,0.8634 z"
       id="path4333"
       inkscape:connector-curvature="0"
       style="fill:#cccccc;fill-opacity:1" />
    <path
       style="fill:#cccccc;fill-opacity:1"
       inkscape:connector-curvature="0"
       id="path4335"
       d="m 116.55771,991.35907 c -2.24858,0 -4.07353,1.8249 -4.07353,4.0734 0,2.2486 1.82495,4.07347 4.07353,4.07347 2.24858,0 4.07352,-1.82487 4.07352,-4.07347 0,-2.2485 -1.82494,-4.0734 -4.07352,-4.0734 z m 2.03675,4.4807 -1.62939,0 0,1.6295 -0.81471,0 0,-1.6295 -1.6294,0 0,-0.8146 1.6294,0 0,-1.6295 0.81471,0 0,1.6295 1.62939,0 0,0.8146 z" />
    <path
       d="m 14.14391,997.64808 c -1.681051,0 -3.045381,1.36434 -3.045381,3.04532 0,1.6811 1.36433,3.0455 3.045381,3.0455 1.681051,0 3.045382,-1.3644 3.045382,-3.0455 0,-1.68098 -1.364331,-3.04532 -3.045382,-3.04532 z m 1.522691,3.34992 -3.045382,0 0,-0.6091 3.045382,0 0,0.6091 z"
       id="path4346"
       inkscape:connector-curvature="0"
       style="fill:#cccccc;fill-opacity:1" />
    <path
       style="fill:#cccccc;fill-opacity:1"
       inkscape:connector-curvature="0"
       id="path4348"
       d="m 10.046451,979.44522 c -2.4266909,0 -4.396179,1.9695 -4.396179,4.39619 0,2.42676 1.9694881,4.39625 4.396179,4.39625 2.426691,0 4.396179,-1.96949 4.396179,-4.39625 0,-2.42669 -1.969488,-4.39619 -4.396179,-4.39619 z m 2.19809,4.83584 -4.3961797,0 0,-0.87929 4.3961797,0 0,0.87929 z" />
    <path
       d="m 118.99896,973.63489 c -2.84794,0 -5.15931,2.31134 -5.15931,5.15919 0,2.84799 2.31137,5.15933 5.15931,5.15933 2.84794,0 5.15931,-2.31134 5.15931,-5.15933 0,-2.84785 -2.31137,-5.15919 -5.15931,-5.15919 z m 2.57966,5.67516 -2.06373,0 0,2.06371 -1.03186,0 0,-2.06371 -2.06373,0 0,-1.03191 2.06373,0 0,-2.06371 1.03186,0 0,2.06371 2.06373,0 0,1.03191 z"
       id="path4350"
       inkscape:connector-curvature="0"
       style="fill:#cccccc;fill-opacity:1" />
  </g>
</svg>
