<?xml version="1.0" encoding="UTF-8" standalone="no"?>
<svg
   xmlns:dc="http://purl.org/dc/elements/1.1/"
   xmlns:cc="http://creativecommons.org/ns#"
   xmlns:rdf="http://www.w3.org/1999/02/22-rdf-syntax-ns#"
   xmlns:svg="http://www.w3.org/2000/svg"
   xmlns="http://www.w3.org/2000/svg"
   xmlns:sodipodi="http://sodipodi.sourceforge.net/DTD/sodipodi-0.dtd"
   xmlns:inkscape="http://www.inkscape.org/namespaces/inkscape"
   inkscape:export-ydpi="3840"
   inkscape:export-xdpi="3840"
   inkscape:export-filename="/Users/markus/path5202.png"
   sodipodi:docname="ic_empty_issues.svg"
   inkscape:version="1.0beta1 (32d4812, 2019-09-19)"
   version="1.1"
   id="svg2"
   viewBox="0 0 128 112"
   height="112"
   width="128">
  <sodipodi:namedview
     inkscape:document-rotation="0"
     fit-margin-bottom="0"
     fit-margin-right="0"
     fit-margin-left="0"
     fit-margin-top="0"
     showborder="true"
     inkscape:window-maximized="0"
     inkscape:window-y="0"
     inkscape:window-x="0"
     inkscape:window-height="907"
     inkscape:window-width="1600"
     inkscape:guide-bbox="true"
     showguides="true"
     inkscape:showpageshadow="false"
     units="px"
     showgrid="false"
     inkscape:current-layer="layer1"
     inkscape:document-units="px"
     inkscape:cy="56.815196"
     inkscape:cx="63.643393"
     inkscape:zoom="4.4782947"
     inkscape:pageshadow="2"
     inkscape:pageopacity="0.0"
     borderopacity="1.0"
     bordercolor="#666666"
     pagecolor="#ffffff"
     id="base">
    <inkscape:grid
       originy="-1.6454996"
       originx="-5.2608773"
       type="xygrid"
       id="grid4582"
       snapvisiblegridlinesonly="true"
       enabled="false" />
  </sodipodi:namedview>
  <defs
     id="defs4" />
  <metadata
     id="metadata7">
    <rdf:RDF>
      <cc:Work
         rdf:about="">
        <dc:format>image/svg+xml</dc:format>
        <dc:type
           rdf:resource="http://purl.org/dc/dcmitype/StillImage" />
        <dc:title />
      </cc:Work>
    </rdf:RDF>
  </metadata>
  <g
     inkscape:label="Ebene 1"
     inkscape:groupmode="layer"
     id="layer1"
     transform="translate(-5.2608773,-938.7168)">
    <circle
       r="0"
       cy="1006.2059"
       cx="40.175743"
       id="circle5919"
       style="fill:#333333;fill-opacity:1;stroke:none;stroke-width:1.5;stroke-linecap:butt;stroke-linejoin:round;stroke-miterlimit:4;stroke-dasharray:none;stroke-opacity:1" />
    <circle
       r="0"
       style="fill:#ffffff;fill-opacity:1;stroke:none;stroke-width:1.5;stroke-linecap:butt;stroke-linejoin:round;stroke-miterlimit:4;stroke-dasharray:none;stroke-opacity:1"
       id="circle5921"
       cx="40.175743"
       cy="1006.2059" />
    <circle
       r="0"
       cy="1006.2059"
       cx="40.175743"
       id="circle5923"
       style="fill:#1a1a1a;fill-opacity:1;stroke:none;stroke-width:1.5;stroke-linecap:butt;stroke-linejoin:round;stroke-miterlimit:4;stroke-dasharray:none;stroke-opacity:1" />
    <path
       transform="translate(5.2608773,938.7168)"
       d="M 102.09766 1.6308594 A 22.306717 22.306717 0 0 0 86.324219 8.1640625 A 22.306717 22.306717 0 0 0 82.779297 12.783203 L 97.355469 21.199219 C 98.553482 21.05762 99.76938 20.973001 100.96289 21.087891 C 101.14348 21.107191 101.32075 21.130997 101.49805 21.154297 L 103.31641 15.898438 L 100.70312 14.630859 L 105.51562 10.253906 L 107.49414 16.449219 L 104.59766 16.240234 L 103.54297 21.707031 C 103.70509 21.772531 103.86337 21.833419 104.04102 21.912109 C 104.32024 22.039418 104.58743 22.195278 104.85742 22.34375 L 121.41602 12.783203 A 22.306717 22.306717 0 0 0 102.09766 1.6308594 z M 82.117188 18.976562 C 81.882405 19.384462 81.644456 19.867827 81.398438 20.453125 C 80.796617 21.884905 80.166007 23.768997 79.589844 25.648438 C 78.470701 29.299089 77.590706 32.807422 77.539062 33.013672 C 77.624827 33.023353 77.860521 33.038976 78.09375 33.058594 C 78.176699 32.727399 79.019337 29.370664 80.111328 25.808594 C 80.684691 23.938284 81.314103 22.065496 81.902344 20.666016 C 82.122009 20.143413 82.332607 19.71809 82.533203 19.355469 C 82.364013 19.259626 82.217644 19.136107 82.117188 18.976562 z M 84.642578 20.697266 C 85.225923 22.075727 85.846142 23.895093 86.416016 25.732422 C 87.528914 29.32051 88.392655 32.726724 88.476562 33.058594 C 88.710825 33.038912 88.944834 33.023425 89.03125 33.013672 C 88.979174 32.807098 88.079864 29.247104 86.939453 25.570312 C 86.519162 24.215252 86.072078 22.924266 85.626953 21.742188 C 85.259869 21.395887 84.933638 21.044138 84.642578 20.697266 z M 102.02539 22.416016 C 101.80376 22.446972 101.61034 22.608083 101.54883 22.837891 C 101.46693 23.144031 101.64902 23.458866 101.95508 23.541016 C 102.26138 23.623216 102.576 23.440946 102.6582 23.134766 C 102.7405 22.828236 102.55847 22.513711 102.25195 22.431641 C 102.17535 22.411141 102.09927 22.405697 102.02539 22.416016 z M 99.751953 23.222656 L 101.31445 52.818359 L 102.95508 52.818359 L 104.44336 24.609375 C 104.16188 24.438206 103.88055 24.269488 103.59766 24.125 C 103.59766 24.125 102.55703 24.383465 101.77734 24.203125 C 100.99769 24.022595 100.24219 23.224609 100.24219 23.224609 C 100.0826 23.216391 99.914821 23.224512 99.751953 23.222656 z M 25.1875 27.361328 A 22.306717 22.306717 0 0 0 5.8710938 38.515625 L 22.427734 48.074219 C 22.697951 47.925548 22.964583 47.770037 23.244141 47.642578 C 23.421791 47.563888 23.580068 47.503 23.742188 47.4375 L 22.689453 41.970703 L 19.792969 42.181641 L 21.771484 35.984375 L 26.582031 40.361328 L 23.970703 41.628906 L 25.789062 46.886719 C 25.966359 46.863419 26.143628 46.837659 26.324219 46.818359 C 27.517728 46.70347 28.733627 46.788089 29.931641 46.929688 L 44.505859 38.515625 A 22.306717 22.306717 0 0 0 40.960938 33.894531 A 22.306717 22.306717 0 0 0 25.1875 27.361328 z M 121.99023 28.648438 C 121.98369 28.693833 121.99459 28.737792 121.98242 28.783203 C 121.93595 28.956707 121.84608 29.102723 121.73633 29.230469 C 121.97329 29.60667 122.23248 30.119013 122.50391 30.751953 C 123.09969 32.141233 123.74023 34.021517 124.32422 35.904297 C 125.43756 39.493794 126.3015 42.901284 126.38477 43.230469 C 126.6177 43.210899 126.85103 43.195289 126.9375 43.185547 C 126.8861 42.981755 125.98657 39.420388 124.8457 35.742188 C 124.25881 33.850037 123.6181 31.960219 123.00781 30.537109 C 122.70267 29.825549 122.40787 29.231071 122.11914 28.800781 C 122.07697 28.737937 122.03246 28.704356 121.99023 28.648438 z M 119.98828 29.214844 C 119.76496 29.611151 119.53762 30.068888 119.30469 30.623047 C 118.70287 32.054837 118.07226 33.938899 117.49609 35.818359 C 116.37651 39.470468 115.49814 42.981935 115.44727 43.185547 C 115.53324 43.195243 115.7676 43.210921 116 43.230469 C 116.08215 42.902451 116.92697 39.542462 118.01953 35.978516 C 118.59289 34.108196 119.22035 32.235428 119.80859 30.835938 C 120.02499 30.321102 120.23165 29.901026 120.42969 29.541016 C 120.25594 29.469711 120.10873 29.358602 119.98828 29.214844 z M 45.167969 44.708984 C 45.067323 44.867996 44.921003 44.990511 44.751953 45.085938 C 44.952666 45.448125 45.162997 45.873525 45.382812 46.396484 C 45.971055 47.795964 46.600465 49.668752 47.173828 51.539062 C 48.266384 55.102981 49.11121 58.462995 49.193359 58.791016 C 49.425763 58.771468 49.660116 58.755789 49.746094 58.746094 C 49.695123 58.54252 48.814905 55.031017 47.695312 51.378906 C 47.11915 49.499466 46.488537 47.615374 45.886719 46.183594 C 45.640989 45.598983 45.402487 45.116645 45.167969 44.708984 z M 42.642578 46.431641 C 42.351662 46.778119 42.024944 47.128798 41.658203 47.474609 C 41.213078 48.656688 40.765994 49.947674 40.345703 51.302734 C 39.20484 54.980995 38.305304 58.542305 38.253906 58.746094 C 38.339848 58.755801 38.574881 58.771358 38.808594 58.791016 C 38.891859 58.461836 39.755791 55.054398 40.869141 51.464844 C 41.438598 49.628857 42.059602 47.809842 42.642578 46.431641 z M 25.261719 48.148438 C 25.187844 48.138119 25.111757 48.141609 25.035156 48.162109 C 24.728619 48.244179 24.546656 48.558704 24.628906 48.865234 C 24.711108 49.171514 25.025724 49.353684 25.332031 49.271484 C 25.638117 49.189334 25.820141 48.874499 25.738281 48.568359 C 25.676773 48.338552 25.483342 48.179394 25.261719 48.148438 z M 27.535156 48.953125 C 27.372289 48.95498 27.204508 48.94686 27.044922 48.955078 C 27.044922 48.955078 26.289417 49.755017 25.509766 49.935547 C 24.730074 50.115887 23.689453 49.855469 23.689453 49.855469 C 23.406069 50.000208 23.123759 50.168336 22.841797 50.339844 L 24.330078 78.548828 L 25.972656 78.548828 L 27.535156 48.953125 z M 5.2949219 54.376953 C 5.2523765 54.433237 5.2084984 54.467937 5.1660156 54.53125 C 4.8772876 54.96154 4.5824875 55.556018 4.2773438 56.267578 C 3.6670562 57.690688 3.0263418 59.580456 2.4394531 61.472656 C 1.2985903 65.150839 0.39905438 68.712223 0.34765625 68.916016 C 0.43363445 68.925711 0.66798744 68.94139 0.90039062 68.960938 C 0.98423768 68.629295 1.8479961 65.222867 2.9609375 61.634766 C 3.5449206 59.751936 4.1835187 57.871702 4.7792969 56.482422 C 5.0504159 55.850206 5.3117905 55.339022 5.5488281 54.962891 C 5.4397147 54.835342 5.3510414 54.688679 5.3046875 54.515625 C 5.2921524 54.46886 5.3014903 54.423715 5.2949219 54.376953 z M 7.2988281 54.947266 C 7.1778567 55.091173 7.0297794 55.202144 6.8554688 55.273438 C 7.0533815 55.632758 7.2603228 56.051953 7.4765625 56.566406 C 8.0648045 57.965896 8.692261 59.838644 9.265625 61.708984 C 10.358181 65.272883 11.203007 68.632915 11.285156 68.960938 C 11.518052 68.941349 11.751756 68.925736 11.837891 68.916016 C 11.787015 68.712404 10.908649 65.200937 9.7890625 61.548828 C 9.2129005 59.669398 8.5822867 57.785306 7.9804688 56.353516 C 7.7479881 55.800425 7.5217392 55.343152 7.2988281 54.947266 z M 76.650391 60.8125 A 22.306719 22.306719 0 0 0 57.332031 71.964844 L 73.205078 81.128906 C 73.800753 80.942938 74.401153 80.778084 75.011719 80.675781 C 75.203669 80.645781 75.37136 80.626469 75.544922 80.605469 L 75.943359 75.052734 L 73.091797 74.505859 L 76.605469 69.033203 L 80.119141 74.505859 L 77.267578 75.052734 L 77.664062 80.601562 C 77.841372 80.624563 78.017822 80.647781 78.197266 80.675781 C 78.828472 80.781447 79.44916 80.954022 80.064453 81.148438 L 95.96875 71.964844 A 22.306719 22.306719 0 0 0 92.423828 67.345703 A 22.306719 22.306719 0 0 0 76.650391 60.8125 z M 95.519531 81.619141 C 95.310521 81.607141 95.130802 81.704837 94.976562 81.835938 C 94.822333 81.967138 94.681476 82.142322 94.537109 82.357422 C 94.444781 82.495019 94.349839 82.676066 94.255859 82.845703 C 94.931571 82.281656 95.341797 81.84375 95.341797 81.84375 C 95.387387 81.79305 95.442859 81.750797 95.505859 81.716797 C 95.545938 81.688905 95.591968 81.674769 95.634766 81.652344 C 95.595812 81.642369 95.561463 81.621576 95.519531 81.619141 z M 76.605469 81.640625 C 76.288144 81.640625 76.031141 81.897444 76.03125 82.214844 C 76.031387 82.531944 76.288336 82.789163 76.605469 82.789062 C 76.922385 82.788963 77.179524 82.531744 77.179688 82.214844 C 77.179768 81.897644 76.922631 81.640825 76.605469 81.640625 z M 57.744141 81.736328 C 57.825733 81.795923 57.902127 81.862706 57.966797 81.943359 C 58.064764 82.043148 58.305313 82.269094 58.572266 82.509766 C 58.570018 82.506254 58.566699 82.501538 58.564453 82.498047 C 58.422175 82.276947 58.282084 82.094278 58.132812 81.955078 C 58.018332 81.848321 57.888123 81.776735 57.744141 81.736328 z M 78.341797 82.925781 C 78.341797 82.925781 77.405282 83.501609 76.605469 83.474609 C 75.805657 83.447009 74.867188 82.927734 74.867188 82.927734 C 74.66909 82.970042 74.466102 83.032588 74.265625 83.085938 L 75.792969 112 L 77.435547 112 L 78.960938 83.087891 C 78.754527 83.032645 78.545668 82.9693 78.341797 82.925781 z M 56.130859 83.326172 C 56.002063 83.586882 55.872575 83.863256 55.740234 84.171875 C 55.129945 85.594875 54.48728 87.484753 53.900391 89.376953 C 52.759528 93.055135 51.859991 96.61652 51.808594 96.820312 C 51.894535 96.83002 52.129568 96.845577 52.363281 96.865234 C 52.446547 96.536052 53.310478 93.128579 54.423828 89.539062 C 55.007811 87.656162 55.646411 85.776019 56.242188 84.386719 C 56.350383 84.134435 56.455833 83.919838 56.560547 83.703125 C 56.384585 83.617039 56.243134 83.484711 56.130859 83.326172 z M 97.015625 83.443359 C 96.889805 83.58196 96.734175 83.684975 96.554688 83.75 C 96.651072 83.956378 96.746557 84.156681 96.845703 84.392578 C 97.433943 85.791978 98.061406 87.664756 98.634766 89.535156 C 99.726759 93.097208 100.56939 96.45396 100.65234 96.785156 C 100.88658 96.765499 101.12026 96.751963 101.20703 96.742188 C 101.15552 96.535946 100.27737 93.025724 99.158203 89.375 C 98.582043 87.4956 97.951429 85.613441 97.349609 84.181641 C 97.236768 83.913178 97.125948 83.677639 97.015625 83.443359 z M 58.867188 84.316406 C 58.890901 84.371513 58.913668 84.414007 58.9375 84.470703 C 59.525741 85.870203 60.153199 87.742981 60.726562 89.613281 C 61.819131 93.177217 62.665746 96.537275 62.748047 96.865234 C 62.98045 96.845687 63.214803 96.830008 63.300781 96.820312 C 63.249811 96.61674 62.369593 93.105255 61.25 89.453125 C 60.745858 87.80865 60.201674 86.210755 59.669922 84.865234 C 59.382497 84.683861 59.116885 84.500798 58.867188 84.316406 z M 94.070312 84.519531 C 93.827231 84.689936 93.566439 84.856912 93.291016 85.021484 C 92.790537 86.30303 92.283229 87.768548 91.808594 89.298828 C 90.668184 92.975649 89.768873 96.533767 89.716797 96.740234 C 89.803056 96.749962 90.037718 96.765516 90.271484 96.785156 C 90.355865 96.450772 91.217632 93.047636 92.330078 89.460938 C 92.888321 87.661127 93.497212 85.88798 94.070312 84.519531 z "
       style="opacity:1;fill:#000000;fill-opacity:0.05098039;stroke:none;stroke-width:2.5731;stroke-linecap:butt;stroke-linejoin:round;stroke-miterlimit:4;stroke-dasharray:none;stroke-opacity:1;stop-opacity:1"
       id="path4171" />
    <path
       transform="translate(5.2608773,938.7168)"
       d="M 105.51562 10.253906 L 100.70312 14.630859 L 103.31641 15.898438 L 101.49805 21.154297 C 101.32075 21.130997 101.14348 21.107191 100.96289 21.087891 C 99.033051 20.902121 97.036592 21.215907 95.169922 21.498047 C 92.789431 21.857847 90.340572 23.183827 88.998047 22.654297 C 86.0936 21.508727 84.101562 17.779297 84.101562 17.779297 C 84.07058 17.718797 84.028582 17.662581 83.976562 17.613281 C 83.824124 17.433261 83.620392 17.305541 83.392578 17.244141 C 82.773748 17.078601 82.138479 17.445813 81.972656 18.064453 C 81.806826 18.683233 82.174189 19.318435 82.792969 19.484375 C 83.083634 19.562335 83.393139 19.524916 83.65625 19.378906 C 84.502037 20.669786 86.144754 22.710406 88.552734 23.660156 C 90.49452 24.425876 92.820244 24.007938 95.199219 23.648438 C 96.918469 23.388558 98.665397 23.143409 100.24219 23.224609 C 100.24219 23.224609 100.99769 24.022595 101.77734 24.203125 C 102.55703 24.383465 103.59766 24.125 103.59766 24.125 C 105.00347 24.84302 106.39331 25.927339 107.75195 27.011719 C 109.3974 28.324949 110.98576 29.657331 112.74023 30.175781 C 112.99085 30.249771 113.24396 30.307003 113.50195 30.345703 C 116.02329 30.721403 118.46065 29.790438 119.87109 29.085938 C 120.02597 29.340897 120.27251 29.526116 120.56055 29.603516 C 121.17951 29.769426 121.81661 29.402203 121.98242 28.783203 C 122.14831 28.164323 121.78108 27.529131 121.16211 27.363281 C 120.82243 27.272891 120.45912 27.340878 120.17578 27.548828 C 119.59841 27.889308 116.41773 29.668983 113.61914 29.251953 C 112.19171 29.039283 110.73323 26.665903 108.85156 25.164062 C 107.37645 23.986702 105.80462 22.716189 104.04102 21.912109 C 103.86337 21.833419 103.70509 21.772531 103.54297 21.707031 L 104.59766 16.240234 L 107.49414 16.449219 L 105.51562 10.253906 z M 102.02539 22.416016 C 102.09927 22.405697 102.17535 22.411141 102.25195 22.431641 C 102.55847 22.513711 102.7405 22.828236 102.6582 23.134766 C 102.576 23.440946 102.26138 23.623216 101.95508 23.541016 C 101.64902 23.458866 101.46693 23.144031 101.54883 22.837891 C 101.61034 22.608083 101.80376 22.446972 102.02539 22.416016 z M 77.193359 32.986328 C 77.193359 33.927128 79.921958 36.330078 83.287109 36.330078 C 86.652233 36.330078 89.378906 33.927128 89.378906 32.986328 C 89.378906 32.986328 87.621722 33.21875 83.287109 33.21875 C 78.952497 33.21875 77.193359 32.986328 77.193359 32.986328 z M 21.771484 35.984375 L 19.792969 42.181641 L 22.689453 41.970703 L 23.742188 47.4375 C 23.580068 47.503 23.421791 47.563888 23.244141 47.642578 C 21.480546 48.446658 19.91066 49.717171 18.435547 50.894531 C 16.553878 52.396371 15.095399 54.769752 13.667969 54.982422 C 10.869381 55.399452 7.686744 53.619777 7.109375 53.279297 C 6.82604 53.071347 6.464683 53.00336 6.125 53.09375 C 5.506027 53.2596 5.1387995 53.896745 5.3046875 54.515625 C 5.4704915 55.134625 6.1056534 55.501848 6.7246094 55.335938 C 7.0126564 55.258537 7.2611336 55.073319 7.4160156 54.818359 C 8.8264576 55.522859 11.261859 56.451872 13.783203 56.076172 C 14.041195 56.037472 14.296249 55.98034 14.546875 55.90625 C 16.30134 55.3878 17.889711 54.055418 19.535156 52.742188 C 20.893794 51.657807 22.283642 50.573489 23.689453 49.855469 C 23.689453 49.855469 24.730074 50.115887 25.509766 49.935547 C 26.289417 49.755017 27.044922 48.955078 27.044922 48.955078 C 28.621707 48.873878 30.368634 49.119026 32.087891 49.378906 C 34.466862 49.738406 36.792589 50.156345 38.734375 49.390625 C 41.142355 48.440875 42.785072 46.400255 43.630859 45.109375 C 43.89397 45.255385 44.203476 45.292804 44.494141 45.214844 C 45.112921 45.048904 45.480283 44.413702 45.314453 43.794922 C 45.14863 43.176282 44.513361 42.809069 43.894531 42.974609 C 43.666717 43.036009 43.462985 43.165683 43.310547 43.345703 C 43.258527 43.395003 43.214577 43.449266 43.183594 43.509766 C 43.183594 43.509766 41.19351 47.241149 38.289062 48.386719 C 36.946537 48.916249 34.497679 47.588316 32.117188 47.228516 C 30.250523 46.946376 28.254056 46.632589 26.324219 46.818359 C 26.143628 46.837659 25.966359 46.863419 25.789062 46.886719 L 23.970703 41.628906 L 26.582031 40.361328 L 21.771484 35.984375 z M 115.09961 43.15625 C 115.09961 44.0971 117.82821 46.501953 121.19336 46.501953 C 124.55849 46.501953 127.28711 44.0971 127.28711 43.15625 C 127.28711 43.15625 125.52798 43.388672 121.19336 43.388672 C 116.85875 43.388672 115.09961 43.15625 115.09961 43.15625 z M 25.261719 48.148438 C 25.483342 48.179394 25.676773 48.338552 25.738281 48.568359 C 25.820141 48.874499 25.638117 49.189334 25.332031 49.271484 C 25.025724 49.353684 24.711108 49.171514 24.628906 48.865234 C 24.546656 48.558704 24.728619 48.244179 25.035156 48.162109 C 25.111757 48.141609 25.187844 48.138119 25.261719 48.148438 z M 37.908203 58.716797 C 37.908203 59.657597 40.634876 62.0625 44 62.0625 C 47.365151 62.0625 50.09375 59.657597 50.09375 58.716797 C 50.09375 58.716797 48.334612 58.949219 44 58.949219 C 39.665387 58.949219 37.908203 58.716797 37.908203 58.716797 z M 0 68.886719 C 1.1842379e-15 69.827619 2.7286269 72.232422 6.09375 72.232422 C 9.4589 72.232422 12.185547 69.827619 12.185547 68.886719 C 12.185547 68.886719 10.428362 69.119141 6.09375 69.119141 C 1.7591386 69.119141 0 68.886719 0 68.886719 z M 76.605469 69.033203 L 73.091797 74.505859 L 75.943359 75.052734 L 75.544922 80.605469 C 75.37136 80.626469 75.203669 80.645781 75.011719 80.675781 C 73.100104 80.996081 71.253009 81.816766 69.523438 82.572266 C 67.317181 83.535866 65.295162 85.451209 63.861328 85.287109 C 61.050163 84.965609 58.436368 82.421659 57.966797 81.943359 C 57.746937 81.669159 57.415955 81.510366 57.064453 81.509766 C 56.423645 81.509766 55.902289 82.029122 55.902344 82.669922 C 55.902289 83.310722 56.423645 83.830178 57.064453 83.830078 C 57.362735 83.829778 57.64769 83.714012 57.863281 83.507812 C 59.043326 84.553312 61.156786 86.083447 63.689453 86.373047 C 63.948688 86.402047 64.209443 86.41325 64.470703 86.40625 C 66.299572 86.35925 68.178158 85.483225 70.107422 84.640625 C 71.700425 83.944825 73.323438 83.257434 74.867188 82.927734 C 74.867188 82.927734 75.805657 83.447009 76.605469 83.474609 C 77.405282 83.501609 78.341797 82.925781 78.341797 82.925781 C 79.885876 83.255381 81.510102 83.944625 83.103516 84.640625 C 85.308378 85.603625 87.447635 86.610347 89.521484 86.373047 C 92.093225 86.078947 94.20831 84.531906 95.359375 83.503906 C 95.575735 83.713106 95.863133 83.830178 96.164062 83.830078 C 96.804712 83.829978 97.324249 83.310522 97.324219 82.669922 C 97.324159 82.029422 96.804652 81.510066 96.164062 81.509766 C 95.928143 81.510066 95.699699 81.581897 95.505859 81.716797 C 95.442859 81.750797 95.387387 81.79305 95.341797 81.84375 C 95.341797 81.84375 92.451585 84.930356 89.349609 85.285156 C 87.915775 85.449256 85.893757 83.535866 83.6875 82.572266 C 81.957464 81.816566 80.109429 80.995881 78.197266 80.675781 C 78.017822 80.647781 77.841372 80.624563 77.664062 80.601562 L 77.267578 75.052734 L 80.119141 74.505859 L 76.605469 69.033203 z M 76.605469 81.640625 C 76.922631 81.640825 77.179769 81.897644 77.179688 82.214844 C 77.179524 82.531744 76.922385 82.788963 76.605469 82.789062 C 76.288336 82.789162 76.031387 82.531944 76.03125 82.214844 C 76.031141 81.897444 76.288144 81.640625 76.605469 81.640625 z M 89.369141 96.712891 C 89.369141 97.653691 92.097765 100.05859 95.462891 100.05859 C 98.828041 100.05859 101.55664 97.653691 101.55664 96.712891 C 101.55664 96.712891 99.797501 96.945312 95.462891 96.945312 C 91.128276 96.945312 89.369141 96.712891 89.369141 96.712891 z M 51.462891 96.791016 C 51.462891 97.731816 54.189565 100.13672 57.554688 100.13672 C 60.919838 100.13672 63.648438 97.731816 63.648438 96.791016 C 63.648438 96.791016 61.889299 97.023438 57.554688 97.023438 C 53.220076 97.023438 51.462891 96.791016 51.462891 96.791016 z "
       style="opacity:1;fill:#000000;fill-opacity:0.2;stroke:none;stroke-width:3.85965;stroke-linecap:round;stroke-linejoin:round;stroke-miterlimit:4;stroke-dasharray:none;stop-opacity:1"
       id="path4185" />
  </g>
</svg>
