<?xml version="1.0" encoding="UTF-8" standalone="no"?>
<!-- Created with Inkscape (http://www.inkscape.org/) -->

<svg
   xmlns:dc="http://purl.org/dc/elements/1.1/"
   xmlns:cc="http://creativecommons.org/ns#"
   xmlns:rdf="http://www.w3.org/1999/02/22-rdf-syntax-ns#"
   xmlns:svg="http://www.w3.org/2000/svg"
   xmlns="http://www.w3.org/2000/svg"
   xmlns:sodipodi="http://sodipodi.sourceforge.net/DTD/sodipodi-0.dtd"
   xmlns:inkscape="http://www.inkscape.org/namespaces/inkscape"
   width="80"
   height="80"
   viewBox="0 0 80.000003 80"
   id="svg2"
   version="1.1"
   inkscape:version="0.91 r13725"
   sodipodi:docname="ic_empty.svg"
   inkscape:export-filename="/Users/markus/path5202.png"
   inkscape:export-xdpi="3840"
   inkscape:export-ydpi="3840">
  <sodipodi:namedview
     id="base"
     pagecolor="#ffffff"
     bordercolor="#666666"
     borderopacity="1.0"
     inkscape:pageopacity="0.0"
     inkscape:pageshadow="2"
     inkscape:zoom="2.2306509"
     inkscape:cx="9.638254"
     inkscape:cy="39.679796"
     inkscape:document-units="px"
     inkscape:current-layer="layer1"
     showgrid="false"
     units="px"
     inkscape:showpageshadow="false"
     showguides="true"
     inkscape:guide-bbox="true"
     inkscape:window-width="1680"
     inkscape:window-height="925"
     inkscape:window-x="0"
     inkscape:window-y="1"
     inkscape:window-maximized="1">
    <inkscape:grid
       enabled="false"
       snapvisiblegridlinesonly="true"
       id="grid4582"
       type="xygrid" />
  </sodipodi:namedview>
  <defs
     id="defs4" />
  <metadata
     id="metadata7">
    <rdf:RDF>
      <cc:Work
         rdf:about="">
        <dc:format>image/svg+xml</dc:format>
        <dc:type
           rdf:resource="http://purl.org/dc/dcmitype/StillImage" />
        <dc:title></dc:title>
      </cc:Work>
    </rdf:RDF>
  </metadata>
  <g
     transform="translate(0,-972.3623)"
     id="layer1"
     inkscape:groupmode="layer"
     inkscape:label="Ebene 1">
    <path
       style="fill:#f2f2f2;fill-opacity:1;stroke:none;stroke-width:2;stroke-linecap:butt;stroke-linejoin:round;stroke-miterlimit:4;stroke-dasharray:none;stroke-opacity:1"
       d="m 36.467031,1004.1061 7.380874,0 -2.460291,46.6107 -2.460292,0 z"
       id="path5897"
       inkscape:connector-curvature="0"
       sodipodi:nodetypes="ccccc" />
    <path
       style="fill:none;fill-rule:evenodd;stroke:#e6e6e6;stroke-width:0.82009727;stroke-linecap:round;stroke-linejoin:round;stroke-miterlimit:4;stroke-dasharray:none;stroke-opacity:1"
       d="m 19.861539,1028.2683 c 0,0 -5.580146,-22.4013 -8.200972,-22.5527 -2.6207845,-0.1513 -8.3289069,22.5527 -8.3289069,22.5527"
       id="path5901"
       inkscape:connector-curvature="0"
       sodipodi:nodetypes="czc" />
    <g
       transform="matrix(0.81671834,0,0,0.81671834,372.91719,704.45042)"
       id="g5903"
       style="fill:#f2f2f2">
      <path
         style="fill:#f2f2f2;fill-opacity:1;stroke:none;stroke-width:10.00000095;stroke-linecap:butt;stroke-linejoin:round;stroke-miterlimit:4;stroke-dasharray:none;stroke-opacity:1"
         id="path5905"
         sodipodi:type="arc"
         sodipodi:cx="-407.36807"
         sodipodi:cy="370.97913"
         sodipodi:rx="40.929768"
         sodipodi:ry="40.929768"
         sodipodi:start="3.6651914"
         sodipodi:end="4.712389"
         d="m -442.81429,350.51424 a 40.929768,40.929768 0 0 1 35.44622,-20.46488 l 0,40.92977 z" />
      <path
         d="m -407.36807,330.04936 a 40.929768,40.929768 0 0 1 28.94171,11.98805 l -28.94171,28.94172 z"
         sodipodi:end="5.4977871"
         sodipodi:start="4.712389"
         sodipodi:ry="40.929768"
         sodipodi:rx="40.929768"
         sodipodi:cy="370.97913"
         sodipodi:cx="-407.36807"
         sodipodi:type="arc"
         id="path5907"
         style="fill:#f2f2f2;fill-opacity:1;stroke:none;stroke-width:10.00000095;stroke-linecap:butt;stroke-linejoin:round;stroke-miterlimit:4;stroke-dasharray:none;stroke-opacity:1" />
      <path
         style="fill:#f2f2f2;fill-opacity:1;stroke:none;stroke-width:10.00000095;stroke-linecap:butt;stroke-linejoin:round;stroke-miterlimit:4;stroke-dasharray:none;stroke-opacity:1"
         id="path5909"
         sodipodi:type="arc"
         sodipodi:cx="-407.36807"
         sodipodi:cy="370.97913"
         sodipodi:rx="40.929768"
         sodipodi:ry="40.929768"
         sodipodi:start="5.4977871"
         sodipodi:end="5.7595865"
         d="m -378.42636,342.03741 a 40.929768,40.929768 0 0 1 6.50451,8.47683 l -35.44622,20.46489 z" />
    </g>
    <path
       sodipodi:nodetypes="czc"
       inkscape:connector-curvature="0"
       id="path5911"
       d="m 76.668358,1028.1517 c 0,0 -5.580146,-22.4013 -8.200971,-22.5527 -2.620785,-0.1513 -8.328907,22.5527 -8.328907,22.5527"
       style="fill:none;fill-rule:evenodd;stroke:#e6e6e6;stroke-width:0.82009727;stroke-linecap:round;stroke-linejoin:round;stroke-miterlimit:4;stroke-dasharray:none;stroke-opacity:1" />
    <path
       style="fill:#cccccc;fill-opacity:1;stroke:none;stroke-width:3;stroke-linecap:round;stroke-linejoin:round;stroke-miterlimit:4;stroke-dasharray:none"
       d="m 20.727561,1027.9252 c 0,1.4099 -4.088061,5.0132 -9.130962,5.0132 -5.0428591,0 -9.1309615,-3.6033 -9.1309615,-5.0132 0,0 2.6352592,0.3489 9.1309615,0.3489 6.495703,0 9.130962,-0.3489 9.130962,-0.3489 z"
       id="path5913"
       inkscape:connector-curvature="0"
       sodipodi:nodetypes="csczc" />
    <path
       sodipodi:nodetypes="csczc"
       inkscape:connector-curvature="0"
       id="path5915"
       d="m 77.534381,1027.8086 c 0,1.4099 -4.088061,5.0132 -9.130962,5.0132 -5.04286,0 -9.130962,-3.6033 -9.130962,-5.0132 0,0 2.635259,0.3488 9.130962,0.3488 6.495703,0 9.130962,-0.3488 9.130962,-0.3488 z"
       style="fill:#cccccc;fill-opacity:1;stroke:none;stroke-width:3;stroke-linecap:round;stroke-linejoin:round;stroke-miterlimit:4;stroke-dasharray:none" />
    <path
       style="color:#000000;font-style:normal;font-variant:normal;font-weight:normal;font-stretch:normal;font-size:medium;line-height:normal;font-family:sans-serif;text-indent:0;text-align:start;text-decoration:none;text-decoration-line:none;text-decoration-style:solid;text-decoration-color:#000000;letter-spacing:normal;word-spacing:normal;text-transform:none;direction:ltr;block-progression:tb;writing-mode:lr-tb;baseline-shift:baseline;text-anchor:start;white-space:normal;clip-rule:nonzero;display:inline;overflow:visible;visibility:visible;opacity:1;isolation:auto;mix-blend-mode:normal;color-interpolation:sRGB;color-interpolation-filters:linearRGB;solid-color:#000000;solid-opacity:1;fill:#cccccc;fill-opacity:1;fill-rule:evenodd;stroke:none;stroke-width:3.00000024;stroke-linecap:round;stroke-linejoin:round;stroke-miterlimit:4;stroke-dasharray:none;stroke-dashoffset:0;stroke-opacity:1;color-rendering:auto;image-rendering:auto;shape-rendering:auto;text-rendering:auto;enable-background:accumulate"
       d="m 40.144674,986.32838 -5.266582,8.20097 4.273486,0.8201 -0.595063,8.32035 c -0.260094,0.032 -0.513217,0.06 -0.800866,0.1049 -2.864681,0.4799 -5.632345,1.7094 -8.224221,2.8415 -3.306222,1.4441 -6.337383,4.3142 -8.486079,4.0684 -4.212716,-0.4818 -8.127573,-4.2919 -8.831257,-5.0087 -0.329474,-0.4109 -0.827519,-0.6502 -1.354268,-0.6511 -0.9602926,0 -1.7387699,0.7785 -1.7386879,1.7387 -8.2e-5,0.9603 0.7783953,1.7388 1.7386879,1.7387 0.446994,-4e-4 0.876643,-0.1731 1.19972,-0.4821 1.768376,1.5668 4.934976,3.8586 8.730345,4.2927 0.38848,0.044 0.778559,0.06 1.170074,0.05 2.740682,-0.07 5.556527,-1.3818 8.447657,-2.6445 2.38722,-1.0427 4.819957,-2.0743 7.133369,-2.5684 0,0 1.404293,0.7788 2.602865,0.8201 1.198572,0.041 2.602866,-0.8209 2.602866,-0.8209 2.313904,0.494 4.747132,1.5262 7.134968,2.5692 3.304131,1.4431 6.509932,2.9503 9.617731,2.5948 3.853924,-0.4408 7.023025,-2.7586 8.747976,-4.2991 0.324226,0.3134 0.757565,0.4886 1.208537,0.4885 0.960046,-2e-4 1.73795,-0.7787 1.737909,-1.7387 -8.2e-5,-0.9598 -0.777945,-1.7383 -1.737909,-1.7387 -0.353544,4e-4 -0.6986,0.1085 -0.989079,0.31 -0.09439,0.051 -0.177551,0.1159 -0.245865,0.1914 0,0 -4.328514,4.6267 -8.977029,5.1584 -2.148696,0.2458 -5.179857,-2.6243 -8.486079,-4.0684 -2.592573,-1.1324 -5.361098,-2.3619 -8.2266,-2.8415 -0.26891,-0.042 -0.533596,-0.075 -0.799308,-0.1098 l -0.594242,-8.31545 4.273485,-0.8201 z m -4.1e-5,18.89182 c 0.475288,3e-4 0.860282,0.3857 0.860159,0.861 -2.46e-4,0.4749 -0.385199,0.8599 -0.860118,0.8601 -0.475246,1e-4 -0.860774,-0.3849 -0.860979,-0.8601 -1.64e-4,-0.4756 0.385405,-0.8611 0.860938,-0.861 z"
       id="path5917"
       inkscape:connector-curvature="0"
       inkscape:transform-center-x="-0.28535136"
       inkscape:transform-center-y="-11.128703"
       sodipodi:nodetypes="cccccssccccccsscscssccscccsscccccccccc" />
    <circle
       style="fill:#333333;fill-opacity:1;stroke:none;stroke-width:1.5;stroke-linecap:butt;stroke-linejoin:round;stroke-miterlimit:4;stroke-dasharray:none;stroke-opacity:1"
       id="circle5919"
       cx="40.175743"
       cy="1006.2059"
       r="0" />
    <circle
       cy="1006.2059"
       cx="40.175743"
       id="circle5921"
       style="fill:#ffffff;fill-opacity:1;stroke:none;stroke-width:1.5;stroke-linecap:butt;stroke-linejoin:round;stroke-miterlimit:4;stroke-dasharray:none;stroke-opacity:1"
       r="0" />
    <circle
       style="fill:#1a1a1a;fill-opacity:1;stroke:none;stroke-width:1.5;stroke-linecap:butt;stroke-linejoin:round;stroke-miterlimit:4;stroke-dasharray:none;stroke-opacity:1"
       id="circle5923"
       cx="40.175743"
       cy="1006.2059"
       r="0" />
    <g
       id="g4462"
       transform="matrix(1.8485444,0,0,1.8485444,305.30887,-1006.251)"
       style="fill:#e6e6e6">
      <path
         inkscape:transform-center-y="-2.9586233"
         sodipodi:nodetypes="cccccccccccccccccccccc"
         inkscape:connector-curvature="0"
         id="path4291"
         d="m -103.17377,1090.1061 -2.35684,2.245 c -0.77423,0.6627 -1.23643,0.034 -0.8707,-0.5668 l 2.2388,-2.3435 -3.20566,2.432 c -0.70217,0.1164 -1.05141,-0.3841 -0.64486,-0.8061 l 3.35747,-2.6723 -4.20973,2.0581 c -0.54758,0.211 -1.17186,-0.7704 -0.38603,-1.1314 l 4.20673,-2.099 -4.11991,1.1743 c -0.7857,0.077 -0.65255,-0.8793 -0.009,-1.1653 l 4.4704,-1.3128 0.88084,-0.7747 -1.5931,-0.8877 c -0.65483,-0.2929 -0.27292,-1.176 1.1939,-0.6627 l 3.28026,1.1589 1.890831,1.2788 10.77379,7.3522 -1.77149,6.6113 -9.73852,-11.2159 z"
         style="fill:#e6e6e6;fill-opacity:1;stroke:none;stroke-width:4;stroke-miterlimit:4;stroke-dasharray:none"
         inkscape:transform-center-x="9.6403872" />
      <path
         inkscape:transform-center-y="10.688658"
         sodipodi:nodetypes="ccccc"
         inkscape:connector-curvature="0"
         id="path4293"
         d="m -86.440459,1113.5502 -6.09286,0 -10e-6,-18.5011 6.09287,0 z"
         style="fill:#e6e6e6;fill-opacity:1;stroke:none;stroke-width:4;stroke-miterlimit:4;stroke-dasharray:none" />
      <path
         inkscape:transform-center-x="-9.6403869"
         style="fill:#e6e6e6;fill-opacity:1;stroke:none;stroke-width:4;stroke-miterlimit:4;stroke-dasharray:none"
         d="m -75.679295,1090.1061 2.356837,2.245 c 0.774235,0.6627 1.236437,0.034 0.870705,-0.5668 l -2.238806,-2.3435 3.205668,2.432 c 0.702166,0.1164 1.051409,-0.3841 0.644852,-0.8061 l -3.357469,-2.6723 4.209732,2.0581 c 0.547582,0.211 1.171862,-0.7704 0.386035,-1.1314 l -4.206739,-2.099 4.119915,1.1743 c 0.785697,0.077 0.652554,-0.8793 0.0094,-1.1653 l -4.470403,-1.3128 -0.880836,-0.7747 1.593094,-0.8877 c 0.654831,-0.2929 0.272924,-1.176 -1.193894,-0.6627 l -3.280266,1.1589 -1.890826,1.2788 -10.773793,7.3522 1.77149,6.6113 9.73852,-11.2159 z"
         id="path4297"
         inkscape:connector-curvature="0"
         sodipodi:nodetypes="cccccccccccccccccccccc"
         inkscape:transform-center-y="-2.9586233" />
    </g>
    <g
       id="g4467"
       transform="matrix(1.5426551,0,0,1.5426551,-422.46436,-776.75395)">
      <path
         inkscape:connector-curvature="0"
         id="path4497"
         d="m 244.69634,1135.7959 6,0 0,48.2541 -6,0 z"
         style="fill:#a05a2c;fill-opacity:1"
         sodipodi:nodetypes="ccccc" />
      <path
         sodipodi:nodetypes="ccccc"
         style="fill:#c87137;fill-opacity:1"
         d="m 244.69634,1135.7959 2.13322,0 -0.90983,32.7951 -1.22339,5.459 z"
         id="path4499"
         inkscape:connector-curvature="0" />
      <ellipse
         ry="1.4064002"
         rx="3.0000002"
         cy="1135.7643"
         cx="247.69633"
         id="ellipse4501"
         style="fill:#784421;fill-opacity:1" />
      <ellipse
         style="fill:#a05a2c;fill-opacity:1"
         id="ellipse4503"
         cx="247.69633"
         cy="1183.7643"
         rx="3.0000002"
         ry="1.4064002" />
      <path
         style="fill:#784421;fill-opacity:1"
         d="m 250.69601,1159.51 c -4e-5,0.7184 -1.34284,1.3007 -2.99967,1.3007 -1.65683,0 -2.99997,-0.5823 -3,-1.3007 3e-5,-0.7184 5.99967,-3.9811 5.99967,-2.3243 z"
         id="path4505"
         inkscape:connector-curvature="0"
         sodipodi:nodetypes="cscsc" />
      <path
         sodipodi:nodetypes="ccccccc"
         inkscape:connector-curvature="0"
         id="path4507"
         d="m 236.37669,1156.0192 19.53267,-6.5662 0.89089,0.2423 4.03737,2.2827 -27.996,9.7155 -0.1706,-0.8895 z"
         style="fill:#784421;fill-opacity:1" />
      <path
         style="fill:#a05a2c;fill-opacity:1"
         d="m 237.04756,1156.3013 19.76144,-6.5662 4.14459,2.1189 -4.14459,5.3819 -19.76144,6.5662 -4.14459,-2.1189 z"
         id="path4509"
         inkscape:connector-curvature="0"
         sodipodi:nodetypes="ccccccc" />
      <path
         sodipodi:nodetypes="cscsc"
         inkscape:connector-curvature="0"
         id="path4511"
         d="m 244.6939,1147.1538 c 4e-5,0.7746 1.4479,1.4024 3.23436,1.4024 1.78647,0 3.23468,-0.6278 3.23471,-1.4024 -3e-5,-0.7746 -6.46907,-4.2926 -6.46907,-2.5062 z"
         style="fill:#784421;fill-opacity:1" />
      <path
         style="fill:#784421;fill-opacity:1"
         d="m 259.24792,1144.2226 -21.53267,-8.5662 -0.89088,0.2423 -4.03738,2.2827 29.99601,11.7155 0.39805,-0.6052 z"
         id="path4513"
         inkscape:connector-curvature="0"
         sodipodi:nodetypes="ccccccc" />
      <path
         id="path4515"
         d="m 245.29102,1144.1494 c -0.36261,0.015 -0.58537,0.1607 -0.59375,0.4824 l 0,2.5391 c 0.0156,0.54 0.73939,1.0021 1.7832,1.2305 l 0.11133,-3.9961 c -0.50705,-0.1672 -0.9647,-0.2696 -1.30078,-0.2559 z"
         style="fill:#a05a2c;fill-opacity:1"
         inkscape:connector-curvature="0" />
      <path
         sodipodi:nodetypes="ccccccc"
         inkscape:connector-curvature="0"
         id="path4517"
         d="m 258.57705,1144.5047 -21.76144,-8.5662 -4.14459,2.1189 4.14459,5.3819 21.76144,8.5662 4.1446,-2.1189 z"
         style="fill:#c87137;fill-opacity:1" />
    </g>
    <g
       id="g4480"
       transform="matrix(1.7566911,0,0,1.7566911,-340.32302,-910.80037)">
      <path
         style="fill:#a05a2c;fill-opacity:1"
         d="m 124.69634,1075.7959 6,0 0,38.2541 -6,0 z"
         id="rect4164"
         inkscape:connector-curvature="0" />
      <ellipse
         style="fill:#784421;fill-opacity:1"
         id="path4167"
         cx="127.69633"
         cy="1075.7643"
         rx="3.0000002"
         ry="1.4064002" />
      <ellipse
         ry="1.4064002"
         rx="3.0000002"
         cy="1113.7643"
         cx="127.69633"
         id="ellipse4169"
         style="fill:#a05a2c;fill-opacity:1" />
      <path
         sodipodi:nodetypes="ccccccc"
         inkscape:connector-curvature="0"
         id="path4171"
         d="m 111.94466,1080.3562 31.50335,0 6,3.7504 0,1.0032 -43.50335,0 0,-1.0032 z"
         style="fill:#784421;fill-opacity:1" />
      <ellipse
         ry="1.3007259"
         rx="3.0000002"
         cy="1088.8131"
         cx="127.69633"
         id="ellipse4175"
         style="fill:#784421;fill-opacity:1" />
      <path
         style="fill:#a05a2c;fill-opacity:1"
         d="m 111.94466,1081.2354 31.50335,0 6,3.7504 -6,3.7504 -31.50335,0 -6,-3.7504 z"
         id="rect4161"
         inkscape:connector-curvature="0"
         sodipodi:nodetypes="ccccccc" />
      <g
         id="g4277"
         transform="matrix(0.16368623,0,0,0.16368623,100.7843,926.8194)"
         style="fill:#f4e3d7">
        <path
           inkscape:connector-curvature="0"
           id="path4279"
           style="font-style:normal;font-variant:normal;font-weight:normal;font-stretch:condensed;font-size:medium;line-height:125%;font-family:Impact;-inkscape-font-specification:'Impact Condensed';letter-spacing:0px;word-spacing:0px;fill:#f4e3d7;fill-opacity:1;stroke:none;stroke-width:1px;stroke-linecap:butt;stroke-linejoin:miter;stroke-opacity:1"
           d="m 91.815376,950.03052 -5.996093,20.17578 0,11.44531 -7.617188,0 0,-11.44531 -5.78125,-20.17578 7.558594,0 q 1.777344,9.23828 1.992187,12.4414 0.683594,-5.05859 2.285157,-12.4414 l 7.558593,0 z" />
        <path
           inkscape:connector-curvature="0"
           id="path4281"
           style="font-style:normal;font-variant:normal;font-weight:normal;font-stretch:condensed;font-size:medium;line-height:125%;font-family:Impact;-inkscape-font-specification:'Impact Condensed';letter-spacing:0px;word-spacing:0px;fill:#f4e3d7;fill-opacity:1;stroke:none;stroke-width:1px;stroke-linecap:butt;stroke-linejoin:miter;stroke-opacity:1"
           d="m 93.28022,958.69122 10.03289,0 0,4.63056 -4.016011,0 0,4.38761 3.758761,0 0,4.40189 -3.758761,0 0,5.08791 4.416181,0 0,4.63056 -10.43306,0 0,-23.13853 z" />
        <path
           inkscape:connector-curvature="0"
           id="path4283"
           style="font-style:normal;font-variant:normal;font-weight:normal;font-stretch:condensed;font-size:medium;line-height:125%;font-family:Impact;-inkscape-font-specification:'Impact Condensed';letter-spacing:0px;word-spacing:0px;fill:#f4e3d7;fill-opacity:1;stroke:none;stroke-width:1px;stroke-linecap:butt;stroke-linejoin:miter;stroke-opacity:1"
           d="m 118.20524,965.69423 -5.58812,0 0,-1.71502 q 0,-1.20052 -0.21438,-1.52923 -0.21438,-0.32871 -0.71459,-0.32871 -0.5431,0 -0.82893,0.44304 -0.27155,0.44305 -0.27155,1.34343 0,1.15765 0.31442,1.74362 0.30013,0.58596 1.70074,1.41489 4.01601,2.38674 5.05931,3.91597 1.04331,1.52923 1.04331,4.93069 0,2.4725 -0.58597,3.64443 -0.57167,1.17194 -2.22952,1.97228 -1.65786,0.78605 -3.85881,0.78605 -2.41532,0 -4.13035,-0.91468 -1.70073,-0.91468 -2.22953,-2.32957 -0.5288,-1.41489 -0.5288,-4.01602 l 0,-1.51493 5.58812,0 0,2.81549 q 0,1.30057 0.22867,1.67215 0.24296,0.37159 0.84322,0.37159 0.60026,0 0.8861,-0.47163 0.30012,-0.47163 0.30012,-1.4006 0,-2.04374 -0.55737,-2.67259 -0.57168,-0.62883 -2.8155,-2.1009 -2.24383,-1.48635 -2.97271,-2.15807 -0.72889,-0.67172 -1.21481,-1.85794 -0.47163,-1.18622 -0.47163,-3.02988 0,-2.65829 0.67171,-3.88739 0.68601,-1.22909 2.20095,-1.9151 1.51494,-0.7003 3.65872,-0.7003 2.34387,0 3.98743,0.75746 1.65786,0.75747 2.18665,1.91511 0.5431,1.14335 0.5431,3.90168 l 0,0.91468 z" />
      </g>
      <g
         id="g4285"
         transform="matrix(0.1687131,0,0,0.1687131,110.34706,923.6527)"
         style="fill:#f4e3d7">
        <path
           inkscape:connector-curvature="0"
           id="path4287"
           style="font-style:normal;font-variant:normal;font-weight:normal;font-stretch:condensed;font-size:medium;line-height:125%;font-family:Impact;-inkscape-font-specification:'Impact Condensed';letter-spacing:0px;word-spacing:0px;fill:#f4e3d7;fill-opacity:1;stroke:none;stroke-width:1px;stroke-linecap:butt;stroke-linejoin:miter;stroke-opacity:1"
           d="m 175.56349,940.48456 0,31.62109 -7.20703,0 -4.27734,-14.375 0,14.375 -6.875,0 0,-31.62109 6.875,0 4.60937,14.23828 0,-14.23828 6.875,0 z" />
        <path
           inkscape:connector-curvature="0"
           id="path4289"
           style="font-style:normal;font-variant:normal;font-weight:normal;font-stretch:condensed;font-size:medium;line-height:125%;font-family:Impact;-inkscape-font-specification:'Impact Condensed';letter-spacing:0px;word-spacing:0px;fill:#f4e3d7;fill-opacity:1;stroke:none;stroke-width:1px;stroke-linecap:butt;stroke-linejoin:miter;stroke-opacity:1"
           d="m 193.7554,961.80744 q 0,3.79404 -0.18659,5.38007 -0.17104,1.57048 -1.11955,2.87662 -0.93296,1.30614 -2.53453,2.00587 -1.60158,0.69971 -3.73184,0.69971 -2.02142,0 -3.63855,-0.65307 -1.60158,-0.66862 -2.58118,-1.99031 -0.97961,-1.32169 -1.1662,-2.87663 -0.18659,-1.55492 -0.18659,-5.44226 l 0,-4.30716 q 0,-3.79403 0.17104,-5.36451 0.1866,-1.58603 1.11955,-2.89218 0.94851,-1.30614 2.55009,-2.00586 1.60158,-0.69972 3.73184,-0.69972 2.02141,0 3.62299,0.66862 1.61713,0.65307 2.59674,1.97477 0.9796,1.32168 1.16619,2.87662 0.18659,1.55493 0.18659,5.44226 l 0,4.30716 z m -6.54626,-8.27223 q 0,-1.75708 -0.20214,-2.23911 -0.18659,-0.49757 -0.79301,-0.49757 -0.51313,0 -0.79302,0.40428 -0.26434,0.38873 -0.26434,2.3324 l 0,11.75528 q 0,2.19246 0.17105,2.70558 0.18658,0.51313 0.83965,0.51313 0.66863,0 0.85522,-0.59088 0.18659,-0.59087 0.18659,-2.81442 l 0,-11.56869 z" />
      </g>
    </g>
  </g>
</svg>
