<?xml version="1.0" encoding="UTF-8" standalone="no"?>
<!-- Created with Inkscape (http://www.inkscape.org/) -->

<svg
   xmlns:dc="http://purl.org/dc/elements/1.1/"
   xmlns:cc="http://creativecommons.org/ns#"
   xmlns:rdf="http://www.w3.org/1999/02/22-rdf-syntax-ns#"
   xmlns:svg="http://www.w3.org/2000/svg"
   xmlns="http://www.w3.org/2000/svg"
   xmlns:sodipodi="http://sodipodi.sourceforge.net/DTD/sodipodi-0.dtd"
   xmlns:inkscape="http://www.inkscape.org/namespaces/inkscape"
   width="128"
   height="112"
   viewBox="0 0 128 112"
   id="svg2"
   version="1.1"
   inkscape:version="0.91 r13725"
   sodipodi:docname="ic_empty_issues.svg"
   inkscape:export-filename="/Users/markus/path5202.png"
   inkscape:export-xdpi="3840"
   inkscape:export-ydpi="3840">
  <sodipodi:namedview
     id="base"
     pagecolor="#ffffff"
     bordercolor="#666666"
     borderopacity="1.0"
     inkscape:pageopacity="0.0"
     inkscape:pageshadow="2"
     inkscape:zoom="1.1373009"
     inkscape:cx="157.17776"
     inkscape:cy="59.150593"
     inkscape:document-units="px"
     inkscape:current-layer="layer1"
     showgrid="false"
     units="px"
     inkscape:showpageshadow="false"
     showguides="true"
     inkscape:guide-bbox="true"
     inkscape:window-width="1680"
     inkscape:window-height="925"
     inkscape:window-x="0"
     inkscape:window-y="1"
     inkscape:window-maximized="1"
     showborder="true"
     fit-margin-top="0"
     fit-margin-left="0"
     fit-margin-right="0"
     fit-margin-bottom="0">
    <inkscape:grid
       enabled="false"
       snapvisiblegridlinesonly="true"
       id="grid4582"
       type="xygrid"
       originx="-5.2608773"
       originy="-1.6454996" />
  </sodipodi:namedview>
  <defs
     id="defs4" />
  <metadata
     id="metadata7">
    <rdf:RDF>
      <cc:Work
         rdf:about="">
        <dc:format>image/svg+xml</dc:format>
        <dc:type
           rdf:resource="http://purl.org/dc/dcmitype/StillImage" />
        <dc:title></dc:title>
      </cc:Work>
    </rdf:RDF>
  </metadata>
  <g
     transform="translate(-5.2608773,-938.7168)"
     id="layer1"
     inkscape:groupmode="layer"
     inkscape:label="Ebene 1">
    <circle
       style="fill:#333333;fill-opacity:1;stroke:none;stroke-width:1.5;stroke-linecap:butt;stroke-linejoin:round;stroke-miterlimit:4;stroke-dasharray:none;stroke-opacity:1"
       id="circle5919"
       cx="40.175743"
       cy="1006.2059"
       r="0" />
    <circle
       cy="1006.2059"
       cx="40.175743"
       id="circle5921"
       style="fill:#ffffff;fill-opacity:1;stroke:none;stroke-width:1.5;stroke-linecap:butt;stroke-linejoin:round;stroke-miterlimit:4;stroke-dasharray:none;stroke-opacity:1"
       r="0" />
    <circle
       style="fill:#1a1a1a;fill-opacity:1;stroke:none;stroke-width:1.5;stroke-linecap:butt;stroke-linejoin:round;stroke-miterlimit:4;stroke-dasharray:none;stroke-opacity:1"
       id="circle5923"
       cx="40.175743"
       cy="1006.2059"
       r="0" />
    <g
       id="g4303"
       transform="matrix(1.2865512,0,0,1.2865512,-27.260286,-284.02835)">
      <g
         id="g4269">
        <path
           sodipodi:nodetypes="ccccc"
           inkscape:connector-curvature="0"
           id="path4171"
           d="m 42.913526,987.2839 3.82829,0 -1.276097,24.1759 -1.276097,0 z"
           style="fill:#f2f2f2;fill-opacity:1;stroke:none;stroke-width:2;stroke-linecap:butt;stroke-linejoin:round;stroke-miterlimit:4;stroke-dasharray:none;stroke-opacity:1" />
        <path
           sodipodi:nodetypes="czc"
           inkscape:connector-curvature="0"
           id="path4173"
           d="m 34.300639,1004.1272 c 0,0 -2.894294,-11.61913 -4.253656,-11.69763 -1.359341,-0.078 -4.320013,11.69763 -4.320013,11.69763"
           style="fill:none;fill-rule:evenodd;stroke:#e6e6e6;stroke-width:0.42536563;stroke-linecap:round;stroke-linejoin:round;stroke-miterlimit:4;stroke-dasharray:none;stroke-opacity:1" />
        <g
           style="fill:#f2f2f2"
           id="g4175"
           transform="matrix(0.42361304,0,0,0.42361304,217.42249,831.8594)">
          <path
             d="m -442.81429,350.51424 a 40.929768,40.929768 0 0 1 35.44622,-20.46488 l 0,40.92977 z"
             sodipodi:end="4.712389"
             sodipodi:start="3.6651914"
             sodipodi:ry="40.929768"
             sodipodi:rx="40.929768"
             sodipodi:cy="370.97913"
             sodipodi:cx="-407.36807"
             sodipodi:type="arc"
             id="path4177"
             style="fill:#f2f2f2;fill-opacity:1;stroke:none;stroke-width:10.00000095;stroke-linecap:butt;stroke-linejoin:round;stroke-miterlimit:4;stroke-dasharray:none;stroke-opacity:1" />
          <path
             style="fill:#f2f2f2;fill-opacity:1;stroke:none;stroke-width:10.00000095;stroke-linecap:butt;stroke-linejoin:round;stroke-miterlimit:4;stroke-dasharray:none;stroke-opacity:1"
             id="path4179"
             sodipodi:type="arc"
             sodipodi:cx="-407.36807"
             sodipodi:cy="370.97913"
             sodipodi:rx="40.929768"
             sodipodi:ry="40.929768"
             sodipodi:start="4.712389"
             sodipodi:end="5.4977871"
             d="m -407.36807,330.04936 a 40.929768,40.929768 0 0 1 28.94171,11.98805 l -28.94171,28.94172 z" />
          <path
             d="m -378.42636,342.03741 a 40.929768,40.929768 0 0 1 6.50451,8.47683 l -35.44622,20.46489 z"
             sodipodi:end="5.7595865"
             sodipodi:start="5.4977871"
             sodipodi:ry="40.929768"
             sodipodi:rx="40.929768"
             sodipodi:cy="370.97913"
             sodipodi:cx="-407.36807"
             sodipodi:type="arc"
             id="path4181"
             style="fill:#f2f2f2;fill-opacity:1;stroke:none;stroke-width:10.00000095;stroke-linecap:butt;stroke-linejoin:round;stroke-miterlimit:4;stroke-dasharray:none;stroke-opacity:1" />
        </g>
        <path
           style="fill:none;fill-rule:evenodd;stroke:#e6e6e6;stroke-width:0.42536563;stroke-linecap:round;stroke-linejoin:round;stroke-miterlimit:4;stroke-dasharray:none;stroke-opacity:1"
           d="m 63.765031,996.22211 c 0,0 -2.894294,-11.61904 -4.253655,-11.69757 -1.359341,-0.0785 -4.320013,11.69757 -4.320013,11.69757"
           id="path4183"
           inkscape:connector-curvature="0"
           sodipodi:nodetypes="czc" />
        <path
           sodipodi:nodetypes="csczc"
           inkscape:connector-curvature="0"
           id="path4185"
           d="m 34.749824,1003.9492 c 0,0.7313 -2.120383,2.6003 -4.73602,2.6003 -2.615615,0 -4.73602,-1.869 -4.73602,-2.6003 0,0 1.366849,0.181 4.73602,0.181 3.369172,0 4.73602,-0.181 4.73602,-0.181 z"
           style="fill:#cccccc;fill-opacity:1;stroke:none;stroke-width:3;stroke-linecap:round;stroke-linejoin:round;stroke-miterlimit:4;stroke-dasharray:none" />
        <path
           style="fill:#cccccc;fill-opacity:1;stroke:none;stroke-width:3;stroke-linecap:round;stroke-linejoin:round;stroke-miterlimit:4;stroke-dasharray:none"
           d="m 64.214216,996.04415 c 0,0.73126 -2.120382,2.60026 -4.736019,2.60026 -2.615616,0 -4.73602,-1.869 -4.73602,-2.60026 0,0 1.366848,0.18092 4.73602,0.18092 3.369172,0 4.736019,-0.18092 4.736019,-0.18092 z"
           id="path4187"
           inkscape:connector-curvature="0"
           sodipodi:nodetypes="csczc" />
        <path
           sodipodi:nodetypes="cccccssccccccsscscssccscccsscccccccccc"
           inkscape:transform-center-y="-1.9550451"
           inkscape:transform-center-x="-0.25227122"
           inkscape:connector-curvature="0"
           id="path4189"
           d="m 42.200327,978.3756 -1.537651,4.81571 2.251126,-0.16281 0.818817,4.24838 c -0.126011,0.0509 -0.249074,0.0989 -0.387156,0.16006 -1.370793,0.62499 -2.592348,1.61252 -3.738912,2.52765 -1.462568,1.16734 -2.595897,3.01218 -3.705398,3.17749 -2.175264,0.32414 -4.648103,-1.05919 -5.096876,-1.32384 -0.220228,-0.16163 -0.501874,-0.21466 -0.7659,-0.1444 -0.48111,0.12891 -0.766621,0.62345 -0.637681,1.10449 0.128875,0.48113 0.623403,0.76666 1.1045,0.6377 0.223891,-0.0602 0.415959,-0.20443 0.536344,-0.4026 1.096297,0.54759 2.990433,1.27069 4.950203,0.97867 0.20053,-0.0301 0.398109,-0.0745 0.592914,-0.13205 1.363696,-0.40298 2.598341,-1.43822 3.877299,-2.45895 1.056031,-0.84286 2.136355,-1.68628 3.229052,-2.24438 0,0 0.808106,0.20166 1.414139,0.0615 0.606001,-0.14032 1.193842,-0.76069 1.193842,-0.76069 1.225591,-0.0631 2.583214,0.12736 3.919544,0.32936 1.849107,0.27943 3.657557,0.60419 5.166852,0.009 1.871655,-0.73821 3.148236,-2.32486 3.805642,-3.32822 0.204509,0.11349 0.445132,0.14309 0.671058,0.0825 0.48096,-0.12898 0.766185,-0.62344 0.63729,-1.1044 -0.128889,-0.48085 -0.62311,-0.76646 -1.104109,-0.63779 -0.177073,0.0477 -0.33543,0.14816 -0.453916,0.28808 -0.04043,0.0383 -0.0734,0.0819 -0.09748,0.12893 0,0 -1.547498,2.89906 -3.805043,3.78948 -1.043507,0.41159 -2.947421,-0.61942 -4.79771,-0.89908 -1.450906,-0.2193 -3.003,-0.46363 -4.503008,-0.31923 -0.140368,0.015 -0.277402,0.0341 -0.415209,0.0522 l -1.41401,-4.08628 2.030941,-0.98456 z m 2.536077,9.46485 c 0.23816,-0.0637 0.482781,0.0777 0.546526,0.31589 0.06363,0.23796 -0.07755,0.48252 -0.31546,0.54637 -0.238084,0.0639 -0.482922,-0.0773 -0.546815,-0.31532 -0.06393,-0.23826 0.07749,-0.48315 0.315749,-0.54694 z"
           style="color:#000000;font-style:normal;font-variant:normal;font-weight:normal;font-stretch:normal;font-size:medium;line-height:normal;font-family:sans-serif;text-indent:0;text-align:start;text-decoration:none;text-decoration-line:none;text-decoration-style:solid;text-decoration-color:#000000;letter-spacing:normal;word-spacing:normal;text-transform:none;direction:ltr;block-progression:tb;writing-mode:lr-tb;baseline-shift:baseline;text-anchor:start;white-space:normal;clip-rule:nonzero;display:inline;overflow:visible;visibility:visible;opacity:1;isolation:auto;mix-blend-mode:normal;color-interpolation:sRGB;color-interpolation-filters:linearRGB;solid-color:#000000;solid-opacity:1;fill:#cccccc;fill-opacity:1;fill-rule:evenodd;stroke:none;stroke-width:3.00000024;stroke-linecap:round;stroke-linejoin:round;stroke-miterlimit:4;stroke-dasharray:none;stroke-dashoffset:0;stroke-opacity:1;color-rendering:auto;image-rendering:auto;shape-rendering:auto;text-rendering:auto;enable-background:accumulate" />
      </g>
      <g
         transform="matrix(0.51867703,0,0,0.51867703,51.163737,503.26359)"
         id="g4213">
        <path
           sodipodi:nodetypes="ccccc"
           inkscape:connector-curvature="0"
           id="path4215"
           d="m 61.213023,983.31 7.380874,0 -2.460291,46.6107 -2.460292,0 z"
           style="fill:#f2f2f2;fill-opacity:1;stroke:none;stroke-width:2;stroke-linecap:butt;stroke-linejoin:round;stroke-miterlimit:4;stroke-dasharray:none;stroke-opacity:1" />
        <path
           sodipodi:nodetypes="czc"
           inkscape:connector-curvature="0"
           id="path4217"
           d="m 44.607531,1007.4722 c 0,0 -5.580146,-22.4013 -8.200972,-22.5527 -2.620784,-0.1513 -8.328907,22.5527 -8.328907,22.5527"
           style="fill:none;fill-rule:evenodd;stroke:#e6e6e6;stroke-width:0.82009727;stroke-linecap:round;stroke-linejoin:round;stroke-miterlimit:4;stroke-dasharray:none;stroke-opacity:1" />
        <g
           style="fill:#f2f2f2"
           id="g4219"
           transform="matrix(0.81671834,0,0,0.81671834,397.66318,683.65436)">
          <path
             d="m -442.81429,350.51424 a 40.929768,40.929768 0 0 1 35.44622,-20.46488 l 0,40.92977 z"
             sodipodi:end="4.712389"
             sodipodi:start="3.6651914"
             sodipodi:ry="40.929768"
             sodipodi:rx="40.929768"
             sodipodi:cy="370.97913"
             sodipodi:cx="-407.36807"
             sodipodi:type="arc"
             id="path4221"
             style="fill:#f2f2f2;fill-opacity:1;stroke:none;stroke-width:10.00000095;stroke-linecap:butt;stroke-linejoin:round;stroke-miterlimit:4;stroke-dasharray:none;stroke-opacity:1" />
          <path
             style="fill:#f2f2f2;fill-opacity:1;stroke:none;stroke-width:10.00000095;stroke-linecap:butt;stroke-linejoin:round;stroke-miterlimit:4;stroke-dasharray:none;stroke-opacity:1"
             id="path4223"
             sodipodi:type="arc"
             sodipodi:cx="-407.36807"
             sodipodi:cy="370.97913"
             sodipodi:rx="40.929768"
             sodipodi:ry="40.929768"
             sodipodi:start="4.712389"
             sodipodi:end="5.4977871"
             d="m -407.36807,330.04936 a 40.929768,40.929768 0 0 1 28.94171,11.98805 l -28.94171,28.94172 z" />
          <path
             d="m -378.42636,342.03741 a 40.929768,40.929768 0 0 1 6.50451,8.47683 l -35.44622,20.46489 z"
             sodipodi:end="5.7595865"
             sodipodi:start="5.4977871"
             sodipodi:ry="40.929768"
             sodipodi:rx="40.929768"
             sodipodi:cy="370.97913"
             sodipodi:cx="-407.36807"
             sodipodi:type="arc"
             id="path4225"
             style="fill:#f2f2f2;fill-opacity:1;stroke:none;stroke-width:10.00000095;stroke-linecap:butt;stroke-linejoin:round;stroke-miterlimit:4;stroke-dasharray:none;stroke-opacity:1" />
        </g>
        <path
           style="fill:none;fill-rule:evenodd;stroke:#e6e6e6;stroke-width:0.82009727;stroke-linecap:round;stroke-linejoin:round;stroke-miterlimit:4;stroke-dasharray:none;stroke-opacity:1"
           d="m 101.41435,1007.3556 c 0,0 -5.580146,-22.4013 -8.200971,-22.5527 -2.620785,-0.1513 -8.328907,22.5527 -8.328907,22.5527"
           id="path4227"
           inkscape:connector-curvature="0"
           sodipodi:nodetypes="czc" />
        <path
           sodipodi:nodetypes="csczc"
           inkscape:connector-curvature="0"
           id="path4229"
           d="m 45.473553,1007.1291 c 0,1.4099 -4.088061,5.0132 -9.130962,5.0132 -5.042859,0 -9.130962,-3.6033 -9.130962,-5.0132 0,0 2.63526,0.3489 9.130962,0.3489 6.495703,0 9.130962,-0.3489 9.130962,-0.3489 z"
           style="fill:#cccccc;fill-opacity:1;stroke:none;stroke-width:3;stroke-linecap:round;stroke-linejoin:round;stroke-miterlimit:4;stroke-dasharray:none" />
        <path
           style="fill:#cccccc;fill-opacity:1;stroke:none;stroke-width:3;stroke-linecap:round;stroke-linejoin:round;stroke-miterlimit:4;stroke-dasharray:none"
           d="m 102.28037,1007.0125 c 0,1.4099 -4.088058,5.0132 -9.130959,5.0132 -5.04286,0 -9.130962,-3.6033 -9.130962,-5.0132 0,0 2.635259,0.3488 9.130962,0.3488 6.495703,0 9.130959,-0.3488 9.130959,-0.3488 z"
           id="path4231"
           inkscape:connector-curvature="0"
           sodipodi:nodetypes="csczc" />
        <path
           sodipodi:nodetypes="cccccssccccccsscscssccscccsscccccccccc"
           inkscape:transform-center-y="-11.128703"
           inkscape:transform-center-x="-0.28535136"
           inkscape:connector-curvature="0"
           id="path4233"
           d="m 64.890666,965.53232 -5.266582,8.20097 4.273486,0.8201 -0.595063,8.32031 c -0.260094,0.032 -0.513217,0.06 -0.800866,0.1049 -2.864681,0.4799 -5.632345,1.7094 -8.224221,2.8415 -3.306222,1.4441 -6.337383,4.3142 -8.486079,4.0684 -4.212716,-0.4818 -8.127573,-4.2919 -8.831257,-5.0087 -0.329474,-0.4109 -0.827519,-0.6502 -1.354268,-0.6511 -0.960293,0 -1.73877,0.7785 -1.738688,1.7387 -8.2e-5,0.9603 0.778395,1.7388 1.738688,1.7387 0.446994,-4e-4 0.876643,-0.1731 1.19972,-0.4821 1.768376,1.5668 4.934976,3.8586 8.730345,4.2927 0.38848,0.044 0.778559,0.06 1.170074,0.05 2.740682,-0.07 5.556527,-1.3818 8.447657,-2.6445 2.38722,-1.0427 4.819957,-2.0743 7.133369,-2.5684 0,0 1.404293,0.7788 2.602865,0.8201 1.198572,0.041 2.602866,-0.8209 2.602866,-0.8209 2.313904,0.494 4.747132,1.5262 7.134968,2.5692 3.304131,1.4431 6.509932,2.9503 9.617731,2.5948 3.853924,-0.4408 7.023025,-2.7586 8.747976,-4.2991 0.324226,0.3134 0.757565,0.4886 1.208537,0.4885 0.960046,-2e-4 1.73795,-0.7787 1.737909,-1.7387 -8.2e-5,-0.9598 -0.777945,-1.7383 -1.737909,-1.7387 -0.353544,4e-4 -0.6986,0.1085 -0.989079,0.31 -0.09439,0.051 -0.177551,0.1159 -0.245865,0.1914 0,0 -4.328514,4.6267 -8.977029,5.1584 -2.148696,0.2458 -5.179857,-2.6243 -8.486079,-4.0684 -2.592573,-1.1324 -5.361098,-2.3619 -8.2266,-2.8415 -0.26891,-0.042 -0.533596,-0.075 -0.799308,-0.1098 l -0.594242,-8.31541 4.273485,-0.8201 z m -4.1e-5,18.89178 c 0.475288,3e-4 0.860282,0.3857 0.860159,0.861 -2.46e-4,0.4749 -0.385199,0.8599 -0.860118,0.8601 -0.475246,10e-5 -0.860774,-0.3849 -0.860979,-0.8601 -1.64e-4,-0.4756 0.385405,-0.8611 0.860938,-0.861 z"
           style="color:#000000;font-style:normal;font-variant:normal;font-weight:normal;font-stretch:normal;font-size:medium;line-height:normal;font-family:sans-serif;text-indent:0;text-align:start;text-decoration:none;text-decoration-line:none;text-decoration-style:solid;text-decoration-color:#000000;letter-spacing:normal;word-spacing:normal;text-transform:none;direction:ltr;block-progression:tb;writing-mode:lr-tb;baseline-shift:baseline;text-anchor:start;white-space:normal;clip-rule:nonzero;display:inline;overflow:visible;visibility:visible;opacity:1;isolation:auto;mix-blend-mode:normal;color-interpolation:sRGB;color-interpolation-filters:linearRGB;solid-color:#000000;solid-opacity:1;fill:#cccccc;fill-opacity:1;fill-rule:evenodd;stroke:none;stroke-width:3.00000024;stroke-linecap:round;stroke-linejoin:round;stroke-miterlimit:4;stroke-dasharray:none;stroke-dashoffset:0;stroke-opacity:1;color-rendering:auto;image-rendering:auto;shape-rendering:auto;text-rendering:auto;enable-background:accumulate" />
      </g>
      <g
         transform="matrix(-1,0,0,1,149.492,-20)"
         id="g4281">
        <path
           style="fill:#f2f2f2;fill-opacity:1;stroke:none;stroke-width:2;stroke-linecap:butt;stroke-linejoin:round;stroke-miterlimit:4;stroke-dasharray:none;stroke-opacity:1"
           d="m 42.913526,987.2839 3.82829,0 -1.276097,24.1759 -1.276097,0 z"
           id="path4283"
           inkscape:connector-curvature="0"
           sodipodi:nodetypes="ccccc" />
        <path
           style="fill:none;fill-rule:evenodd;stroke:#e6e6e6;stroke-width:0.42536563;stroke-linecap:round;stroke-linejoin:round;stroke-miterlimit:4;stroke-dasharray:none;stroke-opacity:1"
           d="m 34.300639,1004.1272 c 0,0 -2.894294,-11.61913 -4.253656,-11.69763 -1.359341,-0.078 -4.320013,11.69763 -4.320013,11.69763"
           id="path4285"
           inkscape:connector-curvature="0"
           sodipodi:nodetypes="czc" />
        <g
           transform="matrix(0.42361304,0,0,0.42361304,217.42249,831.8594)"
           id="g4287"
           style="fill:#f2f2f2">
          <path
             style="fill:#f2f2f2;fill-opacity:1;stroke:none;stroke-width:10.00000095;stroke-linecap:butt;stroke-linejoin:round;stroke-miterlimit:4;stroke-dasharray:none;stroke-opacity:1"
             id="path4289"
             sodipodi:type="arc"
             sodipodi:cx="-407.36807"
             sodipodi:cy="370.97913"
             sodipodi:rx="40.929768"
             sodipodi:ry="40.929768"
             sodipodi:start="3.6651914"
             sodipodi:end="4.712389"
             d="m -442.81429,350.51424 a 40.929768,40.929768 0 0 1 35.44622,-20.46488 l 0,40.92977 z" />
          <path
             d="m -407.36807,330.04936 a 40.929768,40.929768 0 0 1 28.94171,11.98805 l -28.94171,28.94172 z"
             sodipodi:end="5.4977871"
             sodipodi:start="4.712389"
             sodipodi:ry="40.929768"
             sodipodi:rx="40.929768"
             sodipodi:cy="370.97913"
             sodipodi:cx="-407.36807"
             sodipodi:type="arc"
             id="path4291"
             style="fill:#f2f2f2;fill-opacity:1;stroke:none;stroke-width:10.00000095;stroke-linecap:butt;stroke-linejoin:round;stroke-miterlimit:4;stroke-dasharray:none;stroke-opacity:1" />
          <path
             style="fill:#f2f2f2;fill-opacity:1;stroke:none;stroke-width:10.00000095;stroke-linecap:butt;stroke-linejoin:round;stroke-miterlimit:4;stroke-dasharray:none;stroke-opacity:1"
             id="path4293"
             sodipodi:type="arc"
             sodipodi:cx="-407.36807"
             sodipodi:cy="370.97913"
             sodipodi:rx="40.929768"
             sodipodi:ry="40.929768"
             sodipodi:start="5.4977871"
             sodipodi:end="5.7595865"
             d="m -378.42636,342.03741 a 40.929768,40.929768 0 0 1 6.50451,8.47683 l -35.44622,20.46489 z" />
        </g>
        <path
           sodipodi:nodetypes="czc"
           inkscape:connector-curvature="0"
           id="path4295"
           d="m 63.765031,996.22211 c 0,0 -2.894294,-11.61904 -4.253655,-11.69757 -1.359341,-0.0785 -4.320013,11.69757 -4.320013,11.69757"
           style="fill:none;fill-rule:evenodd;stroke:#e6e6e6;stroke-width:0.42536563;stroke-linecap:round;stroke-linejoin:round;stroke-miterlimit:4;stroke-dasharray:none;stroke-opacity:1" />
        <path
           style="fill:#cccccc;fill-opacity:1;stroke:none;stroke-width:3;stroke-linecap:round;stroke-linejoin:round;stroke-miterlimit:4;stroke-dasharray:none"
           d="m 34.749824,1003.9492 c 0,0.7313 -2.120383,2.6003 -4.73602,2.6003 -2.615615,0 -4.73602,-1.869 -4.73602,-2.6003 0,0 1.366849,0.181 4.73602,0.181 3.369172,0 4.73602,-0.181 4.73602,-0.181 z"
           id="path4297"
           inkscape:connector-curvature="0"
           sodipodi:nodetypes="csczc" />
        <path
           sodipodi:nodetypes="csczc"
           inkscape:connector-curvature="0"
           id="path4299"
           d="m 64.214216,996.04415 c 0,0.73126 -2.120382,2.60026 -4.736019,2.60026 -2.615616,0 -4.73602,-1.869 -4.73602,-2.60026 0,0 1.366848,0.18092 4.73602,0.18092 3.369172,0 4.736019,-0.18092 4.736019,-0.18092 z"
           style="fill:#cccccc;fill-opacity:1;stroke:none;stroke-width:3;stroke-linecap:round;stroke-linejoin:round;stroke-miterlimit:4;stroke-dasharray:none" />
        <path
           style="color:#000000;font-style:normal;font-variant:normal;font-weight:normal;font-stretch:normal;font-size:medium;line-height:normal;font-family:sans-serif;text-indent:0;text-align:start;text-decoration:none;text-decoration-line:none;text-decoration-style:solid;text-decoration-color:#000000;letter-spacing:normal;word-spacing:normal;text-transform:none;direction:ltr;block-progression:tb;writing-mode:lr-tb;baseline-shift:baseline;text-anchor:start;white-space:normal;clip-rule:nonzero;display:inline;overflow:visible;visibility:visible;opacity:1;isolation:auto;mix-blend-mode:normal;color-interpolation:sRGB;color-interpolation-filters:linearRGB;solid-color:#000000;solid-opacity:1;fill:#cccccc;fill-opacity:1;fill-rule:evenodd;stroke:none;stroke-width:3.00000024;stroke-linecap:round;stroke-linejoin:round;stroke-miterlimit:4;stroke-dasharray:none;stroke-dashoffset:0;stroke-opacity:1;color-rendering:auto;image-rendering:auto;shape-rendering:auto;text-rendering:auto;enable-background:accumulate"
           d="m 42.200327,978.3756 -1.537651,4.81571 2.251126,-0.16281 0.818817,4.24838 c -0.126011,0.0509 -0.249074,0.0989 -0.387156,0.16006 -1.370793,0.62499 -2.592348,1.61252 -3.738912,2.52765 -1.462568,1.16734 -2.595897,3.01218 -3.705398,3.17749 -2.175264,0.32414 -4.648103,-1.05919 -5.096876,-1.32384 -0.220228,-0.16163 -0.501874,-0.21466 -0.7659,-0.1444 -0.48111,0.12891 -0.766621,0.62345 -0.637681,1.10449 0.128875,0.48113 0.623403,0.76666 1.1045,0.6377 0.223891,-0.0602 0.415959,-0.20443 0.536344,-0.4026 1.096297,0.54759 2.990433,1.27069 4.950203,0.97867 0.20053,-0.0301 0.398109,-0.0745 0.592914,-0.13205 1.363696,-0.40298 2.598341,-1.43822 3.877299,-2.45895 1.056031,-0.84286 2.136355,-1.68628 3.229052,-2.24438 0,0 0.808106,0.20166 1.414139,0.0615 0.606001,-0.14032 1.193842,-0.76069 1.193842,-0.76069 1.225591,-0.0631 2.583214,0.12736 3.919544,0.32936 1.849107,0.27943 3.657557,0.60419 5.166852,0.009 1.871655,-0.73821 3.148236,-2.32486 3.805642,-3.32822 0.204509,0.11349 0.445132,0.14309 0.671058,0.0825 0.48096,-0.12898 0.766185,-0.62344 0.63729,-1.1044 -0.128889,-0.48085 -0.62311,-0.76646 -1.104109,-0.63779 -0.177073,0.0477 -0.33543,0.14816 -0.453916,0.28808 -0.04043,0.0383 -0.0734,0.0819 -0.09748,0.12893 0,0 -1.547498,2.89906 -3.805043,3.78948 -1.043507,0.41159 -2.947421,-0.61942 -4.79771,-0.89908 -1.450906,-0.2193 -3.003,-0.46363 -4.503008,-0.31923 -0.140368,0.015 -0.277402,0.0341 -0.415209,0.0522 l -1.41401,-4.08628 2.030941,-0.98456 z m 2.536077,9.46485 c 0.23816,-0.0637 0.482781,0.0777 0.546526,0.31589 0.06363,0.23796 -0.07755,0.48252 -0.31546,0.54637 -0.238084,0.0639 -0.482922,-0.0773 -0.546815,-0.31532 -0.06393,-0.23826 0.07749,-0.48315 0.315749,-0.54694 z"
           id="path4301"
           inkscape:connector-curvature="0"
           inkscape:transform-center-x="-0.25227122"
           inkscape:transform-center-y="-1.9550451"
           sodipodi:nodetypes="cccccssccccccsscscssccscccsscccccccccc" />
      </g>
    </g>
  </g>
</svg>
