<?xml version="1.0" encoding="UTF-8" standalone="no"?>
<!-- Created with Inkscape (http://www.inkscape.org/) -->

<svg
   xmlns:dc="http://purl.org/dc/elements/1.1/"
   xmlns:cc="http://creativecommons.org/ns#"
   xmlns:rdf="http://www.w3.org/1999/02/22-rdf-syntax-ns#"
   xmlns:svg="http://www.w3.org/2000/svg"
   xmlns="http://www.w3.org/2000/svg"
   xmlns:sodipodi="http://sodipodi.sourceforge.net/DTD/sodipodi-0.dtd"
   xmlns:inkscape="http://www.inkscape.org/namespaces/inkscape"
   width="192"
   height="192"
   viewBox="0 0 192.00001 192"
   id="svg2"
   version="1.1"
   inkscape:version="0.91 r13725"
   sodipodi:docname="ic_launcher.svg"
   inkscape:export-filename="/Users/markus/path5202.png"
   inkscape:export-xdpi="3840"
   inkscape:export-ydpi="3840">
  <sodipodi:namedview
     id="base"
     pagecolor="#ffffff"
     bordercolor="#666666"
     borderopacity="1.0"
     inkscape:pageopacity="0.0"
     inkscape:pageshadow="2"
     inkscape:zoom="1.639886"
     inkscape:cx="-3.9999959"
     inkscape:cy="96.000013"
     inkscape:document-units="px"
     inkscape:current-layer="layer1"
     showgrid="false"
     units="px"
     inkscape:showpageshadow="false"
     showguides="true"
     inkscape:guide-bbox="true"
     inkscape:window-width="1521"
     inkscape:window-height="849"
     inkscape:window-x="96"
     inkscape:window-y="55"
     inkscape:window-maximized="0">
    <inkscape:grid
       enabled="false"
       snapvisiblegridlinesonly="true"
       id="grid4582"
       type="xygrid" />
  </sodipodi:namedview>
  <defs
     id="defs4" />
  <metadata
     id="metadata7">
    <rdf:RDF>
      <cc:Work
         rdf:about="">
        <dc:format>image/svg+xml</dc:format>
        <dc:type
           rdf:resource="http://purl.org/dc/dcmitype/StillImage" />
        <dc:title />
      </cc:Work>
    </rdf:RDF>
  </metadata>
  <g
     transform="translate(0,-860.36232)"
     id="layer1"
     inkscape:groupmode="layer"
     inkscape:label="Ebene 1">
    <circle
       style="fill:#f9f9f9;fill-opacity:1;stroke:none;stroke-width:4;stroke-linecap:butt;stroke-linejoin:miter;stroke-miterlimit:4;stroke-dasharray:none;stroke-opacity:1"
       id="circle4766"
       cx="96.000008"
       cy="955.3623"
       r="88" />
    <circle
       r="88"
       cy="957.3623"
       cx="-104"
       id="circle5439"
       style="fill:#ececec;fill-opacity:1;stroke:none;stroke-width:4;stroke-linecap:butt;stroke-linejoin:miter;stroke-miterlimit:4;stroke-dasharray:none;stroke-opacity:1" />
    <circle
       style="fill:#f9f9f9;fill-opacity:1;stroke:none;stroke-width:4;stroke-linecap:butt;stroke-linejoin:miter;stroke-miterlimit:4;stroke-dasharray:none;stroke-opacity:1"
       id="path5437"
       cx="-104"
       cy="955.3623"
       r="88" />
    <circle
       style="fill:#333333;fill-opacity:1;stroke:none;stroke-width:1.5;stroke-linecap:butt;stroke-linejoin:round;stroke-miterlimit:4;stroke-dasharray:none;stroke-opacity:1"
       id="circle6057"
       cx="-103.96594"
       cy="940.33423"
       r="8.7564802" />
    <g
       transform="matrix(1.5254501,0,0,1.5254501,517.52187,376.72149)"
       id="g6041">
      <path
         style="fill:#ff6600;fill-opacity:1;stroke:none;stroke-width:10.00000095;stroke-linecap:butt;stroke-linejoin:round;stroke-miterlimit:4;stroke-dasharray:none;stroke-opacity:1"
         id="path6043"
         sodipodi:type="arc"
         sodipodi:cx="-407.36807"
         sodipodi:cy="370.97913"
         sodipodi:rx="40.929768"
         sodipodi:ry="40.929768"
         sodipodi:start="3.6651914"
         sodipodi:end="4.712389"
         d="m -442.81429,350.51424 a 40.929768,40.929768 0 0 1 35.44622,-20.46488 l 0,40.92977 z" />
      <path
         d="m -407.36807,330.04936 a 40.929768,40.929768 0 0 1 28.94171,11.98805 l -28.94171,28.94172 z"
         sodipodi:end="5.4977871"
         sodipodi:start="4.712389"
         sodipodi:ry="40.929768"
         sodipodi:rx="40.929768"
         sodipodi:cy="370.97913"
         sodipodi:cx="-407.36807"
         sodipodi:type="arc"
         id="path6045"
         style="fill:#ffcc00;fill-opacity:1;stroke:none;stroke-width:10.00000095;stroke-linecap:butt;stroke-linejoin:round;stroke-miterlimit:4;stroke-dasharray:none;stroke-opacity:1" />
      <path
         style="fill:#55d400;fill-opacity:1;stroke:none;stroke-width:10.00000095;stroke-linecap:butt;stroke-linejoin:round;stroke-miterlimit:4;stroke-dasharray:none;stroke-opacity:1"
         id="path6047"
         sodipodi:type="arc"
         sodipodi:cx="-407.36807"
         sodipodi:cy="370.97913"
         sodipodi:rx="40.929768"
         sodipodi:ry="40.929768"
         sodipodi:start="5.4977871"
         sodipodi:end="5.7595865"
         d="m -378.42636,342.03741 a 40.929768,40.929768 0 0 1 6.50451,8.47683 l -35.44622,20.46489 z" />
    </g>
    <path
       style="color:#000000;font-style:normal;font-variant:normal;font-weight:normal;font-stretch:normal;font-size:medium;line-height:normal;font-family:sans-serif;text-indent:0;text-align:start;text-decoration:none;text-decoration-line:none;text-decoration-style:solid;text-decoration-color:#000000;letter-spacing:normal;word-spacing:normal;text-transform:none;direction:ltr;block-progression:tb;writing-mode:lr-tb;baseline-shift:baseline;text-anchor:start;white-space:normal;clip-rule:nonzero;display:inline;overflow:visible;visibility:visible;opacity:1;isolation:auto;mix-blend-mode:normal;color-interpolation:sRGB;color-interpolation-filters:linearRGB;solid-color:#000000;solid-opacity:1;fill:#333333;fill-opacity:1;fill-rule:evenodd;stroke:none;stroke-width:1.00000012;stroke-linecap:round;stroke-linejoin:miter;stroke-miterlimit:4;stroke-dasharray:none;stroke-dashoffset:0;stroke-opacity:1;color-rendering:auto;image-rendering:auto;shape-rendering:auto;text-rendering:auto;enable-background:accumulate"
       d="m -104.02422,890.12733 -1.368,2.31488 -15.86523,27.01941 13.69246,1.64686 -0.90991,12.7452 c -0.0923,-0.008 -0.1568,0.042 -0.25374,0.0319 l -0.006,-4.7e-4 -0.0125,7e-5 c -5.62149,0.94192 -10.90062,3.30503 -15.73514,5.41646 -3.27775,1.43146 -6.28815,3.4964 -8.91992,5.0819 -2.63177,1.58551 -4.88466,2.53632 -6.11579,2.39568 -7.04156,-0.8057 -14.32054,-7.64379 -15.54331,-8.8891 l 0.10494,0.11624 c -0.91516,-1.14171 -2.30153,-1.80543 -3.76355,-1.80741 -2.65014,-2.6e-4 -4.83473,2.17775 -4.83452,4.82784 -2.2e-4,2.65023 2.18423,4.83483 4.83451,4.83472 0.7164,-0.002 1.28807,-0.47309 1.92476,-0.77494 3.51674,3.01209 9.22478,7.05462 16.44083,7.87986 0.80337,0.0932 1.60816,0.11409 2.40797,0.092 5.5967,-0.14289 10.99619,-2.72002 16.37269,-5.06984 4.3595,-1.90408 8.72303,-3.70785 12.75777,-4.60522 0.64184,0.35661 2.28869,1.38922 4.73543,1.47318 2.55061,0.0853 4.144001,-1.05793 4.822141,-1.47912 4.04162,0.89589 8.41967,2.7037 12.78869,4.61169 6.14502,2.68387 12.345131,5.70569 18.774451,4.97026 7.31457,-0.83648 13.027061,-4.91525 16.477971,-7.89227 0.64221,0.30435 1.21399,0.78637 1.93752,0.78641 l 0.006,4e-4 c 2.64955,-8.9e-4 4.82837,-2.18557 4.82828,-4.8344 -2.7e-4,-2.6491 -2.17884,-4.83362 -4.82823,-4.83441 l -0.006,-4e-4 c -0.96443,0.002 -1.90164,0.30611 -2.69896,0.84785 -0.28525,0.16833 -0.55693,0.3658 -0.78607,0.61914 -0.0427,0.0443 -8.025341,8.2385 -15.766111,9.12421 -1.23113,0.13956 -3.48408,-0.8225 -6.11584,-2.4082 -2.63176,-1.58537 -5.642181,-3.64447 -8.919921,-5.0761 -4.83596,-2.11198 -10.11202,-4.4745 -15.73511,-5.41584 l -0.0125,9e-5 -0.0125,8e-5 c -0.0877,-0.009 -0.16343,-0.0317 -0.24772,-0.032 l -0.903751,-12.74548 13.692421,-1.6405 -17.239301,-29.3344 z m 1e-5,49.59476 c 0.0291,-0.007 0.023,-0.006 0.025,0.0392 1.9e-4,0.0327 0.006,0.0312 -0.0228,0.0389 -0.0297,0.008 -0.0233,0.006 -0.0248,-0.0326 -2e-4,-0.0327 -0.007,-0.0376 0.0244,-0.0393 z"
       id="path6055"
       inkscape:connector-curvature="0"
       inkscape:transform-center-y="-9.5552465"
       inkscape:transform-center-x="-2.3086231" />
    <path
       style="color:#000000;font-style:normal;font-variant:normal;font-weight:normal;font-stretch:normal;font-size:medium;line-height:normal;font-family:sans-serif;text-indent:0;text-align:start;text-decoration:none;text-decoration-line:none;text-decoration-style:solid;text-decoration-color:#000000;letter-spacing:normal;word-spacing:normal;text-transform:none;direction:ltr;block-progression:tb;writing-mode:lr-tb;baseline-shift:baseline;text-anchor:start;white-space:normal;clip-rule:nonzero;display:inline;overflow:visible;visibility:visible;opacity:1;isolation:auto;mix-blend-mode:normal;color-interpolation:sRGB;color-interpolation-filters:linearRGB;solid-color:#000000;solid-opacity:1;fill:#cccccc;fill-opacity:1;fill-rule:evenodd;stroke:none;stroke-width:0.30000001;stroke-linecap:round;stroke-linejoin:round;stroke-miterlimit:4;stroke-dasharray:none;stroke-dashoffset:0;stroke-opacity:1;color-rendering:auto;image-rendering:auto;shape-rendering:auto;text-rendering:auto;enable-background:accumulate"
       d="m -158.36914,941.1257 c -0.59464,-0.0348 -1.10671,0.24403 -1.54133,0.61294 -0.43461,0.36954 -0.8331,0.8573 -1.23801,1.46074 -0.80982,1.20688 -1.64015,2.87298 -2.4946,4.86553 -1.70889,3.98479 -3.50111,9.2747 -5.14395,14.57126 -3.28567,10.59312 -5.95485,21.20717 -5.95485,21.20717 a 0.7924086,0.7924086 0 1 0 1.53514,0.39014 c 0,0 2.66743,-10.58774 5.93628,-21.12699 1.63442,-5.2693 3.42136,-10.52974 5.08824,-14.41659 0.83343,-1.94342 1.64205,-3.54709 2.35222,-4.60533 0.35509,-0.52928 0.68774,-0.91847 0.94709,-1.13905 0.25934,-0.22186 0.40368,-0.24404 0.42092,-0.24087 0.0292,0.002 0.21266,0.0571 0.48283,0.31059 0.27015,0.25038 0.60497,0.66841 0.95946,1.21955 0.70898,1.10198 1.51074,2.73418 2.33365,4.69186 1.64583,3.9157 3.40307,9.15743 5.00778,14.39218 3.2094,10.46889 5.81247,20.9099 5.81247,20.9099 a 0.7924086,0.7924086 0 1 0 1.53514,-0.38539 c 0,0 -2.60543,-10.4746 -5.83105,-20.99673 -1.61281,-5.26107 -3.37833,-10.53133 -5.06348,-14.54051 -0.84257,-2.00459 -1.66569,-3.68687 -2.46365,-4.92734 -0.39898,-0.61991 -0.78674,-1.13049 -1.20706,-1.52254 -0.42032,-0.39204 -0.89055,-0.69693 -1.47324,-0.73052 z"
       id="path6039"
       inkscape:connector-curvature="0" />
    <path
       style="fill:#333333;fill-opacity:1;stroke:none;stroke-width:3;stroke-linecap:round;stroke-linejoin:round;stroke-miterlimit:4;stroke-dasharray:none"
       d="m -141.49923,983.39678 c 0,4.56572 -7.6356,10.92273 -17.05463,10.92273 -9.41895,0 -17.05463,-6.35701 -17.05463,-10.92273 0,0 4.92209,1.12985 17.05463,1.12985 12.13254,0 17.05463,-1.12985 17.05463,-1.12985 z"
       id="path6051"
       inkscape:connector-curvature="0"
       sodipodi:nodetypes="csczc" />
    <path
       inkscape:connector-curvature="0"
       id="path4538"
       d="m -49.261467,941.1257 c -0.59464,-0.0348 -1.10671,0.24403 -1.54133,0.61294 -0.43461,0.36954 -0.8331,0.8573 -1.23801,1.46074 -0.80982,1.20688 -1.64015,2.87298 -2.4946,4.86553 -1.70889,3.98479 -3.50111,9.2747 -5.14395,14.57126 -3.285681,10.59312 -5.954861,21.20717 -5.954861,21.20717 a 0.7924086,0.7924086 0 1 0 1.53514,0.39014 c 0,0 2.66743,-10.58774 5.936291,-21.12699 1.63442,-5.2693 3.42136,-10.52974 5.08824,-14.41659 0.83343,-1.94342 1.64205,-3.54709 2.35222,-4.60533 0.35509,-0.52928 0.68774,-0.91847 0.94709,-1.13905 0.25934,-0.22186 0.40368,-0.24404 0.42092,-0.24087 0.0292,0.002 0.21266,0.0571 0.48283,0.31059 0.27015,0.25038 0.60497,0.66841 0.95946,1.21955 0.70898,1.10198 1.51074,2.73418 2.33365,4.69186 1.64583,3.9157 3.40307,9.15743 5.00778,14.39218 3.209401,10.46889 5.812471,20.9099 5.812471,20.9099 a 0.7924086,0.7924086 0 1 0 1.53514,-0.38539 c 0,0 -2.60543,-10.4746 -5.83105,-20.99673 -1.612811,-5.26107 -3.378331,-10.53133 -5.063481,-14.54051 -0.84257,-2.00459 -1.66569,-3.68687 -2.46365,-4.92734 -0.39898,-0.61991 -0.78674,-1.13049 -1.20706,-1.52254 -0.42032,-0.39204 -0.89055,-0.69693 -1.47324,-0.73052 z"
       style="color:#000000;font-style:normal;font-variant:normal;font-weight:normal;font-stretch:normal;font-size:medium;line-height:normal;font-family:sans-serif;text-indent:0;text-align:start;text-decoration:none;text-decoration-line:none;text-decoration-style:solid;text-decoration-color:#000000;letter-spacing:normal;word-spacing:normal;text-transform:none;direction:ltr;block-progression:tb;writing-mode:lr-tb;baseline-shift:baseline;text-anchor:start;white-space:normal;clip-rule:nonzero;display:inline;overflow:visible;visibility:visible;opacity:1;isolation:auto;mix-blend-mode:normal;color-interpolation:sRGB;color-interpolation-filters:linearRGB;solid-color:#000000;solid-opacity:1;fill:#cccccc;fill-opacity:1;fill-rule:evenodd;stroke:none;stroke-width:0.30000001;stroke-linecap:round;stroke-linejoin:round;stroke-miterlimit:4;stroke-dasharray:none;stroke-dashoffset:0;stroke-opacity:1;color-rendering:auto;image-rendering:auto;shape-rendering:auto;text-rendering:auto;enable-background:accumulate" />
    <path
       sodipodi:nodetypes="csczc"
       inkscape:connector-curvature="0"
       id="path4540"
       d="m -32.391556,983.39678 c 0,4.56572 -7.635601,10.92273 -17.054631,10.92273 -9.41895,0 -17.054641,-6.35701 -17.054641,-10.92273 0,0 4.92209,1.12985 17.054641,1.12985 12.132541,0 17.054631,-1.12985 17.054631,-1.12985 z"
       style="fill:#333333;fill-opacity:1;stroke:none;stroke-width:3;stroke-linecap:round;stroke-linejoin:round;stroke-miterlimit:4;stroke-dasharray:none" />
    <path
       style="fill:#ff6600;fill-opacity:1;stroke:none;stroke-width:10.00000095;stroke-linecap:butt;stroke-linejoin:round;stroke-miterlimit:4;stroke-dasharray:none;stroke-opacity:1"
       d="M 96.238281 50.921875 A 145.78065 145.78065 0 0 0 9.4296875 79.660156 A 87.999995 87.999995 0 0 0 8 95 A 87.999995 87.999995 0 0 0 96 183 A 87.999995 87.999995 0 0 0 96.238281 182.99219 L 96.238281 50.921875 z "
       transform="translate(0,860.36231)"
       id="path4751" />
    <path
       style="fill:#ffcc00;fill-opacity:1;stroke:none;stroke-width:10.00000095;stroke-linecap:butt;stroke-linejoin:round;stroke-miterlimit:4;stroke-dasharray:none;stroke-opacity:1"
       d="M 96.238281 50.921875 L 96.238281 182.99219 A 87.999995 87.999995 0 0 0 104.43164 182.51172 L 169.12891 70.453125 A 145.78065 145.78065 0 0 0 96.238281 50.921875 z "
       transform="translate(0,860.36231)"
       id="path4753" />
    <path
       style="fill:#55d400;fill-opacity:1;stroke:none;stroke-width:10.00000095;stroke-linecap:butt;stroke-linejoin:round;stroke-miterlimit:4;stroke-dasharray:none;stroke-opacity:1"
       d="M 169.12891 70.453125 L 104.43164 182.51172 A 87.999995 87.999995 0 0 0 184 95 A 87.999995 87.999995 0 0 0 182.55273 79.306641 A 145.78065 145.78065 0 0 0 169.12891 70.453125 z "
       transform="translate(0,860.36231)"
       id="path4755" />
    <path
       style="color:#000000;font-style:normal;font-variant:normal;font-weight:normal;font-stretch:normal;font-size:medium;line-height:normal;font-family:sans-serif;text-indent:0;text-align:start;text-decoration:none;text-decoration-line:none;text-decoration-style:solid;text-decoration-color:#000000;letter-spacing:normal;word-spacing:normal;text-transform:none;direction:ltr;block-progression:tb;writing-mode:lr-tb;baseline-shift:baseline;text-anchor:start;white-space:normal;clip-rule:nonzero;display:inline;overflow:visible;visibility:visible;opacity:1;isolation:auto;mix-blend-mode:normal;color-interpolation:sRGB;color-interpolation-filters:linearRGB;solid-color:#000000;solid-opacity:1;fill:#333333;fill-opacity:1;fill-rule:evenodd;stroke:none;stroke-width:1.00000012;stroke-linecap:round;stroke-linejoin:miter;stroke-miterlimit:4;stroke-dasharray:none;stroke-dashoffset:0;stroke-opacity:1;color-rendering:auto;image-rendering:auto;shape-rendering:auto;text-rendering:auto;enable-background:accumulate"
       d="M 95.941406 74.103516 L 95.943359 74.111328 L 92.75 79.517578 L 55.707031 142.60352 L 87.675781 146.44922 L 85.550781 176.20703 C 85.335275 176.18803 85.185319 176.30325 84.958984 176.28125 L 84.945312 176.28125 L 84.916016 176.28125 C 80.449078 177.02973 76.077044 178.17004 71.804688 179.5332 A 87.999995 87.999995 0 0 0 96 183 A 87.999995 87.999995 0 0 0 120.24219 179.55859 C 115.91918 178.17283 111.49309 177.0172 106.96875 176.25977 L 106.93945 176.25977 L 106.91016 176.25977 C 106.70533 176.23877 106.52884 176.18559 106.33203 176.18359 L 104.22266 146.42578 L 136.19336 142.5957 L 95.941406 74.103516 z "
       transform="translate(0,860.36231)"
       id="path4757" />
  </g>
</svg>
