<?xml version="1.0" encoding="utf-8"?>
<svg version="1.1" id="svg2" viewBox="0 0 90 90" height="90px" width="90px" xmlns="http://www.w3.org/2000/svg">
<ellipse style="fill:#f9f9f9;fill-opacity:1;stroke:none;stroke-width:4;stroke-linecap:butt;stroke-linejoin:miter;stroke-miterlimit:4;stroke-dasharray:none;stroke-opacity:1" id="circle4766" cx="-104" cy="955.362" r="88"/>
<g id="g4998" transform="matrix(1, 0, 0, 1, 0, -860.362305)"/>
<g id="g5021" transform="matrix(1, 0, 0, 1, 0, -1040.362305)"/>
<g transform="matrix(0.274841, 0, 0, 0.274841, -25.359171, 20.230356)">
<path id="path6261" d="M 255.973 65.346 L 254.469 67.892 L 237.022 97.606 L 252.079 99.417 L 251.079 113.433 C 250.977 113.424 250.906 113.479 250.8 113.468 L 250.793 113.467 L 250.779 113.467 C 244.597 114.503 238.791 117.102 233.475 119.424 C 229.87 120.998 226.56 123.269 223.665 125.013 C 220.771 126.756 218.294 127.802 216.94 127.647 C 209.196 126.761 201.191 119.241 199.847 117.872 L 199.962 117.999 C 198.956 116.744 197.431 116.014 195.823 116.012 C 192.909 116.012 190.507 118.407 190.507 121.321 C 190.507 124.236 192.909 126.638 195.823 126.638 C 196.611 126.636 197.24 126.118 197.94 125.786 C 201.807 129.098 208.085 133.544 216.02 134.451 C 216.904 134.554 217.789 134.577 218.668 134.552 C 224.823 134.395 230.761 131.561 236.673 128.977 C 241.468 126.883 246.266 124.899 250.703 123.913 C 251.409 124.305 253.22 125.44 255.911 125.533 C 258.716 125.626 260.468 124.369 261.214 123.906 C 265.658 124.891 270.473 126.879 275.278 128.978 C 282.035 131.929 288.854 135.252 295.924 134.443 C 303.968 133.524 310.25 129.038 314.045 125.764 C 314.751 126.099 315.38 126.629 316.176 126.629 L 316.183 126.63 C 319.096 126.629 321.492 124.226 321.492 121.313 C 321.492 118.4 319.096 115.997 316.183 115.997 L 316.176 115.996 C 315.115 115.998 314.084 116.333 313.208 116.929 C 312.894 117.114 312.595 117.331 312.343 117.609 C 312.296 117.658 303.518 126.669 295.005 127.643 C 293.651 127.797 291.174 126.739 288.279 124.995 C 285.385 123.252 282.075 120.987 278.47 119.413 C 273.152 117.09 267.35 114.492 261.166 113.457 L 261.152 113.457 L 261.139 113.457 C 261.042 113.447 260.959 113.422 260.866 113.422 L 259.872 99.406 L 274.93 97.602 L 255.972 65.342 Z M 255.973 119.886 C 256.005 119.878 255.998 119.879 256.001 119.929 C 256.001 119.965 256.008 119.964 255.975 119.972 C 255.943 119.981 255.95 119.979 255.948 119.936 C 255.948 119.9 255.94 119.895 255.975 119.893 Z" style="color: rgb(0, 0, 0); font: medium sans-serif; text-indent: 0px; text-align: start; text-decoration: none solid rgb(0, 0, 0); letter-spacing: normal; word-spacing: normal; text-transform: none; direction: ltr; writing-mode: lr-tb; baseline-shift: baseline; text-anchor: start; white-space: normal; clip-rule: nonzero; display: inline; overflow: visible; visibility: visible; opacity: 1; isolation: auto; mix-blend-mode: normal; color-interpolation: srgb; color-interpolation-filters: linearrgb; fill-opacity: 1; fill-rule: evenodd; stroke: none; stroke-width: 1; stroke-linecap: round; stroke-linejoin: miter; stroke-miterlimit: 4; stroke-dasharray: none; stroke-dashoffset: 0; stroke-opacity: 1; color-rendering: auto; image-rendering: auto; shape-rendering: auto; text-rendering: auto;"/>
<g style="opacity:1" id="g972" transform="matrix(1, 0, 0, 1, 160, -860.362305)">
<path id="path974" d="m 70.618298,911.96516 -2.94454,-2.94457 -11.673754,11.67378 -11.673754,-11.67378 -2.944544,2.94457 11.673755,11.67371 -11.673755,11.67386 2.944544,2.9445 11.673754,-11.67372 11.673754,11.67372 2.94454,-2.9445 -11.673752,-11.67386 z" style="color: rgb(0, 0, 0); font: medium sans-serif; font-feature-settings: normal; font-variation-settings: normal; text-indent: 0px; text-align: start; text-decoration: none solid rgb(0, 0, 0); letter-spacing: normal; word-spacing: normal; text-transform: none; writing-mode: lr-tb; direction: ltr; text-orientation: mixed; dominant-baseline: auto; baseline-shift: baseline; text-anchor: start; white-space: normal; shape-margin: 0px; inline-size: 0px; clip-rule: nonzero; display: inline; overflow: visible; visibility: visible; isolation: auto; mix-blend-mode: normal; color-interpolation: srgb; color-interpolation-filters: linearrgb; vector-effect: none; fill-opacity: 1; fill-rule: nonzero; stroke: none; stroke-width: 4; stroke-linecap: butt; stroke-linejoin: miter; stroke-miterlimit: 4; stroke-dasharray: none; stroke-dashoffset: 0; stroke-opacity: 1; color-rendering: auto; image-rendering: auto; shape-rendering: auto; text-rendering: auto; stop-color: rgb(0, 0, 0); stop-opacity: 1;"/>
<path id="path976" d="m 44.326172,906.19141 -5.773438,5.77343 11.673828,11.67383 -11.673828,11.67383 5.773438,5.77344 L 56,929.41211 67.673828,941.08594 73.447266,935.3125 61.773438,923.63867 73.447266,911.96484 67.673828,906.19141 56,917.86523 Z" style="color: rgb(0, 0, 0); font: medium sans-serif; font-feature-settings: normal; font-variation-settings: normal; text-indent: 0px; text-align: start; text-decoration: none solid rgb(0, 0, 0); letter-spacing: normal; word-spacing: normal; text-transform: none; writing-mode: lr-tb; direction: ltr; text-orientation: mixed; dominant-baseline: auto; baseline-shift: baseline; text-anchor: start; white-space: normal; shape-margin: 0px; inline-size: 0px; clip-rule: nonzero; display: inline; overflow: visible; visibility: visible; isolation: auto; mix-blend-mode: normal; color-interpolation: srgb; color-interpolation-filters: linearrgb; vector-effect: none; fill-opacity: 1; fill-rule: nonzero; stroke: none; stroke-width: 4; stroke-linecap: butt; stroke-linejoin: miter; stroke-miterlimit: 4; stroke-dasharray: none; stroke-dashoffset: 0; stroke-opacity: 1; color-rendering: auto; image-rendering: auto; shape-rendering: auto; text-rendering: auto; stop-color: rgb(0, 0, 0); stop-opacity: 1;"/>
</g>
<g style="opacity:1" id="g978" transform="matrix(1, 0, 0, 1, 160, -860.362305)">
<path id="path980" d="m 129.30693,930.96481 -8.70834,-8.70832 -2.96543,2.94464 11.67377,11.67371 25.05992,-25.05997 -2.94453,-2.94458 z" style="color: rgb(0, 0, 0); font: medium sans-serif; font-feature-settings: normal; font-variation-settings: normal; text-indent: 0px; text-align: start; text-decoration: none solid rgb(0, 0, 0); letter-spacing: normal; word-spacing: normal; text-transform: none; writing-mode: lr-tb; direction: ltr; text-orientation: mixed; dominant-baseline: auto; baseline-shift: baseline; text-anchor: start; white-space: normal; shape-margin: 0px; inline-size: 0px; clip-rule: nonzero; display: inline; overflow: visible; visibility: visible; isolation: auto; mix-blend-mode: normal; color-interpolation: srgb; color-interpolation-filters: linearrgb; vector-effect: none; fill-opacity: 1; fill-rule: nonzero; stroke: none; stroke-width: 4; stroke-linecap: butt; stroke-linejoin: miter; stroke-miterlimit: 4; stroke-dasharray: none; stroke-dashoffset: 0; stroke-opacity: 1; color-rendering: auto; image-rendering: auto; shape-rendering: auto; text-rendering: auto; stop-color: rgb(0, 0, 0); stop-opacity: 1;"/>
<path id="path982" d="m 151.42383,906.04297 -22.11719,22.09375 -8.70312,-8.70313 -5.80469,5.76172 14.50781,14.50781 27.88867,-27.88867 z" style="color: rgb(0, 0, 0); font: medium sans-serif; font-feature-settings: normal; font-variation-settings: normal; text-indent: 0px; text-align: start; text-decoration: none solid rgb(0, 0, 0); letter-spacing: normal; word-spacing: normal; text-transform: none; writing-mode: lr-tb; direction: ltr; text-orientation: mixed; dominant-baseline: auto; baseline-shift: baseline; text-anchor: start; white-space: normal; shape-margin: 0px; inline-size: 0px; clip-rule: nonzero; display: inline; overflow: visible; visibility: visible; isolation: auto; mix-blend-mode: normal; color-interpolation: srgb; color-interpolation-filters: linearrgb; vector-effect: none; fill-opacity: 1; fill-rule: nonzero; stroke: none; stroke-width: 4; stroke-linecap: butt; stroke-linejoin: miter; stroke-miterlimit: 4; stroke-dasharray: none; stroke-dashoffset: 0; stroke-opacity: 1; color-rendering: auto; image-rendering: auto; shape-rendering: auto; text-rendering: auto; stop-color: rgb(0, 0, 0); stop-opacity: 1;"/>
</g>
</g>
</svg>