<?xml version="1.0" encoding="UTF-8" standalone="no"?>
<svg
   xmlns:dc="http://purl.org/dc/elements/1.1/"
   xmlns:cc="http://creativecommons.org/ns#"
   xmlns:rdf="http://www.w3.org/1999/02/22-rdf-syntax-ns#"
   xmlns:svg="http://www.w3.org/2000/svg"
   xmlns="http://www.w3.org/2000/svg"
   xmlns:sodipodi="http://sodipodi.sourceforge.net/DTD/sodipodi-0.dtd"
   xmlns:inkscape="http://www.inkscape.org/namespaces/inkscape"
   inkscape:export-ydpi="3840"
   inkscape:export-xdpi="3840"
   inkscape:export-filename="/Users/markus/path5202.png"
   sodipodi:docname="ic_launcher.svg"
   inkscape:version="1.0beta1 (32d4812, 2019-09-19)"
   version="1.1"
   id="svg2"
   viewBox="0 0 192.00001 192"
   height="192"
   width="192">
  <sodipodi:namedview
     inkscape:document-rotation="0"
     inkscape:window-maximized="0"
     inkscape:window-y="67"
     inkscape:window-x="81"
     inkscape:window-height="907"
     inkscape:window-width="1600"
     inkscape:guide-bbox="true"
     showguides="true"
     inkscape:showpageshadow="false"
     units="px"
     showgrid="false"
     inkscape:current-layer="layer1"
     inkscape:document-units="px"
     inkscape:cy="96"
     inkscape:cx="96"
     inkscape:zoom="3.640625"
     inkscape:pageshadow="2"
     inkscape:pageopacity="0.0"
     borderopacity="1"
     bordercolor="#f9f9f9"
     pagecolor="#ffffff"
     id="base">
    <inkscape:grid
       enabled="false"
       snapvisiblegridlinesonly="true"
       id="grid4582"
       type="xygrid" />
  </sodipodi:namedview>
  <defs
     id="defs4" />
  <metadata
     id="metadata7">
    <rdf:RDF>
      <cc:Work
         rdf:about="">
        <dc:format>image/svg+xml</dc:format>
        <dc:type
           rdf:resource="http://purl.org/dc/dcmitype/StillImage" />
        <dc:title />
      </cc:Work>
    </rdf:RDF>
  </metadata>
  <g
     transform="translate(0,-860.36232)"
     id="layer1"
     inkscape:groupmode="layer"
     inkscape:label="Ebene 1">
    <ellipse
       style="fill:#f9f9f9;fill-opacity:1;stroke:none;stroke-width:4;stroke-linecap:butt;stroke-linejoin:miter;stroke-miterlimit:4;stroke-dasharray:none;stroke-opacity:1"
       id="circle4766"
       cx="-103.99998"
       cy="955.3623"
       r="88" />
    <circle
       r="88"
       cy="957.3623"
       cx="-304"
       id="circle5439"
       style="fill:#ececec;fill-opacity:1;stroke:none;stroke-width:4;stroke-linecap:butt;stroke-linejoin:miter;stroke-miterlimit:4;stroke-dasharray:none;stroke-opacity:1" />
    <circle
       style="fill:#f9f9f9;fill-opacity:1;stroke:none;stroke-width:4;stroke-linecap:butt;stroke-linejoin:miter;stroke-miterlimit:4;stroke-dasharray:none;stroke-opacity:1"
       id="path5437"
       cx="-304"
       cy="955.3623"
       r="88" />
    <circle
       style="fill:#333333;fill-opacity:1;stroke:none;stroke-width:1.5;stroke-linecap:butt;stroke-linejoin:round;stroke-miterlimit:4;stroke-dasharray:none;stroke-opacity:1"
       id="circle6057"
       cx="-303.96594"
       cy="940.33423"
       r="8.7564802" />
    <g
       transform="matrix(1.5254501,0,0,1.5254501,317.52187,376.72149)"
       id="g6041">
      <path
         style="fill:#ff6600;fill-opacity:1;stroke:none;stroke-width:10.00000095;stroke-linecap:butt;stroke-linejoin:round;stroke-miterlimit:4;stroke-dasharray:none;stroke-opacity:1"
         id="path6043"
         sodipodi:type="arc"
         sodipodi:cx="-407.36807"
         sodipodi:cy="370.97913"
         sodipodi:rx="40.929768"
         sodipodi:ry="40.929768"
         sodipodi:start="3.6651914"
         sodipodi:end="4.712389"
         d="m -442.81429,350.51424 a 40.929768,40.929768 0 0 1 35.44622,-20.46488 l 0,40.92977 z" />
      <path
         d="m -407.36807,330.04936 a 40.929768,40.929768 0 0 1 28.94171,11.98805 l -28.94171,28.94172 z"
         sodipodi:end="5.4977871"
         sodipodi:start="4.712389"
         sodipodi:ry="40.929768"
         sodipodi:rx="40.929768"
         sodipodi:cy="370.97913"
         sodipodi:cx="-407.36807"
         sodipodi:type="arc"
         id="path6045"
         style="fill:#ffcc00;fill-opacity:1;stroke:none;stroke-width:10.00000095;stroke-linecap:butt;stroke-linejoin:round;stroke-miterlimit:4;stroke-dasharray:none;stroke-opacity:1" />
      <path
         style="fill:#55d400;fill-opacity:1;stroke:none;stroke-width:10.00000095;stroke-linecap:butt;stroke-linejoin:round;stroke-miterlimit:4;stroke-dasharray:none;stroke-opacity:1"
         id="path6047"
         sodipodi:type="arc"
         sodipodi:cx="-407.36807"
         sodipodi:cy="370.97913"
         sodipodi:rx="40.929768"
         sodipodi:ry="40.929768"
         sodipodi:start="5.4977871"
         sodipodi:end="5.7595865"
         d="m -378.42636,342.03741 a 40.929768,40.929768 0 0 1 6.50451,8.47683 l -35.44622,20.46489 z" />
    </g>
    <path
       style="color:#000000;font-style:normal;font-variant:normal;font-weight:normal;font-stretch:normal;font-size:medium;line-height:normal;font-family:sans-serif;text-indent:0;text-align:start;text-decoration:none;text-decoration-line:none;text-decoration-style:solid;text-decoration-color:#000000;letter-spacing:normal;word-spacing:normal;text-transform:none;direction:ltr;block-progression:tb;writing-mode:lr-tb;baseline-shift:baseline;text-anchor:start;white-space:normal;clip-rule:nonzero;display:inline;overflow:visible;visibility:visible;opacity:1;isolation:auto;mix-blend-mode:normal;color-interpolation:sRGB;color-interpolation-filters:linearRGB;solid-color:#000000;solid-opacity:1;fill:#333333;fill-opacity:1;fill-rule:evenodd;stroke:none;stroke-width:1.00000012;stroke-linecap:round;stroke-linejoin:miter;stroke-miterlimit:4;stroke-dasharray:none;stroke-dashoffset:0;stroke-opacity:1;color-rendering:auto;image-rendering:auto;shape-rendering:auto;text-rendering:auto;enable-background:accumulate"
       d="m -304.02422,890.12733 -1.368,2.31488 -15.86523,27.01941 13.69246,1.64686 -0.90991,12.7452 c -0.0923,-0.008 -0.1568,0.042 -0.25374,0.0319 l -0.006,-4.7e-4 -0.0125,7e-5 c -5.62149,0.94192 -10.90062,3.30503 -15.73514,5.41646 -3.27775,1.43146 -6.28815,3.4964 -8.91992,5.0819 -2.63177,1.58551 -4.88466,2.53632 -6.11579,2.39568 -7.04156,-0.8057 -14.32054,-7.64379 -15.54331,-8.8891 l 0.10494,0.11624 c -0.91516,-1.14171 -2.30153,-1.80543 -3.76355,-1.80741 -2.65014,-2.6e-4 -4.83473,2.17775 -4.83452,4.82784 -2.2e-4,2.65023 2.18423,4.83483 4.83451,4.83472 0.7164,-0.002 1.28807,-0.47309 1.92476,-0.77494 3.51674,3.01209 9.22478,7.05462 16.44083,7.87986 0.80337,0.0932 1.60816,0.11409 2.40797,0.092 5.5967,-0.14289 10.99619,-2.72002 16.37269,-5.06984 4.3595,-1.90408 8.72303,-3.70785 12.75777,-4.60522 0.64184,0.35661 2.28869,1.38922 4.73543,1.47318 2.55061,0.0853 4.144,-1.05793 4.82214,-1.47912 4.04162,0.89589 8.41967,2.7037 12.78869,4.61169 6.14502,2.68387 12.34513,5.70569 18.77445,4.97026 7.31457,-0.83648 13.02706,-4.91525 16.47797,-7.89227 0.64221,0.30435 1.21399,0.78637 1.93752,0.78641 l 0.006,4e-4 c 2.64955,-8.9e-4 4.82837,-2.18557 4.82828,-4.8344 -2.7e-4,-2.6491 -2.17884,-4.83362 -4.82823,-4.83441 l -0.006,-4e-4 c -0.96443,0.002 -1.90164,0.30611 -2.69896,0.84785 -0.28525,0.16833 -0.55693,0.3658 -0.78607,0.61914 -0.0427,0.0443 -8.02534,8.2385 -15.76611,9.12421 -1.23113,0.13956 -3.48408,-0.8225 -6.11584,-2.4082 -2.63176,-1.58537 -5.64218,-3.64447 -8.91992,-5.0761 -4.83596,-2.11198 -10.11202,-4.4745 -15.73511,-5.41584 l -0.0125,9e-5 -0.0125,8e-5 c -0.0877,-0.009 -0.16343,-0.0317 -0.24772,-0.032 l -0.90375,-12.74548 13.69242,-1.6405 -17.2393,-29.3344 z m 1e-5,49.59476 c 0.0291,-0.007 0.023,-0.006 0.025,0.0392 1.9e-4,0.0327 0.006,0.0312 -0.0228,0.0389 -0.0297,0.008 -0.0233,0.006 -0.0248,-0.0326 -2e-4,-0.0327 -0.007,-0.0376 0.0244,-0.0393 z"
       id="path6055"
       inkscape:connector-curvature="0"
       inkscape:transform-center-y="-9.5552465"
       inkscape:transform-center-x="-2.3086231" />
    <path
       style="color:#000000;font-style:normal;font-variant:normal;font-weight:normal;font-stretch:normal;font-size:medium;line-height:normal;font-family:sans-serif;text-indent:0;text-align:start;text-decoration:none;text-decoration-line:none;text-decoration-style:solid;text-decoration-color:#000000;letter-spacing:normal;word-spacing:normal;text-transform:none;direction:ltr;block-progression:tb;writing-mode:lr-tb;baseline-shift:baseline;text-anchor:start;white-space:normal;clip-rule:nonzero;display:inline;overflow:visible;visibility:visible;opacity:1;isolation:auto;mix-blend-mode:normal;color-interpolation:sRGB;color-interpolation-filters:linearRGB;solid-color:#000000;solid-opacity:1;fill:#cccccc;fill-opacity:1;fill-rule:evenodd;stroke:none;stroke-width:0.30000001;stroke-linecap:round;stroke-linejoin:round;stroke-miterlimit:4;stroke-dasharray:none;stroke-dashoffset:0;stroke-opacity:1;color-rendering:auto;image-rendering:auto;shape-rendering:auto;text-rendering:auto;enable-background:accumulate"
       d="m -358.36914,941.1257 c -0.59464,-0.0348 -1.10671,0.24403 -1.54133,0.61294 -0.43461,0.36954 -0.8331,0.8573 -1.23801,1.46074 -0.80982,1.20688 -1.64015,2.87298 -2.4946,4.86553 -1.70889,3.98479 -3.50111,9.2747 -5.14395,14.57126 -3.28567,10.59312 -5.95485,21.20717 -5.95485,21.20717 a 0.7924086,0.7924086 0 1 0 1.53514,0.39014 c 0,0 2.66743,-10.58774 5.93628,-21.12699 1.63442,-5.2693 3.42136,-10.52974 5.08824,-14.41659 0.83343,-1.94342 1.64205,-3.54709 2.35222,-4.60533 0.35509,-0.52928 0.68774,-0.91847 0.94709,-1.13905 0.25934,-0.22186 0.40368,-0.24404 0.42092,-0.24087 0.0292,0.002 0.21266,0.0571 0.48283,0.31059 0.27015,0.25038 0.60497,0.66841 0.95946,1.21955 0.70898,1.10198 1.51074,2.73418 2.33365,4.69186 1.64583,3.9157 3.40307,9.15743 5.00778,14.39218 3.2094,10.46889 5.81247,20.9099 5.81247,20.9099 a 0.7924086,0.7924086 0 1 0 1.53514,-0.38539 c 0,0 -2.60543,-10.4746 -5.83105,-20.99673 -1.61281,-5.26107 -3.37833,-10.53133 -5.06348,-14.54051 -0.84257,-2.00459 -1.66569,-3.68687 -2.46365,-4.92734 -0.39898,-0.61991 -0.78674,-1.13049 -1.20706,-1.52254 -0.42032,-0.39204 -0.89055,-0.69693 -1.47324,-0.73052 z"
       id="path6039"
       inkscape:connector-curvature="0" />
    <path
       style="fill:#333333;fill-opacity:1;stroke:none;stroke-width:3;stroke-linecap:round;stroke-linejoin:round;stroke-miterlimit:4;stroke-dasharray:none"
       d="m -341.49923,983.39678 c 0,4.56572 -7.6356,10.92273 -17.05463,10.92273 -9.41895,0 -17.05463,-6.35701 -17.05463,-10.92273 0,0 4.92209,1.12985 17.05463,1.12985 12.13254,0 17.05463,-1.12985 17.05463,-1.12985 z"
       id="path6051"
       inkscape:connector-curvature="0"
       sodipodi:nodetypes="csczc" />
    <path
       inkscape:connector-curvature="0"
       id="path4538"
       d="m -249.26147,941.1257 c -0.59464,-0.0348 -1.10671,0.24403 -1.54133,0.61294 -0.43461,0.36954 -0.8331,0.8573 -1.23801,1.46074 -0.80982,1.20688 -1.64015,2.87298 -2.4946,4.86553 -1.70889,3.98479 -3.50111,9.2747 -5.14395,14.57126 -3.28568,10.59312 -5.95486,21.20717 -5.95486,21.20717 a 0.7924086,0.7924086 0 1 0 1.53514,0.39014 c 0,0 2.66743,-10.58774 5.93629,-21.12699 1.63442,-5.2693 3.42136,-10.52974 5.08824,-14.41659 0.83343,-1.94342 1.64205,-3.54709 2.35222,-4.60533 0.35509,-0.52928 0.68774,-0.91847 0.94709,-1.13905 0.25934,-0.22186 0.40368,-0.24404 0.42092,-0.24087 0.0292,0.002 0.21266,0.0571 0.48283,0.31059 0.27015,0.25038 0.60497,0.66841 0.95946,1.21955 0.70898,1.10198 1.51074,2.73418 2.33365,4.69186 1.64583,3.9157 3.40307,9.15743 5.00778,14.39218 3.2094,10.46889 5.81247,20.9099 5.81247,20.9099 a 0.7924086,0.7924086 0 1 0 1.53514,-0.38539 c 0,0 -2.60543,-10.4746 -5.83105,-20.99673 -1.61281,-5.26107 -3.37833,-10.53133 -5.06348,-14.54051 -0.84257,-2.00459 -1.66569,-3.68687 -2.46365,-4.92734 -0.39898,-0.61991 -0.78674,-1.13049 -1.20706,-1.52254 -0.42032,-0.39204 -0.89055,-0.69693 -1.47324,-0.73052 z"
       style="color:#000000;font-style:normal;font-variant:normal;font-weight:normal;font-stretch:normal;font-size:medium;line-height:normal;font-family:sans-serif;text-indent:0;text-align:start;text-decoration:none;text-decoration-line:none;text-decoration-style:solid;text-decoration-color:#000000;letter-spacing:normal;word-spacing:normal;text-transform:none;direction:ltr;block-progression:tb;writing-mode:lr-tb;baseline-shift:baseline;text-anchor:start;white-space:normal;clip-rule:nonzero;display:inline;overflow:visible;visibility:visible;opacity:1;isolation:auto;mix-blend-mode:normal;color-interpolation:sRGB;color-interpolation-filters:linearRGB;solid-color:#000000;solid-opacity:1;fill:#cccccc;fill-opacity:1;fill-rule:evenodd;stroke:none;stroke-width:0.30000001;stroke-linecap:round;stroke-linejoin:round;stroke-miterlimit:4;stroke-dasharray:none;stroke-dashoffset:0;stroke-opacity:1;color-rendering:auto;image-rendering:auto;shape-rendering:auto;text-rendering:auto;enable-background:accumulate" />
    <path
       sodipodi:nodetypes="csczc"
       inkscape:connector-curvature="0"
       id="path4540"
       d="m -232.39156,983.39678 c 0,4.56572 -7.6356,10.92273 -17.05463,10.92273 -9.41895,0 -17.05464,-6.35701 -17.05464,-10.92273 0,0 4.92209,1.12985 17.05464,1.12985 12.13254,0 17.05463,-1.12985 17.05463,-1.12985 z"
       style="fill:#333333;fill-opacity:1;stroke:none;stroke-width:3;stroke-linecap:round;stroke-linejoin:round;stroke-miterlimit:4;stroke-dasharray:none" />
    <path
       style="fill:#ff6600;fill-opacity:1;stroke:none;stroke-width:10.00000095;stroke-linecap:butt;stroke-linejoin:round;stroke-miterlimit:4;stroke-dasharray:none;stroke-opacity:1"
       d="m -103.76173,911.28418 a 145.78065,145.78065 0 0 0 -86.80859,28.73829 87.999995,87.999995 0 0 0 -1.42969,15.33984 87.999995,87.999995 0 0 0 88,87.99999 87.999995,87.999995 0 0 0 0.23828,-0.01 l 0,-132.07032 z"
       id="path4751"
       inkscape:connector-curvature="0" />
    <path
       style="fill:#ffcc00;fill-opacity:1;stroke:none;stroke-width:10.00000095;stroke-linecap:butt;stroke-linejoin:round;stroke-miterlimit:4;stroke-dasharray:none;stroke-opacity:1"
       d="m -103.76173,911.28418 0,132.07032 a 87.999995,87.999995 0 0 0 8.193361,-0.4805 l 64.697272,-112.05857 a 145.78065,145.78065 0 0 0 -72.890633,-19.53125 z"
       id="path4753"
       inkscape:connector-curvature="0" />
    <path
       style="fill:#55d400;fill-opacity:1;stroke:none;stroke-width:10.00000095;stroke-linecap:butt;stroke-linejoin:round;stroke-miterlimit:4;stroke-dasharray:none;stroke-opacity:1"
       d="M -30.871097,930.81543 -95.568369,1042.874 a 87.999995,87.999995 0 0 0 79.568363,-87.51169 87.999995,87.999995 0 0 0 -1.44727,-15.69336 145.78065,145.78065 0 0 0 -13.423821,-8.85352 z"
       id="path4755"
       inkscape:connector-curvature="0" />
    <path
       style="color:#000000;font-style:normal;font-variant:normal;font-weight:normal;font-stretch:normal;font-size:medium;line-height:normal;font-family:sans-serif;text-indent:0;text-align:start;text-decoration:none;text-decoration-line:none;text-decoration-style:solid;text-decoration-color:#000000;letter-spacing:normal;word-spacing:normal;text-transform:none;direction:ltr;block-progression:tb;writing-mode:lr-tb;baseline-shift:baseline;text-anchor:start;white-space:normal;clip-rule:nonzero;display:inline;overflow:visible;visibility:visible;opacity:1;isolation:auto;mix-blend-mode:normal;color-interpolation:sRGB;color-interpolation-filters:linearRGB;solid-color:#000000;solid-opacity:1;fill:#333333;fill-opacity:1;fill-rule:evenodd;stroke:none;stroke-width:1.00000012;stroke-linecap:round;stroke-linejoin:miter;stroke-miterlimit:4;stroke-dasharray:none;stroke-dashoffset:0;stroke-opacity:1;color-rendering:auto;image-rendering:auto;shape-rendering:auto;text-rendering:auto;enable-background:accumulate"
       d="m -104.0586,934.46583 0.002,0.008 -3.19336,5.40625 -37.04297,63.08592 31.96875,3.8457 -1.53515,35.9493 a 87.999995,87.999995 0 0 0 9.85937,0.6015 87.999995,87.999995 0 0 0 9.746091,-0.6484 l -1.52343,-35.9258 31.970701,-3.8301 -40.251952,-68.49218 z"
       id="path4757"
       inkscape:connector-curvature="0" />
    <circle
       style="fill:#ececec;fill-opacity:1;stroke:none;stroke-width:4;stroke-linecap:butt;stroke-linejoin:miter;stroke-miterlimit:4;stroke-dasharray:none;stroke-opacity:1"
       id="circle4151"
       cx="496.00003"
       cy="957.3623"
       r="88" />
    <circle
       r="88"
       cy="955.3623"
       cx="496.00003"
       id="circle4153"
       style="fill:#f9f9f9;fill-opacity:1;stroke:none;stroke-width:4;stroke-linecap:butt;stroke-linejoin:miter;stroke-miterlimit:4;stroke-dasharray:none;stroke-opacity:1" />
    <path
       style="fill:#000000;fill-opacity:0.03921569;stroke:none;stroke-width:1.5;stroke-linecap:butt;stroke-linejoin:round;stroke-miterlimit:4;stroke-dasharray:none;stroke-opacity:1"
       d="m 495.97658,911.75879 -0.002,0.002 -1.50586,2.54297 -17.44336,29.70703 14.24219,13.21289 -0.10352,1.44726 c -0.71362,0.4179 -1.37131,0.92592 -1.95507,1.51172 -5.59408,1.1789 -10.86837,3.51908 -15.73047,5.64258 -3.6039,1.5739 -6.913,3.84459 -9.80665,5.58789 -2.89364,1.7433 -5.36902,2.78741 -6.72265,2.63281 -7.74222,-0.8859 -15.7454,-8.40423 -17.08985,-9.77343 -1.00542,-1.1737 -2.47554,-1.85728 -4.02539,-1.85938 -2.91383,-3e-4 -5.31468,2.3948 -5.31445,5.3086 -1.4e-4,1.75979 0.88312,3.32256 2.21875,4.29296 l 70.94922,70.94921 a 87.999995,87.999995 0 0 0 75.61719,-59.50194 l -18.85547,-18.85547 c -0.96836,-1.3283 -2.52212,-2.20778 -4.27539,-2.20898 l -0.002,0 -0.006,0 c -1.05987,0 -2.09041,0.33448 -2.9668,0.92968 l -0.002,0 c -0.31302,0.1847 -0.61167,0.39994 -0.86329,0.67774 l -0.002,0 c -0.0145,0.015 -0.92989,0.92719 -2.34375,2.15039 l -54.01172,-54.39649 z"
       id="path4887"
       inkscape:connector-curvature="0" />
    <path
       style="fill:#333333;fill-opacity:1;stroke:none;stroke-width:1.5;stroke-linecap:butt;stroke-linejoin:round;stroke-miterlimit:4;stroke-dasharray:none;stroke-opacity:1"
       d="m 495.97424,911.75864 -1.50537,2.54475 -17.44389,29.70808 15.0559,1.81031 -0.91696,12.84831 a 9.6277829,9.6277829 0 0 0 -1.9542,1.51182 c -5.59407,1.17892 -10.8681,3.52007 -15.73021,5.64354 -3.6039,1.5739 -6.91385,3.84445 -9.80749,5.58771 -2.89364,1.74328 -5.37009,2.78744 -6.72372,2.63281 -7.74222,-0.88587 -15.74511,-8.40392 -17.08955,-9.77314 -1.00543,-1.1737 -2.47451,-1.8576 -4.02436,-1.8597 -2.91384,-2.9e-4 -5.31521,2.39475 -5.31498,5.30854 -2.5e-4,2.91393 2.40099,5.31725 5.31498,5.31713 0.78768,-0.002 1.41736,-0.52066 2.1174,-0.85254 3.86667,3.3118 10.14332,7.75553 18.07739,8.66289 0.88331,0.10247 1.76629,0.12521 2.64568,0.10093 6.1536,-0.15711 12.09075,-2.98904 18.00223,-5.57268 3.62515,-1.58333 7.25255,-3.10305 10.72446,-4.17683 a 9.6277829,9.6277829 0 0 0 8.63497,5.38801 9.6277829,9.6277829 0 0 0 8.61564,-5.35364 c 3.44071,1.0721 7.03564,2.5756 10.62353,4.14246 6.75647,2.95093 13.57241,6.27392 20.64147,5.46532 8.0424,-0.91972 14.32389,-5.40468 18.11818,-8.67793 0.70612,0.33464 1.33477,0.86324 2.13029,0.86328 l 0.007,0.002 c 2.91319,-9.8e-4 5.30865,-2.40474 5.30855,-5.31714 -3e-4,-2.91269 -2.39554,-5.31411 -5.30855,-5.31498 l -0.007,0 c -1.06039,0.002 -2.09114,0.33635 -2.9678,0.932 -0.31363,0.18508 -0.61349,0.4022 -0.86542,0.68075 -0.047,0.0487 -8.82336,9.05913 -17.33437,10.03297 -1.35363,0.15344 -3.83009,-0.90434 -6.72372,-2.64783 -2.89363,-1.74312 -6.20361,-4.00718 -9.8075,-5.58127 -4.81878,-2.10448 -10.03809,-4.42251 -15.57558,-5.61134 a 9.6277829,9.6277829 0 0 0 -2.11311,-1.61489 l -0.90623,-12.77743 15.0559,-1.80388 -18.95356,-32.24854 z"
       id="circle4229"
       inkscape:connector-curvature="0" />
    <path
       style="fill:#000000;fill-opacity:0.1254902;stroke:none;stroke-width:1.5;stroke-linecap:butt;stroke-linejoin:round;stroke-miterlimit:4;stroke-dasharray:none;stroke-opacity:1"
       d="m 95.974609,1661.7608 -1.50586,2.5429 -17.443358,29.7071 14.242188,13.2128 -0.10352,1.4473 c -0.71362,0.4179 -1.37131,0.9259 -1.95507,1.5117 -5.59408,1.1789 -10.868367,3.5191 -15.730473,5.6426 -3.603899,1.5739 -6.913,3.8446 -9.806641,5.5879 -2.893641,1.7433 -5.369024,2.7874 -6.722656,2.6328 -7.742222,-0.8859 -15.745403,-8.4042 -17.089844,-9.7734 -1.005425,-1.1737 -2.475544,-1.8573 -4.025391,-1.8594 -2.913838,-3e-4 -5.314683,2.3948 -5.314453,5.3086 -1.45e-4,1.7598 0.883115,3.3226 2.21875,4.293 l 117.619139,117.6191 c 0.33257,0.4574 0.73414,0.8587 1.19141,1.1914 0.97025,1.3316 2.53085,2.2129 4.28711,2.2129 0.78714,-5e-4 1.41749,-0.5219 2.11718,-0.8535 l 0,0 c 3.86673,3.3117 10.14258,7.7548 18.07618,8.6621 l 0.002,0 c 0.88287,0.1023 1.76556,0.1239 2.64453,0.1 6.15318,-0.1574 12.09083,-2.9889 18.00195,-5.5723 3.44429,-1.5043 6.8862,-2.9385 10.19922,-4 0.21496,0.2148 0.42679,0.4322 0.66016,0.625 0.36679,0.4309 0.75886,0.8344 1.19141,1.1914 1.80178,2.1141 4.45281,3.3919 7.30859,3.3946 3.6548,0 6.99271,-2.0786 8.61523,-5.3536 3.44033,1.0721 7.0356,2.5759 10.62305,4.1426 6.75606,2.9508 13.572,6.2735 20.64063,5.4649 l 0.002,0 c 8.0417,-0.92 14.32117,-5.4048 18.11523,-8.6778 l 0.002,0 c 0.7057,0.3346 1.33377,0.8632 2.1289,0.8633 l 0.008,0 0.002,0 c 2.91223,0 5.30479,-2.4066 5.30469,-5.3183 -6.1e-4,-1.761 -0.88397,-3.3238 -2.22071,-4.293 L 160.44959,1714.6068 c -0.96836,-1.3283 -2.52212,-2.2077 -4.27539,-2.2089 l -0.002,0 -0.006,0 c -1.05987,0 -2.09041,0.3345 -2.9668,0.9297 l -0.002,0 c -0.31302,0.1847 -0.61167,0.3999 -0.86329,0.6777 l -0.002,0 c -0.0145,0.015 -0.92989,0.9272 -2.34375,2.1504 l -54.012371,-54.3969 z"
       id="path4439"
       inkscape:connector-curvature="0"
       sodipodi:nodetypes="cccccccsccccccccccccccccccccccccccsccccccccccccc" />
    <path
       inkscape:connector-curvature="0"
       id="path4236"
       d="m 95.974223,1661.7586 -1.505375,2.5448 -17.443885,29.7081 15.0559,1.8103 -0.916969,12.8483 a 9.6277829,9.6277829 0 0 0 -1.954196,1.5118 c -5.594073,1.1789 -10.868099,3.5201 -15.730206,5.6436 -3.603899,1.5739 -6.913848,3.8444 -9.807489,5.5877 -2.893641,1.7432 -5.370091,2.7874 -6.723723,2.6328 -7.742222,-0.8859 -15.745113,-8.4039 -17.089554,-9.7732 -1.005425,-1.1737 -2.474508,-1.8576 -4.024355,-1.8597 -2.913839,-3e-4 -5.315215,2.3948 -5.314985,5.3086 -2.41e-4,2.9139 2.400992,5.3172 5.314985,5.3171 0.787684,0 1.41736,-0.5207 2.117403,-0.8525 3.866669,3.3118 10.143316,7.7555 18.077389,8.6629 0.883308,0.1024 1.766287,0.1252 2.645681,0.1009 6.153593,-0.1571 12.090747,-2.9891 18.002228,-5.5727 3.625143,-1.5833 7.252546,-3.103 10.724458,-4.1768 a 9.6277829,9.6277829 0 0 0 8.63497,5.388 9.6277829,9.6277829 0 0 0 8.61564,-5.3537 c 3.44071,1.0721 7.03564,2.5756 10.62353,4.1425 6.75647,2.9509 13.57241,6.2739 20.64147,5.4653 8.0424,-0.9197 14.32389,-5.4047 18.11818,-8.6779 0.70612,0.3346 1.33477,0.8632 2.13029,0.8633 l 0.007,0 c 2.91319,-10e-4 5.30865,-2.4048 5.30855,-5.3172 -3e-4,-2.9127 -2.39554,-5.3141 -5.30855,-5.3149 l -0.007,0 c -1.06039,0 -2.09114,0.3363 -2.9678,0.932 -0.31363,0.185 -0.61349,0.4022 -0.86542,0.6807 -0.047,0.049 -8.82336,9.0591 -17.33437,10.033 -1.35363,0.1534 -3.83009,-0.9044 -6.72372,-2.6479 -2.89363,-1.7431 -6.20361,-4.0071 -9.8075,-5.5812 -4.81878,-2.1045 -10.03809,-4.4225 -15.57558,-5.6114 a 9.6277829,9.6277829 0 0 0 -2.11311,-1.6149 l -0.906232,-12.7774 15.055902,-1.8039 -18.953557,-32.2485 z"
       style="fill:#333333;fill-opacity:1;stroke:none;stroke-width:1.5;stroke-linecap:butt;stroke-linejoin:round;stroke-miterlimit:4;stroke-dasharray:none;stroke-opacity:1" />
    <circle
       r="88"
       cy="957.3623"
       cx="696.00006"
       id="circle4895"
       style="fill:#ececec;fill-opacity:1;stroke:none;stroke-width:4;stroke-linecap:butt;stroke-linejoin:miter;stroke-miterlimit:4;stroke-dasharray:none;stroke-opacity:1" />
    <circle
       style="fill:#ffcc00;fill-opacity:1;stroke:none;stroke-width:4;stroke-linecap:butt;stroke-linejoin:miter;stroke-miterlimit:4;stroke-dasharray:none;stroke-opacity:1"
       id="circle4897"
       cx="696.00006"
       cy="955.3623"
       r="88" />
    <path
       id="path4899"
       d="m 695.97659,911.75879 -0.002,0.002 -1.50586,2.54297 -17.44336,29.70703 14.24219,13.21289 -0.10352,1.44726 c -0.71362,0.4179 -1.37131,0.92592 -1.95507,1.51172 -5.59408,1.1789 -10.86837,3.51908 -15.73047,5.64258 -3.6039,1.5739 -6.913,3.84459 -9.80664,5.58789 -2.89364,1.7433 -5.36903,2.78741 -6.72266,2.63281 -7.74222,-0.8859 -15.7454,-8.40423 -17.08984,-9.77343 -1.00543,-1.1737 -2.47555,-1.85728 -4.0254,-1.85938 -2.91383,-3e-4 -5.31468,2.3948 -5.31445,5.3086 -1.4e-4,1.75979 0.88312,3.32256 2.21875,4.29296 l 70.94922,70.94921 a 87.999995,87.999995 0 0 0 75.61719,-59.50194 L 760.4492,964.60649 c -0.96836,-1.3283 -2.52212,-2.20778 -4.27539,-2.20898 l -0.002,0 -0.006,0 c -1.05987,0 -2.09041,0.33448 -2.9668,0.92968 l -0.002,0 c -0.31302,0.1847 -0.61167,0.39994 -0.86329,0.67774 l -0.002,0 c -0.0145,0.015 -0.92989,0.92719 -2.34375,2.15039 l -54.01172,-54.39649 z"
       style="fill:#000000;fill-opacity:0.03921569;stroke:none;stroke-width:1.5;stroke-linecap:butt;stroke-linejoin:round;stroke-miterlimit:4;stroke-dasharray:none;stroke-opacity:1"
       inkscape:connector-curvature="0" />
    <path
       inkscape:connector-curvature="0"
       id="path4901"
       d="m 695.97425,911.75864 -1.50537,2.54475 -17.44388,29.70808 15.05589,1.81031 -0.91696,12.84831 a 9.6277829,9.6277829 0 0 0 -1.9542,1.51182 c -5.59407,1.17892 -10.8681,3.52007 -15.73021,5.64354 -3.60389,1.5739 -6.91384,3.84445 -9.80748,5.58771 -2.89365,1.74328 -5.37009,2.78744 -6.72373,2.63281 -7.74222,-0.88587 -15.74511,-8.40392 -17.08955,-9.77314 -1.00543,-1.1737 -2.47451,-1.8576 -4.02436,-1.8597 -2.91384,-2.9e-4 -5.31521,2.39475 -5.31498,5.30854 -2.4e-4,2.91393 2.40099,5.31725 5.31498,5.31713 0.78769,-0.002 1.41736,-0.52066 2.1174,-0.85254 3.86668,3.3118 10.14332,7.75553 18.0774,8.66289 0.8833,0.10247 1.76628,0.12521 2.64568,0.10093 6.15359,-0.15711 12.09074,-2.98904 18.00222,-5.57268 3.62515,-1.58333 7.25255,-3.10305 10.72446,-4.17683 a 9.6277829,9.6277829 0 0 0 8.63497,5.38801 9.6277829,9.6277829 0 0 0 8.61564,-5.35364 c 3.44071,1.0721 7.03564,2.5756 10.62353,4.14246 6.75647,2.95093 13.57241,6.27392 20.64147,5.46532 8.0424,-0.91972 14.32389,-5.40468 18.11818,-8.67793 0.70612,0.33464 1.33477,0.86324 2.13029,0.86328 l 0.007,0.002 c 2.91319,-9.8e-4 5.30865,-2.40474 5.30855,-5.31714 -3e-4,-2.91269 -2.39554,-5.31411 -5.30855,-5.31498 l -0.007,0 c -1.06039,0.002 -2.09114,0.33635 -2.9678,0.932 -0.31363,0.18508 -0.61349,0.4022 -0.86542,0.68075 -0.047,0.0487 -8.82336,9.05913 -17.33437,10.03297 -1.35363,0.15344 -3.83009,-0.90434 -6.72372,-2.64783 -2.89363,-1.74312 -6.20361,-4.00718 -9.8075,-5.58127 -4.81878,-2.10448 -10.03809,-4.42251 -15.57558,-5.61134 a 9.6277829,9.6277829 0 0 0 -2.11311,-1.61489 l -0.90623,-12.77743 15.0559,-1.80388 -18.95356,-32.24854 z"
       style="fill:#333333;fill-opacity:1;stroke:none;stroke-width:1.5;stroke-linecap:butt;stroke-linejoin:round;stroke-miterlimit:4;stroke-dasharray:none;stroke-opacity:1" />
    <circle
       style="fill:#ececec;fill-opacity:1;stroke:none;stroke-width:4;stroke-linecap:butt;stroke-linejoin:miter;stroke-miterlimit:4;stroke-dasharray:none;stroke-opacity:1"
       id="circle4903"
       cx="896.00006"
       cy="957.3623"
       r="88" />
    <circle
       r="88"
       cy="955.3623"
       cx="896.00006"
       id="circle4905"
       style="fill:#55d400;fill-opacity:1;stroke:none;stroke-width:4;stroke-linecap:butt;stroke-linejoin:miter;stroke-miterlimit:4;stroke-dasharray:none;stroke-opacity:1" />
    <path
       inkscape:connector-curvature="0"
       style="fill:#000000;fill-opacity:0.0627451;stroke:none;stroke-width:1.5;stroke-linecap:butt;stroke-linejoin:round;stroke-miterlimit:4;stroke-dasharray:none;stroke-opacity:1"
       d="m 895.9766,911.75879 -0.002,0.002 -1.50586,2.54297 -17.44336,29.70703 14.24219,13.21289 -0.10352,1.44726 c -0.71362,0.4179 -1.37131,0.92592 -1.95507,1.51172 -5.59408,1.1789 -10.86837,3.51908 -15.73047,5.64258 -3.6039,1.5739 -6.913,3.84459 -9.80664,5.58789 -2.89364,1.7433 -5.36903,2.78741 -6.72266,2.63281 -7.74222,-0.8859 -15.7454,-8.40423 -17.08984,-9.77343 -1.00543,-1.1737 -2.47555,-1.85728 -4.0254,-1.85938 -2.91383,-3e-4 -5.31468,2.3948 -5.31445,5.3086 -1.4e-4,1.75979 0.88312,3.32256 2.21875,4.29296 l 70.94922,70.94921 a 87.999995,87.999995 0 0 0 75.61719,-59.50194 l -18.85547,-18.85547 c -0.96836,-1.3283 -2.52212,-2.20778 -4.27539,-2.20898 l -0.002,0 -0.006,0 c -1.05987,0 -2.09041,0.33448 -2.9668,0.92968 l -0.002,0 c -0.31302,0.1847 -0.61167,0.39994 -0.86329,0.67774 l -0.002,0 c -0.0145,0.015 -0.92989,0.92719 -2.34375,2.15039 l -54.01172,-54.39649 z"
       id="path4907" />
    <path
       style="fill:#ffffff;fill-opacity:1;stroke:none;stroke-width:1.5;stroke-linecap:butt;stroke-linejoin:round;stroke-miterlimit:4;stroke-dasharray:none;stroke-opacity:1"
       d="m 895.97426,911.75864 -1.50537,2.54475 -17.44388,29.70808 15.05589,1.81031 -0.91696,12.84831 a 9.6277829,9.6277829 0 0 0 -1.9542,1.51182 c -5.59407,1.17892 -10.8681,3.52007 -15.73021,5.64354 -3.60389,1.5739 -6.91384,3.84445 -9.80748,5.58771 -2.89365,1.74328 -5.37009,2.78744 -6.72373,2.63281 -7.74222,-0.88587 -15.74511,-8.40392 -17.08955,-9.77314 -1.00543,-1.1737 -2.47451,-1.8576 -4.02436,-1.8597 -2.91384,-2.9e-4 -5.31521,2.39475 -5.31498,5.30854 -2.4e-4,2.91393 2.40099,5.31725 5.31498,5.31713 0.78769,-0.002 1.41736,-0.52066 2.1174,-0.85254 3.86668,3.3118 10.14332,7.75553 18.0774,8.66289 0.8833,0.10247 1.76628,0.12521 2.64568,0.10093 6.15359,-0.15711 12.09074,-2.98904 18.00222,-5.57268 3.62515,-1.58333 7.25255,-3.10305 10.72446,-4.17683 a 9.6277829,9.6277829 0 0 0 8.63497,5.38801 9.6277829,9.6277829 0 0 0 8.61564,-5.35364 c 3.44071,1.0721 7.03564,2.5756 10.62353,4.14246 6.75647,2.95093 13.57241,6.27392 20.64147,5.46532 8.0424,-0.91972 14.32389,-5.40468 18.11818,-8.67793 0.70612,0.33464 1.33477,0.86324 2.13029,0.86328 l 0.007,0.002 c 2.91319,-9.8e-4 5.30865,-2.40474 5.30855,-5.31714 -3e-4,-2.91269 -2.39554,-5.31411 -5.30855,-5.31498 l -0.007,0 c -1.06039,0.002 -2.09114,0.33635 -2.9678,0.932 -0.31363,0.18508 -0.61349,0.4022 -0.86542,0.68075 -0.047,0.0487 -8.82336,9.05913 -17.33437,10.03297 -1.35363,0.15344 -3.83009,-0.90434 -6.72372,-2.64783 -2.89363,-1.74312 -6.20361,-4.00718 -9.8075,-5.58127 -4.81878,-2.10448 -10.03809,-4.42251 -15.57558,-5.61134 a 9.6277829,9.6277829 0 0 0 -2.11311,-1.61489 l -0.90623,-12.77743 15.0559,-1.80388 -18.95356,-32.24854 z"
       id="path4909"
       inkscape:connector-curvature="0" />
    <circle
       r="88"
       cy="957.3623"
       cx="1096.0001"
       id="circle4911"
       style="fill:#1a1a1a;fill-opacity:1;stroke:none;stroke-width:4;stroke-linecap:butt;stroke-linejoin:miter;stroke-miterlimit:4;stroke-dasharray:none;stroke-opacity:1" />
    <circle
       style="fill:#4d4d4d;fill-opacity:1;stroke:none;stroke-width:4;stroke-linecap:butt;stroke-linejoin:miter;stroke-miterlimit:4;stroke-dasharray:none;stroke-opacity:1"
       id="circle4913"
       cx="1096.0001"
       cy="955.3623"
       r="88" />
    <path
       id="path4915"
       d="m 1095.9766,911.75879 0,0.002 -1.5059,2.54297 -17.4433,29.70703 14.2422,13.21289 -0.1036,1.44726 c -0.7136,0.4179 -1.3713,0.92592 -1.955,1.51172 -5.5941,1.1789 -10.8684,3.51908 -15.7305,5.64258 -3.6039,1.5739 -6.913,3.84459 -9.8066,5.58789 -2.8937,1.7433 -5.3691,2.78741 -6.7227,2.63281 -7.7422,-0.8859 -15.7454,-8.40423 -17.0898,-9.77343 -1.0055,-1.1737 -2.4756,-1.85728 -4.0254,-1.85938 -2.9139,-3e-4 -5.3147,2.3948 -5.3145,5.3086 -10e-5,1.75979 0.8831,3.32256 2.2188,4.29296 l 70.9492,70.94921 a 87.999995,87.999995 0 0 0 75.6172,-59.50194 l -18.8555,-18.85547 c -0.9684,-1.3283 -2.5221,-2.20778 -4.2754,-2.20898 l 0,0 -0.01,0 c -1.0599,0 -2.0904,0.33448 -2.9668,0.92968 l 0,0 c -0.313,0.1847 -0.6117,0.39994 -0.8633,0.67774 l 0,0 c -0.014,0.015 -0.9299,0.92719 -2.3437,2.15039 l -54.0117,-54.39649 z"
       style="fill:#000000;fill-opacity:0.1254902;stroke:none;stroke-width:1.5;stroke-linecap:butt;stroke-linejoin:round;stroke-miterlimit:4;stroke-dasharray:none;stroke-opacity:1"
       inkscape:connector-curvature="0" />
    <path
       inkscape:connector-curvature="0"
       id="path4917"
       d="m 1095.9743,911.75864 -1.5054,2.54475 -17.4439,29.70808 15.0559,1.81031 -0.917,12.84831 a 9.6277829,9.6277829 0 0 0 -1.9542,1.51182 c -5.594,1.17892 -10.8681,3.52007 -15.7302,5.64354 -3.6039,1.5739 -6.9138,3.84445 -9.8075,5.58771 -2.8936,1.74328 -5.37,2.78744 -6.7237,2.63281 -7.7422,-0.88587 -15.7451,-8.40392 -17.0895,-9.77314 -1.0055,-1.1737 -2.4745,-1.8576 -4.0244,-1.8597 -2.9138,-2.9e-4 -5.3152,2.39475 -5.315,5.30854 -2e-4,2.91393 2.401,5.31725 5.315,5.31713 0.7877,-0.002 1.4174,-0.52066 2.1174,-0.85254 3.8667,3.3118 10.1433,7.75553 18.0774,8.66289 0.8833,0.10247 1.7663,0.12521 2.6457,0.10093 6.1536,-0.15711 12.0907,-2.98904 18.0022,-5.57268 3.6252,-1.58333 7.2526,-3.10305 10.7245,-4.17683 a 9.6277829,9.6277829 0 0 0 8.6349,5.38801 9.6277829,9.6277829 0 0 0 8.6157,-5.35364 c 3.4407,1.0721 7.0356,2.5756 10.6235,4.14246 6.7565,2.95093 13.5724,6.27392 20.6415,5.46532 8.0424,-0.91972 14.3239,-5.40468 18.1182,-8.67793 0.7061,0.33464 1.3347,0.86324 2.1302,0.86328 l 0.01,0.002 c 2.9132,-9.8e-4 5.3087,-2.40474 5.3086,-5.31714 -3e-4,-2.91269 -2.3955,-5.31411 -5.3086,-5.31498 l -0.01,0 c -1.0603,0.002 -2.0911,0.33635 -2.9678,0.932 -0.3136,0.18508 -0.6134,0.4022 -0.8654,0.68075 -0.047,0.0487 -8.8233,9.05913 -17.3343,10.03297 -1.3537,0.15344 -3.8301,-0.90434 -6.7238,-2.64783 -2.8936,-1.74312 -6.2036,-4.00718 -9.8075,-5.58127 -4.8187,-2.10448 -10.0381,-4.42251 -15.5755,-5.61134 a 9.6277829,9.6277829 0 0 0 -2.1132,-1.61489 l -0.9062,-12.77743 15.0559,-1.80388 -18.9535,-32.24854 z"
       style="fill:#ffffff;fill-opacity:1;stroke:none;stroke-width:1.5;stroke-linecap:butt;stroke-linejoin:round;stroke-miterlimit:4;stroke-dasharray:none;stroke-opacity:1" />
    <circle
       style="fill:#ececec;fill-opacity:1;stroke:none;stroke-width:4;stroke-linecap:butt;stroke-linejoin:miter;stroke-miterlimit:4;stroke-dasharray:none;stroke-opacity:1"
       id="circle4919"
       cx="-304"
       cy="757.3623"
       r="88" />
    <g
       id="g4995">
      <circle
         style="fill:#f9f9f9;fill-opacity:1;stroke:none;stroke-width:4;stroke-linecap:butt;stroke-linejoin:miter;stroke-miterlimit:4;stroke-dasharray:none;stroke-opacity:1"
         id="circle4921"
         cx="-304"
         cy="755.3623"
         r="88" />
    </g>
    <g
       id="g4925"
       transform="matrix(1.6846372,0,0,1.6846372,382.38028,150.37942)">
      <path
         d="m -442.81429,350.51424 a 40.929768,40.929768 0 0 1 35.44622,-20.46488 l 0,40.92977 z"
         sodipodi:end="4.712389"
         sodipodi:start="3.6651914"
         sodipodi:ry="40.929768"
         sodipodi:rx="40.929768"
         sodipodi:cy="370.97913"
         sodipodi:cx="-407.36807"
         sodipodi:type="arc"
         id="path4927"
         style="fill:#ff6600;fill-opacity:1;stroke:none;stroke-width:10.00000095;stroke-linecap:butt;stroke-linejoin:round;stroke-miterlimit:4;stroke-dasharray:none;stroke-opacity:1" />
      <path
         style="fill:#ffcc00;fill-opacity:1;stroke:none;stroke-width:10.00000095;stroke-linecap:butt;stroke-linejoin:round;stroke-miterlimit:4;stroke-dasharray:none;stroke-opacity:1"
         id="path4929"
         sodipodi:type="arc"
         sodipodi:cx="-407.36807"
         sodipodi:cy="370.97913"
         sodipodi:rx="40.929768"
         sodipodi:ry="40.929768"
         sodipodi:start="4.712389"
         sodipodi:end="5.4977871"
         d="m -407.36807,330.04936 a 40.929768,40.929768 0 0 1 28.94171,11.98805 l -28.94171,28.94172 z" />
      <path
         d="m -378.42636,342.03741 a 40.929768,40.929768 0 0 1 6.50451,8.47683 l -35.44622,20.46489 z"
         sodipodi:end="5.7595865"
         sodipodi:start="5.4977871"
         sodipodi:ry="40.929768"
         sodipodi:rx="40.929768"
         sodipodi:cy="370.97913"
         sodipodi:cx="-407.36807"
         sodipodi:type="arc"
         id="path4931"
         style="fill:#55d400;fill-opacity:1;stroke:none;stroke-width:10.00000095;stroke-linecap:butt;stroke-linejoin:round;stroke-miterlimit:4;stroke-dasharray:none;stroke-opacity:1" />
    </g>
    <path
       style="fill:#000000;fill-opacity:0.03137255;stroke:none;stroke-width:1.5;stroke-linecap:butt;stroke-linejoin:round;stroke-miterlimit:4;stroke-dasharray:none;stroke-opacity:1"
       d="M -304.02344 -142.60352 L -304.02539 -142.60156 L -305.53125 -140.05859 L -322.97461 -110.35156 L -308.73242 -97.138672 L -308.83594 -95.691406 C -309.54956 -95.273506 -310.20726 -94.765487 -310.79102 -94.179688 C -316.3851 -93.000788 -321.65938 -90.660609 -326.52148 -88.537109 C -330.12538 -86.963209 -333.43448 -84.692519 -336.32812 -82.949219 C -339.22176 -81.205919 -341.69715 -80.161806 -343.05078 -80.316406 C -350.793 -81.202306 -358.79619 -88.720644 -360.14062 -90.089844 C -361.14605 -91.263544 -362.61618 -91.947119 -364.16602 -91.949219 C -367.07986 -91.949519 -369.4807 -89.554425 -369.48047 -86.640625 C -369.48061 -84.880825 -368.59735 -83.318056 -367.26172 -82.347656 L -301.98633 -17.072266 A 87.999995 87.999995 0 0 0 -222.29883 -72.503906 L -239.55078 -89.755859 C -240.51914 -91.084159 -242.0729 -91.963644 -243.82617 -91.964844 L -243.82812 -91.964844 L -243.83398 -91.964844 C -244.89385 -91.964844 -245.92439 -91.630356 -246.80078 -91.035156 L -246.80273 -91.035156 C -247.11575 -90.850456 -247.4144 -90.635222 -247.66602 -90.357422 L -247.66797 -90.357422 C -247.68247 -90.342422 -248.59786 -89.430231 -250.01172 -88.207031 L -304.02344 -142.60352 z "
       transform="translate(0,860.36231)"
       id="path4950" />
    <path
       style="fill:#333333;fill-opacity:1;stroke:none;stroke-width:1.5;stroke-linecap:butt;stroke-linejoin:round;stroke-miterlimit:4;stroke-dasharray:none;stroke-opacity:1"
       d="m -304.02579,717.7586 -1.50537,2.5448 -17.44389,29.7081 15.0559,1.8103 -0.91697,12.8483 a 9.6277829,9.6277829 0 0 0 -1.95419,1.5118 c -5.59408,1.1789 -10.8681,3.5201 -15.73021,5.6436 -3.6039,1.5739 -6.91385,3.8444 -9.80749,5.5877 -2.89364,1.7432 -5.37009,2.7874 -6.72372,2.6328 -7.74222,-0.8859 -15.74511,-8.4039 -17.08955,-9.7732 -1.00543,-1.1737 -2.47451,-1.8576 -4.02436,-1.8597 -2.91384,-3e-4 -5.31521,2.3948 -5.31498,5.3086 -2.4e-4,2.9139 2.40099,5.3172 5.31498,5.3171 0.78769,0 1.41736,-0.5207 2.11741,-0.8525 3.86666,3.3118 10.14331,7.7555 18.07738,8.6629 0.88331,0.1024 1.76629,0.1252 2.64568,0.1009 6.1536,-0.1571 12.09075,-2.9891 18.00223,-5.5727 3.62514,-1.5833 7.25255,-3.103 10.72446,-4.1768 a 9.6277829,9.6277829 0 0 0 8.63497,5.388 9.6277829,9.6277829 0 0 0 8.61564,-5.3537 c 3.44071,1.0721 7.03564,2.5756 10.62353,4.1425 6.75647,2.9509 13.57241,6.2739 20.64147,5.4653 8.0424,-0.9197 14.32389,-5.4047 18.11818,-8.6779 0.70612,0.3346 1.33477,0.8632 2.13029,0.8633 l 0.007,0 c 2.91319,-10e-4 5.30865,-2.4048 5.30855,-5.3172 -3e-4,-2.9127 -2.39554,-5.3141 -5.30855,-5.3149 l -0.007,0 c -1.06039,0 -2.09114,0.3363 -2.9678,0.932 -0.31363,0.185 -0.61349,0.4022 -0.86542,0.6807 -0.047,0.049 -8.82336,9.0591 -17.33437,10.033 -1.35363,0.1534 -3.83009,-0.9044 -6.72372,-2.6479 -2.89363,-1.7431 -6.20361,-4.0071 -9.8075,-5.5812 -4.81878,-2.1045 -10.03809,-4.4225 -15.57558,-5.6114 a 9.6277829,9.6277829 0 0 0 -2.11311,-1.6149 l -0.90623,-12.7774 15.0559,-1.8039 -18.95356,-32.2485 z"
       id="path4952"
       inkscape:connector-curvature="0" />
    <g
       id="g4998" />
    <circle
       r="88"
       cy="557.3623"
       cx="-304"
       id="circle5003"
       style="fill:#ececec;fill-opacity:1;stroke:none;stroke-width:4;stroke-linecap:butt;stroke-linejoin:miter;stroke-miterlimit:4;stroke-dasharray:none;stroke-opacity:1" />
    <g
       id="g5005"
       transform="translate(0,-200.00001)">
      <circle
         r="88"
         cy="755.3623"
         cx="-304"
         id="circle5007"
         style="fill:#f9f9f9;fill-opacity:1;stroke:none;stroke-width:4;stroke-linecap:butt;stroke-linejoin:miter;stroke-miterlimit:4;stroke-dasharray:none;stroke-opacity:1" />
    </g>
    <g
       transform="matrix(1.6846372,0,0,1.6846372,382.38028,-49.620588)"
       id="g5009"
       style="opacity:0.1">
      <path
         style="fill:#ff6600;fill-opacity:1;stroke:none;stroke-width:10.00000095;stroke-linecap:butt;stroke-linejoin:round;stroke-miterlimit:4;stroke-dasharray:none;stroke-opacity:1"
         id="path5011"
         sodipodi:type="arc"
         sodipodi:cx="-407.36807"
         sodipodi:cy="370.97913"
         sodipodi:rx="40.929768"
         sodipodi:ry="40.929768"
         sodipodi:start="3.6651914"
         sodipodi:end="4.712389"
         d="m -442.81429,350.51424 a 40.929768,40.929768 0 0 1 35.44622,-20.46488 l 0,40.92977 z" />
      <path
         d="m -407.36807,330.04936 a 40.929768,40.929768 0 0 1 28.94171,11.98805 l -28.94171,28.94172 z"
         sodipodi:end="5.4977871"
         sodipodi:start="4.712389"
         sodipodi:ry="40.929768"
         sodipodi:rx="40.929768"
         sodipodi:cy="370.97913"
         sodipodi:cx="-407.36807"
         sodipodi:type="arc"
         id="path5013"
         style="fill:#ffcc00;fill-opacity:1;stroke:none;stroke-width:10.00000095;stroke-linecap:butt;stroke-linejoin:round;stroke-miterlimit:4;stroke-dasharray:none;stroke-opacity:1" />
      <path
         style="fill:#55d400;fill-opacity:1;stroke:none;stroke-width:10.00000095;stroke-linecap:butt;stroke-linejoin:round;stroke-miterlimit:4;stroke-dasharray:none;stroke-opacity:1"
         id="path5015"
         sodipodi:type="arc"
         sodipodi:cx="-407.36807"
         sodipodi:cy="370.97913"
         sodipodi:rx="40.929768"
         sodipodi:ry="40.929768"
         sodipodi:start="5.4977871"
         sodipodi:end="5.7595865"
         d="m -378.42636,342.03741 a 40.929768,40.929768 0 0 1 6.50451,8.47683 l -35.44622,20.46489 z" />
    </g>
    <path
       id="path5017"
       d="m -304.02344,517.75879 -0.002,0.002 -1.50586,2.54297 -17.44336,29.70703 14.24219,13.21289 -0.10352,1.44726 c -0.71362,0.4179 -1.37132,0.92592 -1.95508,1.51172 -5.59408,1.1789 -10.86836,3.51908 -15.73046,5.64258 -3.6039,1.5739 -6.913,3.84459 -9.80664,5.58789 -2.89364,1.7433 -5.36903,2.78741 -6.72266,2.63281 -7.74222,-0.8859 -15.74541,-8.40424 -17.08984,-9.77344 -1.00543,-1.1737 -2.47556,-1.85727 -4.0254,-1.85937 -2.91384,-3e-4 -5.31468,2.39479 -5.31445,5.30859 -1.4e-4,1.7598 0.88312,3.32257 2.21875,4.29297 l 65.27539,65.27539 a 87.999995,87.999995 0 0 0 79.6875,-55.43164 l -17.25195,-17.25195 c -0.96836,-1.3283 -2.52212,-2.20779 -4.27539,-2.20899 l -0.002,0 -0.006,0 c -1.05987,0 -2.09041,0.33449 -2.9668,0.92969 l -0.002,0 c -0.31302,0.1847 -0.61167,0.39994 -0.86329,0.67774 l -0.002,0 c -0.0145,0.015 -0.92989,0.92719 -2.34375,2.15039 l -54.01172,-54.39649 z"
       style="fill:#000000;fill-opacity:0.03137255;stroke:none;stroke-width:1.5;stroke-linecap:butt;stroke-linejoin:round;stroke-miterlimit:4;stroke-dasharray:none;stroke-opacity:1"
       inkscape:connector-curvature="0" />
    <path
       inkscape:connector-curvature="0"
       id="path5019"
       d="m -304.02579,517.7586 -1.50537,2.5448 -17.44389,29.7081 15.0559,1.8103 -0.91697,12.8483 a 9.6277829,9.6277829 0 0 0 -1.95419,1.5118 c -5.59408,1.1789 -10.8681,3.5201 -15.73021,5.6436 -3.6039,1.5739 -6.91385,3.8444 -9.80749,5.5877 -2.89364,1.7432 -5.37009,2.7874 -6.72372,2.6328 -7.74222,-0.8859 -15.74511,-8.4039 -17.08955,-9.7732 -1.00543,-1.1737 -2.47451,-1.8576 -4.02436,-1.8597 -2.91384,-3e-4 -5.31521,2.3948 -5.31498,5.3086 -2.4e-4,2.9139 2.40099,5.3172 5.31498,5.3171 0.78769,0 1.41736,-0.5207 2.11741,-0.8525 3.86666,3.3118 10.14331,7.7555 18.07738,8.6629 0.88331,0.1024 1.76629,0.1252 2.64568,0.1009 6.1536,-0.1571 12.09075,-2.9891 18.00223,-5.5727 3.62514,-1.5833 7.25255,-3.103 10.72446,-4.1768 a 9.6277829,9.6277829 0 0 0 8.63497,5.388 9.6277829,9.6277829 0 0 0 8.61564,-5.3537 c 3.44071,1.0721 7.03564,2.5756 10.62353,4.1425 6.75647,2.9509 13.57241,6.2739 20.64147,5.4653 8.0424,-0.9197 14.32389,-5.4047 18.11818,-8.6779 0.70612,0.3346 1.33477,0.8632 2.13029,0.8633 l 0.007,0 c 2.91319,-10e-4 5.30865,-2.4048 5.30855,-5.3172 -3e-4,-2.9127 -2.39554,-5.3141 -5.30855,-5.3149 l -0.007,0 c -1.06039,0 -2.09114,0.3363 -2.9678,0.932 -0.31363,0.185 -0.61349,0.4022 -0.86542,0.6807 -0.047,0.049 -8.82336,9.0591 -17.33437,10.033 -1.35363,0.1534 -3.83009,-0.9044 -6.72372,-2.6479 -2.89363,-1.7431 -6.20361,-4.0071 -9.8075,-5.5812 -4.81878,-2.1045 -10.03809,-4.4225 -15.57558,-5.6114 a 9.6277829,9.6277829 0 0 0 -2.11311,-1.6149 l -0.90623,-12.7774 15.0559,-1.8039 -18.95356,-32.2485 z"
       style="fill:#333333;fill-opacity:1;stroke:none;stroke-width:1.5;stroke-linecap:butt;stroke-linejoin:round;stroke-miterlimit:4;stroke-dasharray:none;stroke-opacity:1" />
    <g
       id="g5021"
       transform="translate(0,-180.00001)" />
    <circle
       style="fill:#ececec;fill-opacity:1;stroke:none;stroke-width:4;stroke-linecap:butt;stroke-linejoin:miter;stroke-miterlimit:4;stroke-dasharray:none;stroke-opacity:1"
       id="circle5023"
       cx="-304"
       cy="357.3623"
       r="88" />
    <g
       transform="translate(0,-400.00001)"
       id="g5025">
      <circle
         style="fill:#f9f9f9;fill-opacity:1;stroke:none;stroke-width:4;stroke-linecap:butt;stroke-linejoin:miter;stroke-miterlimit:4;stroke-dasharray:none;stroke-opacity:1"
         id="circle5027"
         cx="-304"
         cy="755.3623"
         r="88" />
    </g>
    <g
       style="opacity:0.1"
       id="g5029"
       transform="matrix(1.6846372,0,0,1.6846372,382.38028,-249.62059)">
      <path
         d="m -442.81429,350.51424 a 40.929768,40.929768 0 0 1 35.44622,-20.46488 l 0,40.92977 z"
         sodipodi:end="4.712389"
         sodipodi:start="3.6651914"
         sodipodi:ry="40.929768"
         sodipodi:rx="40.929768"
         sodipodi:cy="370.97913"
         sodipodi:cx="-407.36807"
         sodipodi:type="arc"
         id="path5031"
         style="fill:#ff6600;fill-opacity:1;stroke:none;stroke-width:10.00000095;stroke-linecap:butt;stroke-linejoin:round;stroke-miterlimit:4;stroke-dasharray:none;stroke-opacity:1" />
      <path
         style="fill:#ffcc00;fill-opacity:1;stroke:none;stroke-width:10.00000095;stroke-linecap:butt;stroke-linejoin:round;stroke-miterlimit:4;stroke-dasharray:none;stroke-opacity:1"
         id="path5033"
         sodipodi:type="arc"
         sodipodi:cx="-407.36807"
         sodipodi:cy="370.97913"
         sodipodi:rx="40.929768"
         sodipodi:ry="40.929768"
         sodipodi:start="4.712389"
         sodipodi:end="5.4977871"
         d="m -407.36807,330.04936 a 40.929768,40.929768 0 0 1 28.94171,11.98805 l -28.94171,28.94172 z" />
      <path
         d="m -378.42636,342.03741 a 40.929768,40.929768 0 0 1 6.50451,8.47683 l -35.44622,20.46489 z"
         sodipodi:end="5.7595865"
         sodipodi:start="5.4977871"
         sodipodi:ry="40.929768"
         sodipodi:rx="40.929768"
         sodipodi:cy="370.97913"
         sodipodi:cx="-407.36807"
         sodipodi:type="arc"
         id="path5035"
         style="fill:#55d400;fill-opacity:1;stroke:none;stroke-width:10.00000095;stroke-linecap:butt;stroke-linejoin:round;stroke-miterlimit:4;stroke-dasharray:none;stroke-opacity:1" />
    </g>
    <path
       style="fill:#333333;fill-opacity:1;stroke:none;stroke-width:1.5;stroke-linecap:butt;stroke-linejoin:round;stroke-miterlimit:4;stroke-dasharray:none;stroke-opacity:1"
       d="m -304.02579,317.7586 -1.50537,2.5448 -17.44389,29.7081 15.0559,1.8103 -0.91697,12.8483 a 9.6277829,9.6277829 0 0 0 -1.95419,1.5118 c -5.59408,1.1789 -10.8681,3.5201 -15.73021,5.6436 -3.6039,1.5739 -6.91385,3.8444 -9.80749,5.5877 -2.89364,1.7432 -5.37009,2.7874 -6.72372,2.6328 -7.74222,-0.8859 -15.74511,-8.4039 -17.08955,-9.7732 -1.00543,-1.1737 -2.47451,-1.8576 -4.02436,-1.8597 -2.91384,-3e-4 -5.31521,2.3948 -5.31498,5.3086 -2.4e-4,2.9139 2.40099,5.3172 5.31498,5.3171 0.78769,0 1.41736,-0.5207 2.11741,-0.8525 3.86666,3.3118 10.14331,7.7555 18.07738,8.6629 0.88331,0.1024 1.76629,0.1252 2.64568,0.1009 6.1536,-0.1571 12.09075,-2.9891 18.00223,-5.5727 3.62514,-1.5833 7.25255,-3.103 10.72446,-4.1768 a 9.6277829,9.6277829 0 0 0 8.63497,5.388 9.6277829,9.6277829 0 0 0 8.61564,-5.3537 c 3.44071,1.0721 7.03564,2.5756 10.62353,4.1425 6.75647,2.9509 13.57241,6.2739 20.64147,5.4653 8.0424,-0.9197 14.32389,-5.4047 18.11818,-8.6779 0.70612,0.3346 1.33477,0.8632 2.13029,0.8633 l 0.007,0 c 2.91319,-10e-4 5.30865,-2.4048 5.30855,-5.3172 -3e-4,-2.9127 -2.39554,-5.3141 -5.30855,-5.3149 l -0.007,0 c -1.06039,0 -2.09114,0.3363 -2.9678,0.932 -0.31363,0.185 -0.61349,0.4022 -0.86542,0.6807 -0.047,0.049 -8.82336,9.0591 -17.33437,10.033 -1.35363,0.1534 -3.83009,-0.9044 -6.72372,-2.6479 -2.89363,-1.7431 -6.20361,-4.0071 -9.8075,-5.5812 -4.81878,-2.1045 -10.03809,-4.4225 -15.57558,-5.6114 a 9.6277829,9.6277829 0 0 0 -2.11311,-1.6149 l -0.90623,-12.7774 15.0559,-1.8039 -18.95356,-32.2485 z"
       id="path5039"
       inkscape:connector-curvature="0" />
    <circle
       r="88"
       cy="157.3623"
       cx="96.000122"
       id="circle5041"
       style="fill:#cccccc;fill-opacity:1;stroke:none;stroke-width:4;stroke-linecap:butt;stroke-linejoin:miter;stroke-miterlimit:4;stroke-dasharray:none;stroke-opacity:1" />
    <circle
       style="fill:#e8e8e8;fill-opacity:1;stroke:none;stroke-width:4;stroke-linecap:butt;stroke-linejoin:miter;stroke-miterlimit:4;stroke-dasharray:none;stroke-opacity:1"
       id="circle5043"
       cx="96.000122"
       cy="155.3623"
       r="88" />
    <path
       id="path5045"
       d="m 95.976599,111.75879 0,0.002 -1.5059,2.54297 -17.443401,29.70703 14.242201,13.21289 -0.1035,1.44726 c -0.7136,0.4179 -1.3713,0.92592 -1.9551,1.51172 -5.594,1.1789 -10.868301,3.51908 -15.730401,5.64258 -3.6039,1.5739 -6.913,3.84459 -9.8067,5.58789 -2.8936,1.7433 -5.369001,2.78741 -6.722601,2.63281 -7.7422,-0.8859 -15.7454,-8.40423 -17.089901,-9.77343 -1.0054,-1.1737 -2.4755,-1.85728 -4.0253,-1.85938 -2.9139,-3e-4 -5.3147,2.3948 -5.3145,5.3086 -10e-5,1.75979 0.8831,3.32256 2.2188,4.29296 L 103.6895,242.9639 a 87.999995,87.999995 0 0 0 75.6171,-59.50194 l -18.8554,-18.85547 c -0.9684,-1.3283 -2.5221,-2.20778 -4.2754,-2.20898 l 0,0 -0.01,0 c -1.0599,0 -2.0904,0.33448 -2.9668,0.92968 l 0,0 c -0.313,0.1847 -0.6117,0.39994 -0.8633,0.67774 l 0,0 c -0.014,0.015 -0.9299,0.92719 -2.3438,2.15039 L 95.980199,111.75883 Z"
       style="fill:#000000;fill-opacity:0.04705882;stroke:none;stroke-width:1.5;stroke-linecap:butt;stroke-linejoin:round;stroke-miterlimit:4;stroke-dasharray:none;stroke-opacity:1"
       inkscape:connector-curvature="0" />
    <circle
       style="fill:#4d4d4d;fill-opacity:1;stroke:none;stroke-width:4;stroke-linecap:butt;stroke-linejoin:miter;stroke-miterlimit:4;stroke-dasharray:none;stroke-opacity:1"
       id="circle5049"
       cx="1296.0001"
       cy="957.3623"
       r="88" />
    <circle
       r="88"
       cy="955.3623"
       cx="1296.0001"
       id="circle5051"
       style="fill:#1a1a1a;fill-opacity:1;stroke:none;stroke-width:4;stroke-linecap:butt;stroke-linejoin:miter;stroke-miterlimit:4;stroke-dasharray:none;stroke-opacity:1" />
    <path
       inkscape:connector-curvature="0"
       style="fill:#000000;fill-opacity:1;stroke:none;stroke-width:1.5;stroke-linecap:butt;stroke-linejoin:round;stroke-miterlimit:4;stroke-dasharray:none;stroke-opacity:1"
       d="m 1295.9766,911.75879 0,0.002 -1.5059,2.54297 -17.4433,29.70703 14.2422,13.21289 -0.1036,1.44726 c -0.7136,0.4179 -1.3713,0.92592 -1.955,1.51172 -5.5941,1.1789 -10.8684,3.51908 -15.7305,5.64258 -3.6039,1.5739 -6.913,3.84459 -9.8066,5.58789 -2.8937,1.7433 -5.3691,2.78741 -6.7227,2.63281 -7.7422,-0.8859 -15.7454,-8.40423 -17.0898,-9.77343 -1.0055,-1.1737 -2.4756,-1.85728 -4.0254,-1.85938 -2.9139,-3e-4 -5.3147,2.3948 -5.3145,5.3086 -10e-5,1.75979 0.8831,3.32256 2.2188,4.29296 l 70.9492,70.94921 a 87.999995,87.999995 0 0 0 75.6172,-59.50194 l -18.8555,-18.85547 c -0.9684,-1.3283 -2.5221,-2.20778 -4.2754,-2.20898 l 0,0 -0.01,0 c -1.0599,0 -2.0904,0.33448 -2.9668,0.92968 l 0,0 c -0.313,0.1847 -0.6117,0.39994 -0.8633,0.67774 l 0,0 c -0.014,0.015 -0.9299,0.92719 -2.3437,2.15039 l -54.0117,-54.39649 z"
       id="path5053" />
    <path
       style="fill:#ffffff;fill-opacity:1;stroke:none;stroke-width:1.5;stroke-linecap:butt;stroke-linejoin:round;stroke-miterlimit:4;stroke-dasharray:none;stroke-opacity:1"
       d="m 1295.9743,911.75864 -1.5054,2.54475 -17.4439,29.70808 15.0559,1.81031 -0.917,12.84831 a 9.6277829,9.6277829 0 0 0 -1.9542,1.51182 c -5.594,1.17892 -10.8681,3.52007 -15.7302,5.64354 -3.6039,1.5739 -6.9138,3.84445 -9.8075,5.58771 -2.8936,1.74328 -5.37,2.78744 -6.7237,2.63281 -7.7422,-0.88587 -15.7451,-8.40392 -17.0895,-9.77314 -1.0055,-1.1737 -2.4745,-1.8576 -4.0244,-1.8597 -2.9138,-2.9e-4 -5.3152,2.39475 -5.315,5.30854 -2e-4,2.91393 2.401,5.31725 5.315,5.31713 0.7877,-0.002 1.4174,-0.52066 2.1174,-0.85254 3.8667,3.3118 10.1433,7.75553 18.0774,8.66289 0.8833,0.10247 1.7663,0.12521 2.6457,0.10093 6.1536,-0.15711 12.0907,-2.98904 18.0022,-5.57268 3.6252,-1.58333 7.2526,-3.10305 10.7245,-4.17683 a 9.6277829,9.6277829 0 0 0 8.6349,5.38801 9.6277829,9.6277829 0 0 0 8.6157,-5.35364 c 3.4407,1.0721 7.0356,2.5756 10.6235,4.14246 6.7565,2.95093 13.5724,6.27392 20.6415,5.46532 8.0424,-0.91972 14.3239,-5.40468 18.1182,-8.67793 0.7061,0.33464 1.3347,0.86324 2.1302,0.86328 l 0.01,0.002 c 2.9132,-9.8e-4 5.3087,-2.40474 5.3086,-5.31714 -3e-4,-2.91269 -2.3955,-5.31411 -5.3086,-5.31498 l -0.01,0 c -1.0603,0.002 -2.0911,0.33635 -2.9678,0.932 -0.3136,0.18508 -0.6134,0.4022 -0.8654,0.68075 -0.047,0.0487 -8.8233,9.05913 -17.3343,10.03297 -1.3537,0.15344 -3.8301,-0.90434 -6.7238,-2.64783 -2.8936,-1.74312 -6.2036,-4.00718 -9.8075,-5.58127 -4.8187,-2.10448 -10.0381,-4.42251 -15.5755,-5.61134 a 9.6277829,9.6277829 0 0 0 -2.1132,-1.61489 l -0.9062,-12.77743 15.0559,-1.80388 -18.9535,-32.24854 z"
       id="path5055"
       inkscape:connector-curvature="0" />
    <path
       inkscape:transform-center-x="-2.5390151"
       inkscape:transform-center-y="-10.507975"
       inkscape:connector-curvature="0"
       id="path5057"
       d="m 95.973089,111.70878 -1.504401,2.54569 -17.44713,29.71348 15.057716,1.81107 -1.000636,14.016 c -0.101503,-0.009 -0.172434,0.0462 -0.27904,0.0351 l -0.0066,-5.1e-4 -0.01375,7e-5 c -6.182,1.03584 -11.987505,3.63457 -17.304068,5.95653 -3.60457,1.57419 -6.915133,3.84502 -9.809313,5.58861 -2.89418,1.7436 -5.371702,2.78921 -6.725587,2.63455 -7.743664,-0.88604 -15.748421,-8.40594 -17.093111,-9.77542 l 0.115403,0.12783 c -1.006409,-1.25555 -2.531012,-1.98545 -4.138808,-1.98762 -2.914382,-2.9e-4 -5.316794,2.39489 -5.316563,5.30921 -2.42e-4,2.91448 2.402016,5.31691 5.316552,5.31679 0.787831,-0.002 1.416501,-0.52027 2.116675,-0.85221 3.867389,3.31242 10.14457,7.75802 18.080122,8.66555 0.883473,0.10249 1.768507,0.12546 2.648065,0.10117 6.154739,-0.15714 12.092605,-2.99123 18.005188,-5.57535 4.79418,-2.09393 9.592791,-4.07755 14.02983,-5.0644 0.705836,0.39217 2.516892,1.52774 5.207593,1.62007 2.804927,0.0938 4.557194,-1.16341 5.302954,-1.6266 4.4446,0.98522 9.25918,2.97328 14.06383,5.07152 6.75773,2.95147 13.57605,6.27459 20.64642,5.46583 8.0439,-0.91988 14.32597,-5.40534 18.12097,-8.67919 0.70624,0.33469 1.33502,0.86478 2.1307,0.86482 l 0.007,4.4e-4 c 2.91374,-9.8e-4 5.3098,-2.40349 5.30971,-5.31643 -3e-4,-2.91324 -2.39608,-5.31558 -5.30965,-5.31644 l -0.007,-4.4e-4 c -1.06059,0.002 -2.09125,0.33663 -2.96807,0.93238 -0.31369,0.18512 -0.61246,0.40228 -0.86445,0.68088 -0.0469,0.0487 -8.82553,9.05995 -17.33812,10.03397 -1.35389,0.15347 -3.83148,-0.90451 -6.72564,-2.64832 -2.89417,-1.74344 -6.20476,-4.00785 -9.80932,-5.58223 -5.31814,-2.32256 -11.12027,-4.92065 -17.30403,-5.95585 l -0.0137,1e-4 -0.0138,9e-5 c -0.0964,-0.01 -0.17972,-0.0349 -0.27242,-0.0352 l -0.993859,-14.01631 15.057669,-1.80408 -18.958195,-32.25929 z m 1.1e-5,54.53978 c 0.032,-0.008 0.02529,-0.007 0.02749,0.0431 2.09e-4,0.036 0.0066,0.0343 -0.02507,0.0428 -0.03266,0.009 -0.02562,0.007 -0.02727,-0.0358 -2.2e-4,-0.036 -0.0077,-0.0413 0.02683,-0.0432 z"
       style="color:#000000;font-style:normal;font-variant:normal;font-weight:normal;font-stretch:normal;font-size:medium;line-height:normal;font-family:sans-serif;text-indent:0;text-align:start;text-decoration:none;text-decoration-line:none;text-decoration-style:solid;text-decoration-color:#000000;letter-spacing:normal;word-spacing:normal;text-transform:none;direction:ltr;block-progression:tb;writing-mode:lr-tb;baseline-shift:baseline;text-anchor:start;white-space:normal;clip-rule:nonzero;display:inline;overflow:visible;visibility:visible;opacity:1;isolation:auto;mix-blend-mode:normal;color-interpolation:sRGB;color-interpolation-filters:linearRGB;solid-color:#000000;solid-opacity:1;fill:#333333;fill-opacity:1;fill-rule:evenodd;stroke:none;stroke-width:1.00000012;stroke-linecap:round;stroke-linejoin:miter;stroke-miterlimit:4;stroke-dasharray:none;stroke-dashoffset:0;stroke-opacity:1;color-rendering:auto;image-rendering:auto;shape-rendering:auto;text-rendering:auto;enable-background:accumulate" />
    <circle
       style="fill:#ececec;fill-opacity:1;stroke:none;stroke-width:4;stroke-linecap:butt;stroke-linejoin:miter;stroke-miterlimit:4;stroke-dasharray:none;stroke-opacity:1"
       id="circle5059"
       cx="96.000122"
       cy="-42.637703"
       r="88" />
    <circle
       r="88"
       cy="-44.637703"
       cx="96.000122"
       id="circle5061"
       style="fill:#e8e8e8;fill-opacity:1;stroke:none;stroke-width:4;stroke-linecap:butt;stroke-linejoin:miter;stroke-miterlimit:4;stroke-dasharray:none;stroke-opacity:1" />
    <path
       inkscape:connector-curvature="0"
       style="fill:#000000;fill-opacity:0.04705882;stroke:none;stroke-width:1.5;stroke-linecap:butt;stroke-linejoin:round;stroke-miterlimit:4;stroke-dasharray:none;stroke-opacity:1"
       d="m 95.976599,-88.241231 0,0.002 -1.5059,2.54297 -17.443401,29.707031 14.242201,13.21289 -0.1035,1.44726 c -0.7136,0.4179 -1.3713,0.92592 -1.9551,1.51172 -5.594,1.1789 -10.868301,3.51908 -15.730401,5.64258 -3.6039,1.5739 -6.913,3.84459 -9.8067,5.58789 -2.8936,1.7433 -5.369001,2.78741 -6.722601,2.63281 -7.7422,-0.8859 -15.7454,-8.40423 -17.089901,-9.77343 -1.0054,-1.1737 -2.4755,-1.85728 -4.0253,-1.85938 -2.9139,-3e-4 -5.3147,2.3948 -5.3145,5.3086 -10e-5,1.75979 0.8831,3.32256 2.2188,4.29296 L 103.6895,42.963887 a 87.999995,87.999995 0 0 0 75.6171,-59.501947 l -18.8554,-18.85547 c -0.9684,-1.3283 -2.5221,-2.20778 -4.2754,-2.20898 l 0,0 -0.01,0 c -1.0599,0 -2.0904,0.33448 -2.9668,0.92968 l 0,0 c -0.313,0.1847 -0.6117,0.39994 -0.8633,0.67774 l 0,0 c -0.014,0.015 -0.9299,0.92719 -2.3438,2.15039 L 95.980199,-88.241191 Z"
       id="path5063" />
    <path
       style="fill:#333333;fill-opacity:1;stroke:none;stroke-width:1.5;stroke-linecap:butt;stroke-linejoin:round;stroke-miterlimit:4;stroke-dasharray:none;stroke-opacity:1"
       d="m 95.974199,-88.241381 -1.5053,2.54475 -17.443901,29.708081 15.055901,1.81031 -0.917,12.84831 a 9.6277829,9.6277829 0 0 0 -1.9542,1.51182 c -5.5941,1.17892 -10.868101,3.52007 -15.730201,5.64354 -3.6039,1.5739 -6.9138,3.84445 -9.8075,5.58771 -2.8936,1.74328 -5.370101,2.78744 -6.723701,2.63281 -7.7422,-0.88587 -15.7451,-8.40392 -17.089601,-9.77314 -1.0054,-1.1737 -2.4745,-1.8576 -4.0243,-1.8597 -2.9138,-2.9e-4 -5.3152,2.39475 -5.315,5.30854 -2e-4,2.91393 2.401,5.31725 5.315,5.31713 0.7877,-0.002 1.4174,-0.52066 2.1174,-0.85254 3.866701,3.3118 10.143301,7.75553 18.077401,8.66289 0.8833,0.10247 1.7663,0.12521 2.6457,0.10093 6.153501,-0.15711 12.090701,-2.98904 18.002201,-5.57268 3.625101,-1.58333 7.252501,-3.10305 10.724401,-4.17683 a 9.6277829,9.6277829 0 0 0 8.635,5.38801 9.6277829,9.6277829 0 0 0 8.615601,-5.35364 c 3.4408,1.0721 7.0357,2.5756 10.6236,4.14246 6.7564,2.95093 13.5724,6.27392 20.6414,5.46532 8.0424,-0.91972 14.3239,-5.40468 18.1182,-8.67793 0.7061,0.33464 1.3348,0.86324 2.1303,0.86328 l 0.01,0.002 c 2.9132,-9.8e-4 5.3087,-2.40474 5.3086,-5.31714 -3e-4,-2.91269 -2.3956,-5.31411 -5.3086,-5.31498 l -0.01,0 c -1.0604,0.002 -2.0911,0.33635 -2.9678,0.932 -0.3136,0.18508 -0.6135,0.4022 -0.8654,0.68075 -0.047,0.0487 -8.8234,9.05913 -17.3344,10.03297 -1.3536,0.15344 -3.8301,-0.90434 -6.7237,-2.64783 -2.8936,-1.74312 -6.2036,-4.00718 -9.8075,-5.58127 -4.8188,-2.10448 -10.0381,-4.42251 -15.5756,-5.61134 a 9.6277829,9.6277829 0 0 0 -2.1131,-1.61489 L 99.871899,-54.18911 114.9278,-55.99299 95.974199,-88.241531 Z"
       id="path5065"
       inkscape:connector-curvature="0" />
    <circle
       style="fill:#cccccc;fill-opacity:1;stroke:none;stroke-width:4;stroke-linecap:butt;stroke-linejoin:miter;stroke-miterlimit:4;stroke-dasharray:none;stroke-opacity:1"
       id="circle5069"
       cx="96.000122"
       cy="357.3623"
       r="88" />
    <circle
       r="88"
       cy="355.3623"
       cx="96.000122"
       id="circle5071"
       style="fill:#e8e8e8;fill-opacity:1;stroke:none;stroke-width:4;stroke-linecap:butt;stroke-linejoin:miter;stroke-miterlimit:4;stroke-dasharray:none;stroke-opacity:1" />
    <path
       style="opacity:1;fill:#ffffff;fill-opacity:1;stroke:none;stroke-width:0.80140841;stroke-linecap:butt;stroke-linejoin:miter;stroke-miterlimit:4;stroke-dasharray:none;stroke-dashoffset:0;stroke-opacity:1"
       d="m 96,267.36231 a 87.999995,87.999995 0 0 0 -88,88 87.999995,87.999995 0 0 0 88,87.99999 l 0,-175.99999 z"
       id="rect5077"
       inkscape:connector-curvature="0" />
    <path
       inkscape:connector-curvature="0"
       style="fill:#000000;fill-opacity:0.04705882;stroke:none;stroke-width:1.5;stroke-linecap:butt;stroke-linejoin:round;stroke-miterlimit:4;stroke-dasharray:none;stroke-opacity:1"
       d="m 95.976599,311.7588 0,0 -1.5059,2.543 -17.443401,29.707 14.242201,13.2129 -0.1035,1.4472 c -0.7136,0.4179 -1.3713,0.926 -1.9551,1.5118 -5.594,1.1789 -10.868301,3.519 -15.730401,5.6425 -3.6039,1.5739 -6.913,3.8446 -9.8067,5.5879 -2.8936,1.7433 -5.369001,2.7874 -6.722601,2.6328 -7.7422,-0.8859 -15.7454,-8.4042 -17.089901,-9.7734 -1.0054,-1.1737 -2.4755,-1.8573 -4.0253,-1.8594 -2.9139,-3e-4 -5.3147,2.3948 -5.3145,5.3086 -10e-5,1.7598 0.8831,3.3226 2.2188,4.293 L 103.6895,442.9619 A 87.999995,87.999995 0 0 0 179.3066,383.46 l -18.8554,-18.8555 c -0.9684,-1.3283 -2.5221,-2.2078 -4.2754,-2.209 l 0,0 -0.01,0 c -1.0599,0 -2.0904,0.3345 -2.9668,0.9297 l 0,0 c -0.313,0.1847 -0.6117,0.3999 -0.8633,0.6777 l 0,0 c -0.014,0.015 -0.9299,0.9272 -2.3438,2.1504 L 95.980199,311.7568 Z"
       id="path5073" />
    <path
       style="color:#000000;font-style:normal;font-variant:normal;font-weight:normal;font-stretch:normal;font-size:medium;line-height:normal;font-family:sans-serif;text-indent:0;text-align:start;text-decoration:none;text-decoration-line:none;text-decoration-style:solid;text-decoration-color:#000000;letter-spacing:normal;word-spacing:normal;text-transform:none;direction:ltr;block-progression:tb;writing-mode:lr-tb;baseline-shift:baseline;text-anchor:start;white-space:normal;clip-rule:nonzero;display:inline;overflow:visible;visibility:visible;opacity:1;isolation:auto;mix-blend-mode:normal;color-interpolation:sRGB;color-interpolation-filters:linearRGB;solid-color:#000000;solid-opacity:1;fill:#666666;fill-opacity:1;fill-rule:evenodd;stroke:none;stroke-width:1.00000012;stroke-linecap:round;stroke-linejoin:miter;stroke-miterlimit:4;stroke-dasharray:none;stroke-dashoffset:0;stroke-opacity:1;color-rendering:auto;image-rendering:auto;shape-rendering:auto;text-rendering:auto;enable-background:accumulate"
       d="m 95.973089,311.70878 -1.5044,2.54569 -17.447131,29.71348 15.057721,1.81107 -1.00064,14.016 c -0.1015,-0.009 -0.17243,0.0462 -0.27904,0.0351 l -0.007,-5.1e-4 -0.0138,7e-5 c -6.182,1.03584 -11.987506,3.63457 -17.304069,5.95653 -3.60457,1.57419 -6.915133,3.84502 -9.809313,5.58861 -2.89418,1.7436 -5.371702,2.78921 -6.725587,2.63455 -7.743664,-0.88604 -15.748421,-8.40594 -17.093111,-9.77542 l 0.115403,0.12783 c -1.006409,-1.25555 -2.531012,-1.98545 -4.138808,-1.98762 -2.914382,-2.9e-4 -5.316794,2.39489 -5.316563,5.30921 -2.42e-4,2.91448 2.402016,5.31691 5.316552,5.31679 0.787831,-0.002 1.416501,-0.52027 2.116675,-0.85221 3.867389,3.31242 10.14457,7.75802 18.080122,8.66555 0.883473,0.10249 1.768507,0.12546 2.648065,0.10117 6.154739,-0.15714 12.092605,-2.99123 18.005188,-5.57535 4.794176,-2.09393 9.592796,-4.07755 14.029826,-5.0644 0.70584,0.39217 2.5169,1.52774 5.2076,1.62007 2.80492,0.0938 4.557191,-1.16341 5.302951,-1.6266 4.4446,0.98522 9.25918,2.97328 14.06383,5.07152 6.75773,2.95147 13.57605,6.27459 20.64642,5.46583 8.0439,-0.91988 14.32597,-5.40534 18.12097,-8.67919 0.70624,0.33469 1.33502,0.86478 2.1307,0.86482 l 0.007,4.4e-4 c 2.91374,-9.8e-4 5.3098,-2.40349 5.30971,-5.31643 -3e-4,-2.91324 -2.39608,-5.31558 -5.30965,-5.31644 l -0.007,-4.4e-4 c -1.06059,0.002 -2.09125,0.33663 -2.96807,0.93238 -0.31369,0.18512 -0.61246,0.40228 -0.86445,0.68088 -0.0469,0.0487 -8.82553,9.05995 -17.33812,10.03397 -1.35389,0.15347 -3.83148,-0.90451 -6.72564,-2.64832 -2.89417,-1.74344 -6.20476,-4.00785 -9.80932,-5.58223 -5.31814,-2.32256 -11.12027,-4.92065 -17.30403,-5.95585 l -0.0137,1e-4 -0.0138,9e-5 c -0.0964,-0.01 -0.17972,-0.0349 -0.27242,-0.0352 l -0.993861,-14.01631 15.057671,-1.80408 -18.958191,-32.25929 z m 1e-5,54.53978 c 0.032,-0.008 0.0253,-0.007 0.0275,0.0431 2.1e-4,0.036 0.007,0.0343 -0.0251,0.0428 -0.0327,0.009 -0.0256,0.007 -0.0273,-0.0358 -2.2e-4,-0.036 -0.008,-0.0413 0.0268,-0.0432 z"
       id="path5075"
       inkscape:connector-curvature="0"
       inkscape:transform-center-y="-10.507975"
       inkscape:transform-center-x="-2.5390151" />
    <path
       style="fill:#ffcc00"
       inkscape:connector-curvature="0"
       clip-path="url(#b)"
       d="m 0.03401417,1586.8363 -20.04541017,0 0,5.7192 20.04541017,0 0,8.5786 11.40957983,-11.4382 -11.40957983,-11.4382 0,8.5786 z m 17.10008883,-2.8595 0,-8.5786 20.045408,0 0,-5.7192 -20.045408,0 0,-8.5786 -11.4095888,11.4382 11.4095888,11.4382 z"
       id="path5338" />
    <path
       style="fill:#ff6600"
       inkscape:connector-curvature="0"
       d="m 111.19721,1563.4622 -4.03196,-4.032 -15.984863,15.9849 -15.984862,-15.9849 -4.03196,4.032 15.984862,15.9848 -15.984862,15.985 4.03196,4.0319 15.984862,-15.9848 15.984863,15.9848 4.03196,-4.0319 -15.984864,-15.985 z"
       id="path5400" />
    <path
       style="fill:none"
       inkscape:connector-curvature="0"
       d="m -46.722609,1577.0868 48.7240272,0 0,48.724 -48.7240272,0 z"
       id="path5402" />
    <path
       style="fill:none"
       inkscape:connector-curvature="0"
       d="m 62.166169,1543.0589 48.724031,0 0,48.724 -48.724031,0 z"
       id="path5466" />
    <path
       style="fill:#55d400"
       inkscape:connector-curvature="0"
       d="m 171.05145,1589.4784 -11.92431,-11.9243 -4.06056,4.0321 15.98487,15.9848 34.31454,-34.3146 -4.03195,-4.032 z"
       id="path5468" />
    <path
       id="path5494"
       d="m 71.290232,308.32795 -3.360183,-3.36022 -13.321579,13.32161 -13.321577,-13.32161 -3.360184,3.36022 13.321578,13.32152 -13.321578,13.3217 3.360184,3.36013 13.321577,-13.32153 13.321579,13.32153 3.360183,-3.36013 -13.321579,-13.3217 z"
       inkscape:connector-curvature="0"
       style="fill:#e8e8e8;fill-opacity:1" />
    <path
       id="path5496"
       d="m 131.22862,330.00951 -9.93757,-9.93755 -3.38402,3.3603 13.32159,13.32152 28.59729,-28.59734 -3.36017,-3.36022 z"
       inkscape:connector-curvature="0"
       style="fill:#ffffff" />
    <circle
       r="88"
       cy="557.3623"
       cx="96.000122"
       id="circle5498"
       style="fill:#cccccc;fill-opacity:1;stroke:none;stroke-width:4;stroke-linecap:butt;stroke-linejoin:miter;stroke-miterlimit:4;stroke-dasharray:none;stroke-opacity:1" />
    <circle
       style="fill:#e8e8e8;fill-opacity:1;stroke:none;stroke-width:4;stroke-linecap:butt;stroke-linejoin:miter;stroke-miterlimit:4;stroke-dasharray:none;stroke-opacity:1"
       id="circle5500"
       cx="96.000122"
       cy="555.3623"
       r="88" />
    <path
       inkscape:connector-curvature="0"
       id="path5502"
       d="m 96,467.36231 a 87.999995,87.999995 0 0 0 -88,88 87.999995,87.999995 0 0 0 88,87.99999 l 0,-175.99999 z"
       style="opacity:1;fill:#ffffff;fill-opacity:1;stroke:none;stroke-width:0.80140841;stroke-linecap:butt;stroke-linejoin:miter;stroke-miterlimit:4;stroke-dasharray:none;stroke-dashoffset:0;stroke-opacity:1" />
    <path
       inkscape:connector-curvature="0"
       style="fill:#000000;fill-opacity:0.03921569;stroke:none;stroke-width:1.5;stroke-linecap:butt;stroke-linejoin:round;stroke-miterlimit:4;stroke-dasharray:none;stroke-opacity:1"
       d="m 95.980469,525.75684 -0.0039,0.002 -1.505859,2.54297 -17.443359,29.70703 14.242187,13.2129 -0.103515,1.44726 c -0.7136,0.4179 -1.371279,0.92592 -1.955078,1.51172 -5.594,1.1789 -10.86837,3.51908 -15.730469,5.64258 -3.6039,1.5739 -6.912941,3.84459 -9.806641,5.58789 -2.8936,1.7433 -5.369056,2.78741 -6.722656,2.63281 -7.7422,-0.8859 -15.745343,-8.40424 -17.089844,-9.77344 -1.0054,-1.1737 -2.475591,-1.85727 -4.02539,-1.85937 -2.9139,-3e-4 -5.314654,2.39479 -5.314454,5.30859 -10e-5,1.7598 0.88305,3.32257 2.21875,4.29297 L 89.779304,643.0518 A 87.999995,87.999995 0 0 0 96,643.3623 87.999995,87.999995 0 0 0 175.23633,593.38965 L 160.45117,578.6045 c -0.9684,-1.3283 -2.52209,-2.20779 -4.27539,-2.20899 l -0.01,0 c -1.0599,0 -2.0904,0.33449 -2.9668,0.92969 -0.313,0.1847 -0.61168,0.39994 -0.86328,0.67773 -0.014,0.015 -0.92985,0.9272 -2.34375,2.1504 L 95.980469,525.75684 Z"
       id="path5504" />
    <path
       inkscape:connector-curvature="0"
       id="path6269"
       d="m 35.199219,579.51856 a 2.0002,2.0002 0 0 0 -1.970703,2.02734 l 0,35.375 a 87.999985,87.999985 0 0 0 4,3.7988 l 0,-39.1738 a 2.0002,2.0002 0 0 0 -2.029297,-2.02734 z m 122.000001,0 a 2.0002,2.0002 0 0 0 -1.9707,2.02734 l 0,38.7734 a 87.99999,87.99999 0 0 0 4,-3.8886 l 0,-34.8848 a 2.0002,2.0002 0 0 0 -2.0293,-2.02734 z"
       style="color:#000000;font-style:normal;font-variant:normal;font-weight:normal;font-stretch:normal;font-size:medium;line-height:normal;font-family:sans-serif;text-indent:0;text-align:start;text-decoration:none;text-decoration-line:none;text-decoration-style:solid;text-decoration-color:#000000;letter-spacing:normal;word-spacing:normal;text-transform:none;direction:ltr;block-progression:tb;writing-mode:lr-tb;baseline-shift:baseline;text-anchor:start;white-space:normal;clip-rule:nonzero;display:inline;overflow:visible;visibility:visible;opacity:1;isolation:auto;mix-blend-mode:normal;color-interpolation:sRGB;color-interpolation-filters:linearRGB;solid-color:#000000;solid-opacity:1;fill:#000000;fill-opacity:0.11764706;fill-rule:evenodd;stroke:none;stroke-width:4.00000048;stroke-linecap:round;stroke-linejoin:miter;stroke-miterlimit:1;stroke-dasharray:none;stroke-dashoffset:0;stroke-opacity:1;color-rendering:auto;image-rendering:auto;shape-rendering:auto;text-rendering:auto;enable-background:accumulate" />
    <path
       inkscape:transform-center-x="-2.5390151"
       inkscape:transform-center-y="-10.507975"
       inkscape:connector-curvature="0"
       id="path5506"
       d="m 95.973089,525.70878 -1.5044,2.54569 -17.447131,29.71348 15.057721,1.81107 -1.00064,14.016 c -0.1015,-0.009 -0.17243,0.0462 -0.27904,0.0351 l -0.007,-5.1e-4 -0.0138,7e-5 c -6.182,1.03584 -11.987506,3.63457 -17.304069,5.95653 -3.60457,1.57419 -6.915133,3.84502 -9.809313,5.58861 -2.89418,1.7436 -5.371702,2.78921 -6.725587,2.63455 -7.743664,-0.88604 -15.748421,-8.40594 -17.093111,-9.77542 l 0.115403,0.12783 c -1.006409,-1.25555 -2.531012,-1.98545 -4.138808,-1.98762 -2.914382,-2.9e-4 -5.316794,2.39489 -5.316563,5.30921 -2.42e-4,2.91448 2.402016,5.31691 5.316552,5.31679 0.787831,-0.002 1.416501,-0.52027 2.116675,-0.85221 3.867389,3.31242 10.14457,7.75802 18.080122,8.66555 0.883473,0.1025 1.768507,0.1255 2.648065,0.1012 6.154739,-0.1572 12.092605,-2.99126 18.005188,-5.57538 4.794176,-2.09393 9.592796,-4.07755 14.029826,-5.0644 0.70584,0.39217 2.5169,1.52774 5.2076,1.62007 2.80492,0.0938 4.557191,-1.16341 5.302951,-1.6266 4.4446,0.98522 9.25918,2.97328 14.06383,5.07152 6.75773,2.95147 13.57605,6.27459 20.64642,5.46579 8.0439,-0.91984 14.32597,-5.4053 18.12097,-8.67915 0.70624,0.33469 1.33502,0.86478 2.1307,0.86482 l 0.007,4.4e-4 c 2.91374,-9.8e-4 5.3098,-2.40349 5.30971,-5.31643 -3e-4,-2.91324 -2.39608,-5.31558 -5.30965,-5.31644 l -0.007,-4.4e-4 c -1.06059,0.002 -2.09125,0.33663 -2.96807,0.93238 -0.31369,0.18512 -0.61246,0.40228 -0.86445,0.68088 -0.0469,0.0487 -8.82553,9.05995 -17.33812,10.03397 -1.35389,0.15347 -3.83148,-0.90451 -6.72564,-2.64832 -2.89417,-1.74344 -6.20476,-4.00785 -9.80932,-5.58223 -5.31814,-2.32256 -11.12027,-4.92065 -17.30403,-5.95585 l -0.0137,10e-5 -0.0138,9e-5 c -0.0964,-0.01 -0.17972,-0.0349 -0.27242,-0.0352 l -0.993861,-14.01631 15.057671,-1.80408 -18.958191,-32.25929 z m 1e-5,54.53978 c 0.032,-0.008 0.0253,-0.007 0.0275,0.0431 2.1e-4,0.036 0.007,0.0343 -0.0251,0.0428 -0.0327,0.009 -0.0256,0.007 -0.0273,-0.0358 -2.2e-4,-0.036 -0.008,-0.0413 0.0268,-0.0432 z"
       style="color:#000000;font-style:normal;font-variant:normal;font-weight:normal;font-stretch:normal;font-size:medium;line-height:normal;font-family:sans-serif;text-indent:0;text-align:start;text-decoration:none;text-decoration-line:none;text-decoration-style:solid;text-decoration-color:#000000;letter-spacing:normal;word-spacing:normal;text-transform:none;direction:ltr;block-progression:tb;writing-mode:lr-tb;baseline-shift:baseline;text-anchor:start;white-space:normal;clip-rule:nonzero;display:inline;overflow:visible;visibility:visible;opacity:1;isolation:auto;mix-blend-mode:normal;color-interpolation:sRGB;color-interpolation-filters:linearRGB;solid-color:#000000;solid-opacity:1;fill:#666666;fill-opacity:1;fill-rule:evenodd;stroke:none;stroke-width:1.00000012;stroke-linecap:round;stroke-linejoin:miter;stroke-miterlimit:4;stroke-dasharray:none;stroke-dashoffset:0;stroke-opacity:1;color-rendering:auto;image-rendering:auto;shape-rendering:auto;text-rendering:auto;enable-background:accumulate" />
    <path
       style="fill:#e8e8e8;fill-opacity:1"
       inkscape:connector-curvature="0"
       d="m 71.290232,510.32795 -3.360183,-3.36022 -13.321579,13.32161 -13.321577,-13.32161 -3.360184,3.36022 13.321578,13.32152 -13.321578,13.3217 3.360184,3.36013 13.321577,-13.32153 13.321579,13.32153 3.360183,-3.36013 -13.321579,-13.3217 z"
       id="path5508" />
    <path
       style="fill:#ffffff"
       inkscape:connector-curvature="0"
       d="m 131.22862,532.00951 -9.93757,-9.93755 -3.38402,3.3603 13.32159,13.32152 28.59729,-28.59734 -3.36017,-3.36022 z"
       id="path5510" />
    <circle
       style="fill:#cccccc;fill-opacity:1;stroke:none;stroke-width:4;stroke-linecap:butt;stroke-linejoin:miter;stroke-miterlimit:4;stroke-dasharray:none;stroke-opacity:1"
       id="circle5525"
       cx="296.00012"
       cy="557.3623"
       r="88" />
    <circle
       r="88"
       cy="555.3623"
       cx="296.00012"
       id="circle5527"
       style="fill:#ffffff;fill-opacity:1;stroke:none;stroke-width:4;stroke-linecap:butt;stroke-linejoin:miter;stroke-miterlimit:4;stroke-dasharray:none;stroke-opacity:1" />
    <path
       style="opacity:1;fill:#e8e8e8;fill-opacity:1;stroke:none;stroke-width:0.80140841;stroke-linecap:butt;stroke-linejoin:miter;stroke-miterlimit:4;stroke-dasharray:none;stroke-dashoffset:0;stroke-opacity:1"
       d="m 296,467.3623 a 87.999995,87.999995 0 0 0 -87.99999,88 87.999995,87.999995 0 0 0 87.99999,88 l 0,-176 z"
       id="path5529"
       inkscape:connector-curvature="0" />
    <path
       id="path5535"
       d="m 271.29023,510.328 -3.36018,-3.3603 -13.32158,13.3216 -13.32157,-13.3216 -3.36019,3.3603 13.32158,13.3215 -13.32158,13.3217 3.36019,3.3601 13.32157,-13.3215 13.32158,13.3215 3.36018,-3.3601 -13.32157,-13.3217 z"
       inkscape:connector-curvature="0"
       style="fill:#ffffff;fill-opacity:1" />
    <path
       id="path5537"
       d="m 331.22862,592.0095 -9.93757,-9.9375 -3.38402,3.3603 13.32159,13.3215 28.59729,-28.5974 -3.36017,-3.3602 z"
       inkscape:connector-curvature="0"
       style="fill:#e8e8e8;fill-opacity:1" />
    <path
       inkscape:connector-curvature="0"
       id="path5657"
       d="m 313.05469,515.4346 -22.75781,22.8164 73.34179,73.3672 a 87.999995,87.999995 0 0 0 19.97266,-48.5 l -30.57227,-30.5723 -23.34961,0 0,-0.4785 -16.63476,-16.6328 z m -34.10938,34.2226 0,17.1133 -39.98437,0 0,11.4082 64.77929,64.7793 a 87.999995,87.999995 0 0 0 48.48243,-19.998 l -73.27735,-73.3028 z"
       style="opacity:0.05;fill:#000000;fill-opacity:1" />
    <path
       id="path5539"
       d="m 278.94507,566.7703 -39.98496,0 0,11.4082 39.98496,0 0,17.1119 22.7589,-22.816 -22.7589,-22.8162 0,17.1121 z m 34.10987,-5.7039 0,-17.1121 39.98497,0 0,-11.4082 -39.98497,0 0,-17.1119 -22.75892,22.816 22.75892,22.8162 z"
       clip-path="url(#b)"
       inkscape:connector-curvature="0"
       style="fill:#4d4d4d" />
    <path
       style="opacity:0.1;fill:#000000;fill-opacity:1"
       d="m 113.05469,1915.4346 -22.757815,22.8164 162.757815,162.8144 0,-17.1113 39.98437,0 0,-11.4082 -140,-140 -23.34961,0 0,-0.4785 z m -34.109378,34.2226 0,17.1133 -39.984374,0 0,11.4082 140.000002,140 23.34961,0 16.63486,17.1113 c 0.0886,-0.089 22.75781,-22.8164 22.75781,-22.8164 z"
       id="path6175"
       inkscape:connector-curvature="0"
       sodipodi:nodetypes="ccccccccccccccccccc" />
    <path
       style="fill:#4d4d4d"
       inkscape:connector-curvature="0"
       clip-path="url(#b)"
       d="m 78.945071,1966.7703 -39.984964,0 0,11.4082 39.984964,0 0,17.1119 22.758899,-22.816 -22.758899,-22.8162 0,17.1121 z m 34.109869,-5.7039 0,-17.1121 39.98497,0 0,-11.4082 -39.98497,0 0,-17.1119 -22.75892,22.816 22.75892,22.8162 z"
       id="path6177" />
    <circle
       r="88"
       cy="957.3623"
       cx="296.00012"
       id="circle6182"
       style="fill:#cccccc;fill-opacity:1;stroke:none;stroke-width:4;stroke-linecap:butt;stroke-linejoin:miter;stroke-miterlimit:4;stroke-dasharray:none;stroke-opacity:1" />
    <circle
       style="fill:#ffffff;fill-opacity:1;stroke:none;stroke-width:4;stroke-linecap:butt;stroke-linejoin:miter;stroke-miterlimit:4;stroke-dasharray:none;stroke-opacity:1"
       id="circle6184"
       cx="296.00012"
       cy="955.3623"
       r="88" />
    <path
       inkscape:connector-curvature="0"
       id="path6186"
       d="m 296.00001,867.3623 a 87.999995,87.999995 0 0 0 -88,88 87.999995,87.999995 0 0 0 88,88 l 0,-176 z"
       style="opacity:1;fill:#e8e8e8;fill-opacity:1;stroke:none;stroke-width:0.80140841;stroke-linecap:butt;stroke-linejoin:miter;stroke-miterlimit:4;stroke-dasharray:none;stroke-dashoffset:0;stroke-opacity:1" />
    <path
       inkscape:connector-curvature="0"
       style="opacity:0.05;fill:#000000;fill-opacity:1"
       d="m 313.0547,915.4346 -22.75781,22.8164 73.34179,73.3672 a 87.999995,87.999995 0 0 0 19.97266,-48.5 l -30.57227,-30.5723 -23.34961,0 0,-0.4785 -16.63476,-16.6328 z m -34.10938,34.2226 0,17.1133 -39.98437,0 0,11.4082 64.77929,64.7793 a 87.999995,87.999995 0 0 0 48.48243,-19.998 l -73.27735,-73.3028 z"
       id="path6192" />
    <path
       style="fill:#4d4d4d"
       inkscape:connector-curvature="0"
       clip-path="url(#b)"
       d="m 278.94508,966.7703 -39.98496,0 0,11.4082 39.98496,0 0,17.1119 22.7589,-22.816 -22.7589,-22.8162 0,17.1121 z m 34.10987,-5.7039 0,-17.1121 39.98497,0 0,-11.4082 -39.98497,0 0,-17.1119 -22.75892,22.816 22.75892,22.8162 z"
       id="path6194" />
    <circle
       r="88"
       cy="757.3623"
       cx="296.00012"
       id="circle6196"
       style="fill:#cccccc;fill-opacity:1;stroke:none;stroke-width:4;stroke-linecap:butt;stroke-linejoin:miter;stroke-miterlimit:4;stroke-dasharray:none;stroke-opacity:1" />
    <circle
       style="fill:#ffffff;fill-opacity:1;stroke:none;stroke-width:4;stroke-linecap:butt;stroke-linejoin:miter;stroke-miterlimit:4;stroke-dasharray:none;stroke-opacity:1"
       id="circle6198"
       cx="296.00012"
       cy="755.3623"
       r="88" />
    <path
       inkscape:connector-curvature="0"
       id="path6200"
       d="m 296,667.3623 a 87.999995,87.999995 0 0 0 -87.99999,88 87.999995,87.999995 0 0 0 87.99999,88 l 0,-176 z"
       style="opacity:1;fill:#e8e8e8;fill-opacity:1;stroke:none;stroke-width:0.80140841;stroke-linecap:butt;stroke-linejoin:miter;stroke-miterlimit:4;stroke-dasharray:none;stroke-dashoffset:0;stroke-opacity:1" />
    <path
       style="fill:#ffffff;fill-opacity:1"
       inkscape:connector-curvature="0"
       d="m 271.29023,710.328 -3.36018,-3.3603 -13.32158,13.3216 -13.32157,-13.3216 -3.36019,3.3603 13.32158,13.3215 -13.32158,13.3217 3.36019,3.3601 13.32157,-13.3215 13.32158,13.3215 3.36018,-3.3601 -13.32157,-13.3217 z"
       id="path6202" />
    <path
       style="fill:#e8e8e8;fill-opacity:1"
       inkscape:connector-curvature="0"
       d="m 331.22862,792.0095 -9.93757,-9.9375 -3.38402,3.3603 13.32159,13.3215 28.59729,-28.5974 -3.36017,-3.3602 z"
       id="path6204" />
    <path
       style="fill:#4d4d4d"
       inkscape:connector-curvature="0"
       clip-path="url(#b)"
       d="m 278.94507,766.7703 -39.98496,0 0,11.4082 39.98496,0 0,17.1119 22.7589,-22.816 -22.7589,-22.8162 0,17.1121 z m 34.10987,-5.7039 0,-17.1121 39.98497,0 0,-11.4082 -39.98497,0 0,-17.1119 -22.75892,22.816 22.75892,22.8162 z"
       id="path6208" />
    <circle
       style="fill:#c79f00;fill-opacity:1;stroke:none;stroke-width:4;stroke-linecap:butt;stroke-linejoin:miter;stroke-miterlimit:4;stroke-dasharray:none;stroke-opacity:1"
       id="circle6210"
       cx="696.00012"
       cy="757.3623"
       r="88" />
    <circle
       r="88"
       cy="755.3623"
       cx="696.00012"
       id="circle6212"
       style="fill:#ffcc00;fill-opacity:1;stroke:none;stroke-width:4;stroke-linecap:butt;stroke-linejoin:miter;stroke-miterlimit:4;stroke-dasharray:none;stroke-opacity:1" />
    <path
       id="path6216"
       d="m 713.05471,715.4346 -22.75781,22.8164 73.34179,73.3672 a 87.999995,87.999995 0 0 0 19.97266,-48.5 l -30.57227,-30.5723 -23.34961,0 0,-0.4785 -16.63476,-16.6328 z m -34.10938,34.2226 0,17.1133 -39.98437,0 0,11.4082 64.77929,64.7793 a 87.999995,87.999995 0 0 0 48.48243,-19.998 l -73.27735,-73.3028 z"
       style="opacity:0.05;fill:#000000;fill-opacity:1"
       inkscape:connector-curvature="0" />
    <path
       id="path6218"
       d="m 678.94509,766.7703 -39.98496,0 0,11.4082 39.98496,0 0,17.1119 22.7589,-22.816 -22.7589,-22.8162 0,17.1121 z m 34.10987,-5.7039 0,-17.1121 39.98497,0 0,-11.4082 -39.98497,0 0,-17.1119 -22.75892,22.816 22.75892,22.8162 z"
       clip-path="url(#b)"
       inkscape:connector-curvature="0"
       style="fill:#4d4d4d" />
    <circle
       style="fill:#cccccc;fill-opacity:1;stroke:none;stroke-width:4;stroke-linecap:butt;stroke-linejoin:miter;stroke-miterlimit:4;stroke-dasharray:none;stroke-opacity:1"
       id="circle6237"
       cx="96.000122"
       cy="757.3623"
       r="88" />
    <circle
       r="88"
       cy="755.3623"
       cx="96.000122"
       id="circle6239"
       style="fill:#ffffff;fill-opacity:1;stroke:none;stroke-width:4;stroke-linecap:butt;stroke-linejoin:miter;stroke-miterlimit:4;stroke-dasharray:none;stroke-opacity:1" />
    <path
       style="opacity:1;fill:#e8e8e8;fill-opacity:1;stroke:none;stroke-width:0.80140841;stroke-linecap:butt;stroke-linejoin:miter;stroke-miterlimit:4;stroke-dasharray:none;stroke-dashoffset:0;stroke-opacity:1"
       d="m 96,667.36231 a 87.999995,87.999995 0 0 0 -88,88 87.999995,87.999995 0 0 0 88,87.99999 l 0,-175.99999 z"
       id="path6241"
       inkscape:connector-curvature="0" />
    <path
       id="path6243"
       d="m 95.980469,725.75684 -0.0039,0.002 -1.505859,2.54297 -17.443359,29.70703 14.242187,13.2129 -0.103515,1.44726 c -0.7136,0.4179 -1.371279,0.92592 -1.955078,1.51172 -5.594,1.1789 -10.86837,3.51908 -15.730469,5.64258 -3.6039,1.5739 -6.912941,3.84459 -9.806641,5.58789 -2.8936,1.7433 -5.369056,2.78741 -6.722656,2.63281 -7.7422,-0.8859 -15.745343,-8.40424 -17.089844,-9.77344 -1.0054,-1.1737 -2.475591,-1.85727 -4.02539,-1.85937 -2.9139,-3e-4 -5.314654,2.39479 -5.314454,5.30859 -10e-5,1.7598 0.88305,3.32257 2.21875,4.29297 L 89.779304,843.0518 A 87.999995,87.999995 0 0 0 96,843.3623 87.999995,87.999995 0 0 0 175.23633,793.38965 L 160.45117,778.6045 c -0.9684,-1.3283 -2.52209,-2.20779 -4.27539,-2.20899 l -0.01,0 c -1.0599,0 -2.0904,0.33449 -2.9668,0.92969 -0.313,0.1847 -0.61168,0.39994 -0.86328,0.67773 -0.014,0.015 -0.92985,0.9272 -2.34375,2.1504 L 95.980469,725.75684 Z"
       style="fill:#000000;fill-opacity:0.03921569;stroke:none;stroke-width:1.5;stroke-linecap:butt;stroke-linejoin:round;stroke-miterlimit:4;stroke-dasharray:none;stroke-opacity:1"
       inkscape:connector-curvature="0" />
    <path
       style="color:#000000;font-style:normal;font-variant:normal;font-weight:normal;font-stretch:normal;font-size:medium;line-height:normal;font-family:sans-serif;text-indent:0;text-align:start;text-decoration:none;text-decoration-line:none;text-decoration-style:solid;text-decoration-color:#000000;letter-spacing:normal;word-spacing:normal;text-transform:none;direction:ltr;block-progression:tb;writing-mode:lr-tb;baseline-shift:baseline;text-anchor:start;white-space:normal;clip-rule:nonzero;display:inline;overflow:visible;visibility:visible;opacity:1;isolation:auto;mix-blend-mode:normal;color-interpolation:sRGB;color-interpolation-filters:linearRGB;solid-color:#000000;solid-opacity:1;fill:#666666;fill-opacity:1;fill-rule:evenodd;stroke:none;stroke-width:1.00000012;stroke-linecap:round;stroke-linejoin:miter;stroke-miterlimit:4;stroke-dasharray:none;stroke-dashoffset:0;stroke-opacity:1;color-rendering:auto;image-rendering:auto;shape-rendering:auto;text-rendering:auto;enable-background:accumulate"
       d="m 95.973089,725.70878 -1.5044,2.54569 -17.447131,29.71348 15.057721,1.81107 -1.00064,14.016 c -0.1015,-0.009 -0.17243,0.0462 -0.27904,0.0351 l -0.007,-5.1e-4 -0.0138,7e-5 c -6.182,1.03584 -11.987506,3.63457 -17.304069,5.95653 -3.60457,1.57419 -6.915133,3.84502 -9.809313,5.58861 -2.89418,1.7436 -5.371702,2.78921 -6.725587,2.63455 -7.743664,-0.88604 -15.748421,-8.40594 -17.093111,-9.77542 l 0.115403,0.12783 c -1.006409,-1.25555 -2.531012,-1.98545 -4.138808,-1.98762 -2.914382,-2.9e-4 -5.316794,2.39489 -5.316563,5.30921 -2.42e-4,2.91448 2.402016,5.31691 5.316552,5.31679 0.787831,-0.002 1.416501,-0.52027 2.116675,-0.85221 3.867389,3.31242 10.14457,7.75802 18.080122,8.66555 0.883473,0.1025 1.768507,0.1255 2.648065,0.1012 6.154739,-0.1572 12.092605,-2.99126 18.005188,-5.57538 4.794176,-2.09393 9.592796,-4.07755 14.029826,-5.0644 0.70584,0.39217 2.5169,1.52774 5.2076,1.62007 2.80492,0.0938 4.557191,-1.16341 5.302951,-1.6266 4.4446,0.98522 9.25918,2.97328 14.06383,5.07152 6.75773,2.95147 13.57605,6.27459 20.64642,5.46579 8.0439,-0.91984 14.32597,-5.4053 18.12097,-8.67915 0.70624,0.33469 1.33502,0.86478 2.1307,0.86482 l 0.007,4.4e-4 c 2.91374,-9.8e-4 5.3098,-2.40349 5.30971,-5.31643 -3e-4,-2.91324 -2.39608,-5.31558 -5.30965,-5.31644 l -0.007,-4.4e-4 c -1.06059,0.002 -2.09125,0.33663 -2.96807,0.93238 -0.31369,0.18512 -0.61246,0.40228 -0.86445,0.68088 -0.0469,0.0487 -8.82553,9.05995 -17.33812,10.03397 -1.35389,0.15347 -3.83148,-0.90451 -6.72564,-2.64832 -2.89417,-1.74344 -6.20476,-4.00785 -9.80932,-5.58223 -5.31814,-2.32256 -11.12027,-4.92065 -17.30403,-5.95585 l -0.0137,10e-5 -0.0138,9e-5 c -0.0964,-0.01 -0.17972,-0.0349 -0.27242,-0.0352 l -0.993861,-14.01631 15.057671,-1.80408 -18.958191,-32.25929 z m 1e-5,54.53978 c 0.032,-0.008 0.0253,-0.007 0.0275,0.0431 2.1e-4,0.036 0.007,0.0343 -0.0251,0.0428 -0.0327,0.009 -0.0256,0.007 -0.0273,-0.0358 -2.2e-4,-0.036 -0.008,-0.0413 0.0268,-0.0432 z"
       id="path6247"
       inkscape:connector-curvature="0"
       inkscape:transform-center-y="-10.507975"
       inkscape:transform-center-x="-2.5390151" />
    <path
       id="path6249"
       d="m 71.290232,710.32795 -3.360183,-3.36022 -13.321579,13.32161 -13.321577,-13.32161 -3.360184,3.36022 13.321578,13.32152 -13.321578,13.3217 3.360184,3.36013 13.321577,-13.32153 13.321579,13.32153 3.360183,-3.36013 -13.321579,-13.3217 z"
       inkscape:connector-curvature="0"
       style="fill:#ffffff;fill-opacity:1" />
    <path
       id="path6251"
       d="m 131.22862,732.00951 -9.93757,-9.93755 -3.38402,3.3603 13.32159,13.32152 28.59729,-28.59734 -3.36017,-3.36022 z"
       inkscape:connector-curvature="0"
       style="fill:#e8e8e8;fill-opacity:1" />
    <circle
       r="88"
       cy="957.3623"
       cx="96.000122"
       id="circle6253"
       style="fill:#cccccc;fill-opacity:1;stroke:none;stroke-width:4;stroke-linecap:butt;stroke-linejoin:miter;stroke-miterlimit:4;stroke-dasharray:none;stroke-opacity:1" />
    <circle
       style="fill:#e8e8e8;fill-opacity:1;stroke:none;stroke-width:4;stroke-linecap:butt;stroke-linejoin:miter;stroke-miterlimit:4;stroke-dasharray:none;stroke-opacity:1"
       id="circle6255"
       cx="96.000122"
       cy="955.3623"
       r="88" />
    <path
       inkscape:connector-curvature="0"
       id="path6257"
       d="m 96,867.36231 a 87.999995,87.999995 0 0 0 -88,88 87.999995,87.999995 0 0 0 88,87.99999 l 0,-175.99999 z"
       style="opacity:1;fill:#ffffff;fill-opacity:1;stroke:none;stroke-width:0.80140841;stroke-linecap:butt;stroke-linejoin:miter;stroke-miterlimit:4;stroke-dasharray:none;stroke-dashoffset:0;stroke-opacity:1" />
    <path
       inkscape:connector-curvature="0"
       style="fill:#000000;fill-opacity:0.03921569;stroke:none;stroke-width:1.5;stroke-linecap:butt;stroke-linejoin:round;stroke-miterlimit:4;stroke-dasharray:none;stroke-opacity:1"
       d="m 95.980469,925.75684 -0.0039,0.002 -1.505859,2.54297 -17.443359,29.70703 14.242187,13.2129 -0.103515,1.44726 c -0.7136,0.4179 -1.371279,0.92592 -1.955078,1.51172 -5.594,1.1789 -10.86837,3.51908 -15.730469,5.64258 -3.6039,1.5739 -6.912941,3.84459 -9.806641,5.58789 -2.8936,1.7433 -5.369056,2.78741 -6.722656,2.63281 -7.7422,-0.8859 -15.745343,-8.40424 -17.089844,-9.77344 -1.0054,-1.1737 -2.475591,-1.85727 -4.02539,-1.85937 -2.9139,-3e-4 -5.314654,2.39479 -5.314454,5.30859 -10e-5,1.7598 0.88305,3.32257 2.21875,4.29297 l 57.039063,57.03905 A 87.999995,87.999995 0 0 0 96,1043.3623 87.999995,87.999995 0 0 0 175.23633,993.38965 L 160.45117,978.6045 c -0.9684,-1.3283 -2.52209,-2.20779 -4.27539,-2.20899 l -0.01,0 c -1.0599,0 -2.0904,0.33449 -2.9668,0.92969 -0.313,0.1847 -0.61168,0.39994 -0.86328,0.67773 -0.014,0.015 -0.92985,0.9272 -2.34375,2.1504 L 95.980469,925.75684 Z"
       id="path6259" />
    <path
       inkscape:transform-center-x="-2.5390151"
       inkscape:transform-center-y="-10.507975"
       inkscape:connector-curvature="0"
       id="path6261"
       d="m 95.973089,925.70878 -1.5044,2.54569 -17.447131,29.71348 15.057721,1.81107 -1.00064,14.016 c -0.1015,-0.009 -0.17243,0.0462 -0.27904,0.0351 l -0.007,-5.1e-4 -0.0138,7e-5 c -6.182,1.03584 -11.987506,3.63457 -17.304069,5.95653 -3.60457,1.57419 -6.915133,3.84502 -9.809313,5.58861 -2.89418,1.7436 -5.371702,2.78921 -6.725587,2.63455 -7.743664,-0.88604 -15.748421,-8.40594 -17.093111,-9.77542 l 0.115403,0.12783 c -1.006409,-1.25555 -2.531012,-1.98545 -4.138808,-1.98762 -2.914382,-2.9e-4 -5.316794,2.39489 -5.316563,5.30921 -2.42e-4,2.91448 2.402016,5.31691 5.316552,5.31679 0.787831,-0.002 1.416501,-0.52027 2.116675,-0.85221 3.867389,3.31242 10.14457,7.75802 18.080122,8.66555 0.883473,0.1025 1.768507,0.1255 2.648065,0.1012 6.154739,-0.1572 12.092605,-2.99126 18.005188,-5.57538 4.794176,-2.09393 9.592796,-4.07755 14.029826,-5.0644 0.70584,0.39217 2.5169,1.52774 5.2076,1.62007 2.80492,0.0938 4.557191,-1.16341 5.302951,-1.6266 4.4446,0.98522 9.25918,2.97328 14.06383,5.07152 6.75773,2.95147 13.57605,6.27459 20.64642,5.46579 8.0439,-0.91984 14.32597,-5.4053 18.12097,-8.67915 0.70624,0.33469 1.33502,0.86478 2.1307,0.86482 l 0.007,4.4e-4 c 2.91374,-9.8e-4 5.3098,-2.40349 5.30971,-5.31643 -3e-4,-2.91324 -2.39608,-5.31558 -5.30965,-5.31644 l -0.007,-4.4e-4 c -1.06059,0.002 -2.09125,0.33663 -2.96807,0.93238 -0.31369,0.18512 -0.61246,0.40228 -0.86445,0.68088 -0.0469,0.0487 -8.82553,9.05995 -17.33812,10.03397 -1.35389,0.15347 -3.83148,-0.90451 -6.72564,-2.64832 -2.89417,-1.74344 -6.20476,-4.00785 -9.80932,-5.58223 -5.31814,-2.32256 -11.12027,-4.92065 -17.30403,-5.95585 l -0.0137,10e-5 -0.0138,9e-5 c -0.0964,-0.01 -0.17972,-0.0349 -0.27242,-0.0352 l -0.993861,-14.01631 15.057671,-1.80408 -18.958191,-32.25929 z m 1e-5,54.53978 c 0.032,-0.008 0.0253,-0.007 0.0275,0.0431 2.1e-4,0.036 0.007,0.0343 -0.0251,0.0428 -0.0327,0.009 -0.0256,0.007 -0.0273,-0.0358 -2.2e-4,-0.036 -0.008,-0.0413 0.0268,-0.0432 z"
       style="color:#000000;font-style:normal;font-variant:normal;font-weight:normal;font-stretch:normal;font-size:medium;line-height:normal;font-family:sans-serif;text-indent:0;text-align:start;text-decoration:none;text-decoration-line:none;text-decoration-style:solid;text-decoration-color:#000000;letter-spacing:normal;word-spacing:normal;text-transform:none;direction:ltr;block-progression:tb;writing-mode:lr-tb;baseline-shift:baseline;text-anchor:start;white-space:normal;clip-rule:nonzero;display:inline;overflow:visible;visibility:visible;opacity:1;isolation:auto;mix-blend-mode:normal;color-interpolation:sRGB;color-interpolation-filters:linearRGB;solid-color:#000000;solid-opacity:1;fill:#666666;fill-opacity:1;fill-rule:evenodd;stroke:none;stroke-width:1.00000012;stroke-linecap:round;stroke-linejoin:miter;stroke-miterlimit:4;stroke-dasharray:none;stroke-dashoffset:0;stroke-opacity:1;color-rendering:auto;image-rendering:auto;shape-rendering:auto;text-rendering:auto;enable-background:accumulate" />
    <g
       style="opacity:1"
       id="g972">
      <path
         id="path974"
         d="m 70.618298,911.96516 -2.94454,-2.94457 -11.673754,11.67378 -11.673754,-11.67378 -2.944544,2.94457 11.673755,11.67371 -11.673755,11.67386 2.944544,2.9445 11.673754,-11.67372 11.673754,11.67372 2.94454,-2.9445 -11.673752,-11.67386 z"
         style="color:#000000;font-style:normal;font-variant:normal;font-weight:normal;font-stretch:normal;font-size:medium;line-height:normal;font-family:sans-serif;font-variant-ligatures:normal;font-variant-position:normal;font-variant-caps:normal;font-variant-numeric:normal;font-variant-alternates:normal;font-variant-east-asian:normal;font-feature-settings:normal;font-variation-settings:normal;text-indent:0;text-align:start;text-decoration:none;text-decoration-line:none;text-decoration-style:solid;text-decoration-color:#000000;letter-spacing:normal;word-spacing:normal;text-transform:none;writing-mode:lr-tb;direction:ltr;text-orientation:mixed;dominant-baseline:auto;baseline-shift:baseline;text-anchor:start;white-space:normal;shape-padding:0;shape-margin:0;inline-size:0;clip-rule:nonzero;display:inline;overflow:visible;visibility:visible;isolation:auto;mix-blend-mode:normal;color-interpolation:sRGB;color-interpolation-filters:linearRGB;solid-color:#000000;solid-opacity:1;vector-effect:none;fill:#e8e8e8;fill-opacity:1;fill-rule:nonzero;stroke:none;stroke-width:4;stroke-linecap:butt;stroke-linejoin:miter;stroke-miterlimit:4;stroke-dasharray:none;stroke-dashoffset:0;stroke-opacity:1.0;filter-blend-mode:normal;filter-gaussianBlur-deviation:0;color-rendering:auto;image-rendering:auto;shape-rendering:auto;text-rendering:auto;enable-background:accumulate;stop-color:#000000;stop-opacity:1;" />
      <path
         sodipodi:nodetypes="ccccccccccccc"
         inkscape:connector-curvature="0"
         id="path976"
         d="m 44.326172,906.19141 -5.773438,5.77343 11.673828,11.67383 -11.673828,11.67383 5.773438,5.77344 L 56,929.41211 67.673828,941.08594 73.447266,935.3125 61.773438,923.63867 73.447266,911.96484 67.673828,906.19141 56,917.86523 Z"
         style="color:#000000;font-style:normal;font-variant:normal;font-weight:normal;font-stretch:normal;font-size:medium;line-height:normal;font-family:sans-serif;font-variant-ligatures:normal;font-variant-position:normal;font-variant-caps:normal;font-variant-numeric:normal;font-variant-alternates:normal;font-variant-east-asian:normal;font-feature-settings:normal;font-variation-settings:normal;text-indent:0;text-align:start;text-decoration:none;text-decoration-line:none;text-decoration-style:solid;text-decoration-color:#000000;letter-spacing:normal;word-spacing:normal;text-transform:none;writing-mode:lr-tb;direction:ltr;text-orientation:mixed;dominant-baseline:auto;baseline-shift:baseline;text-anchor:start;white-space:normal;shape-padding:0;shape-margin:0;inline-size:0;clip-rule:nonzero;display:inline;overflow:visible;visibility:visible;isolation:auto;mix-blend-mode:normal;color-interpolation:sRGB;color-interpolation-filters:linearRGB;solid-color:#000000;solid-opacity:1;vector-effect:none;fill:#e8e8e8;fill-opacity:1;fill-rule:nonzero;stroke:none;stroke-width:4;stroke-linecap:butt;stroke-linejoin:miter;stroke-miterlimit:4;stroke-dasharray:none;stroke-dashoffset:0;stroke-opacity:1;color-rendering:auto;image-rendering:auto;shape-rendering:auto;text-rendering:auto;enable-background:accumulate;stop-color:#000000;stop-opacity:1" />
    </g>
    <g
       style="opacity:1"
       id="g978">
      <path
         id="path980"
         d="m 129.30693,930.96481 -8.70834,-8.70832 -2.96543,2.94464 11.67377,11.67371 25.05992,-25.05997 -2.94453,-2.94458 z"
         style="color:#000000;font-style:normal;font-variant:normal;font-weight:normal;font-stretch:normal;font-size:medium;line-height:normal;font-family:sans-serif;font-variant-ligatures:normal;font-variant-position:normal;font-variant-caps:normal;font-variant-numeric:normal;font-variant-alternates:normal;font-variant-east-asian:normal;font-feature-settings:normal;font-variation-settings:normal;text-indent:0;text-align:start;text-decoration:none;text-decoration-line:none;text-decoration-style:solid;text-decoration-color:#000000;letter-spacing:normal;word-spacing:normal;text-transform:none;writing-mode:lr-tb;direction:ltr;text-orientation:mixed;dominant-baseline:auto;baseline-shift:baseline;text-anchor:start;white-space:normal;shape-padding:0;shape-margin:0;inline-size:0;clip-rule:nonzero;display:inline;overflow:visible;visibility:visible;isolation:auto;mix-blend-mode:normal;color-interpolation:sRGB;color-interpolation-filters:linearRGB;solid-color:#000000;solid-opacity:1;vector-effect:none;fill:#ffffff;fill-opacity:1;fill-rule:nonzero;stroke:none;stroke-width:4;stroke-linecap:butt;stroke-linejoin:miter;stroke-miterlimit:4;stroke-dasharray:none;stroke-dashoffset:0;stroke-opacity:1.0;filter-blend-mode:normal;filter-gaussianBlur-deviation:0;color-rendering:auto;image-rendering:auto;shape-rendering:auto;text-rendering:auto;enable-background:accumulate;stop-color:#000000;stop-opacity:1;" />
      <path
         sodipodi:nodetypes="ccccccc"
         inkscape:connector-curvature="0"
         id="path982"
         d="m 151.42383,906.04297 -22.11719,22.09375 -8.70312,-8.70313 -5.80469,5.76172 14.50781,14.50781 27.88867,-27.88867 z"
         style="color:#000000;font-style:normal;font-variant:normal;font-weight:normal;font-stretch:normal;font-size:medium;line-height:normal;font-family:sans-serif;font-variant-ligatures:normal;font-variant-position:normal;font-variant-caps:normal;font-variant-numeric:normal;font-variant-alternates:normal;font-variant-east-asian:normal;font-feature-settings:normal;font-variation-settings:normal;text-indent:0;text-align:start;text-decoration:none;text-decoration-line:none;text-decoration-style:solid;text-decoration-color:#000000;letter-spacing:normal;word-spacing:normal;text-transform:none;writing-mode:lr-tb;direction:ltr;text-orientation:mixed;dominant-baseline:auto;baseline-shift:baseline;text-anchor:start;white-space:normal;shape-padding:0;shape-margin:0;inline-size:0;clip-rule:nonzero;display:inline;overflow:visible;visibility:visible;isolation:auto;mix-blend-mode:normal;color-interpolation:sRGB;color-interpolation-filters:linearRGB;solid-color:#000000;solid-opacity:1;vector-effect:none;fill:#ffffff;fill-opacity:1;fill-rule:nonzero;stroke:none;stroke-width:4;stroke-linecap:butt;stroke-linejoin:miter;stroke-miterlimit:4;stroke-dasharray:none;stroke-dashoffset:0;stroke-opacity:1;color-rendering:auto;image-rendering:auto;shape-rendering:auto;text-rendering:auto;enable-background:accumulate;stop-color:#000000;stop-opacity:1" />
    </g>
  </g>
</svg>
