<?xml version="1.0" encoding="UTF-8" standalone="no"?>
<!-- Created with Inkscape (http://www.inkscape.org/) -->

<svg
   xmlns:dc="http://purl.org/dc/elements/1.1/"
   xmlns:cc="http://creativecommons.org/ns#"
   xmlns:rdf="http://www.w3.org/1999/02/22-rdf-syntax-ns#"
   xmlns:svg="http://www.w3.org/2000/svg"
   xmlns="http://www.w3.org/2000/svg"
   xmlns:sodipodi="http://sodipodi.sourceforge.net/DTD/sodipodi-0.dtd"
   xmlns:inkscape="http://www.inkscape.org/namespaces/inkscape"
   width="108"
   height="108"
   viewBox="0 0 108.00001 108"
   id="svg2"
   version="1.1"
   inkscape:version="0.91 r13725"
   sodipodi:docname="ic_launcher_foreground.svg"
   inkscape:export-filename="/Users/markus/path5202.png"
   inkscape:export-xdpi="3840"
   inkscape:export-ydpi="3840">
  <sodipodi:namedview
     id="base"
     pagecolor="#ffffff"
     bordercolor="#666666"
     borderopacity="1.0"
     inkscape:pageopacity="0.0"
     inkscape:pageshadow="2"
     inkscape:zoom="3"
     inkscape:cx="54"
     inkscape:cy="54"
     inkscape:document-units="px"
     inkscape:current-layer="layer1"
     showgrid="false"
     units="px"
     inkscape:showpageshadow="false"
     showguides="true"
     inkscape:guide-bbox="true"
     inkscape:window-width="1521"
     inkscape:window-height="849"
     inkscape:window-x="0"
     inkscape:window-y="0"
     inkscape:window-maximized="0">
    <inkscape:grid
       enabled="false"
       snapvisiblegridlinesonly="true"
       id="grid4582"
       type="xygrid" />
  </sodipodi:namedview>
  <defs
     id="defs4" />
  <metadata
     id="metadata7">
    <rdf:RDF>
      <cc:Work
         rdf:about="">
        <dc:format>image/svg+xml</dc:format>
        <dc:type
           rdf:resource="http://purl.org/dc/dcmitype/StillImage" />
        <dc:title />
      </cc:Work>
    </rdf:RDF>
  </metadata>
  <g
     transform="translate(0,-944.36229)"
     id="layer1"
     inkscape:groupmode="layer"
     inkscape:label="Ebene 1">
    <path
       inkscape:transform-center-x="-5.3906185"
       inkscape:transform-center-y="-22.309583"
       inkscape:connector-curvature="0"
       id="path4153"
       d="m 53.979315,990.1113 -1.180671,1.9979 -13.692706,23.3195 11.81747,1.4213 -0.785314,10.9999 c -0.07966,-0.01 -0.135324,0.036 -0.218989,0.028 l -0.0054,0 -0.01079,0 c -4.851708,0.8129 -9.407933,2.8524 -13.580436,4.6747 -2.8289,1.2354 -5.427062,3.0176 -7.698451,4.386 -2.271381,1.3684 -4.215771,2.1891 -5.278315,2.0677 -6.077313,-0.6955 -12.359533,-6.5972 -13.4148633,-7.672 l 0.0906,0.1003 c -0.7898403,-0.9853 -1.9863603,-1.5581 -3.2481803,-1.5599 -2.28724,-2e-4 -4.17268,1.8796 -4.1725,4.1667 -1.9e-4,2.2874 1.88513,4.1728 4.17249,4.1727 0.6183,0 1.11169,-0.4083 1.66119,-0.6688 3.0351603,2.5996 7.9615703,6.0886 14.1894813,6.8008 0.693358,0.081 1.387943,0.099 2.078229,0.079 4.830306,-0.1233 9.490408,-2.3475 14.130666,-4.3756 3.762528,-1.6433 7.528534,-3.2001 11.010777,-3.9745 0.553943,0.3077 1.975283,1.1989 4.086972,1.2714 2.201338,0.074 3.576524,-0.9131 4.161803,-1.2766 3.488172,0.7732 7.266705,2.3335 11.037446,3.9802 5.303544,2.3163 10.654637,4.9244 16.203547,4.2896 6.312942,-0.7219 11.243199,-4.2421 14.221552,-6.8115 0.554267,0.2627 1.047747,0.6787 1.672207,0.6787 l 0.005,0 c 2.28674,0 4.16719,-1.8863 4.16711,-4.1724 -2.3e-4,-2.2863 -1.88047,-4.1717 -4.16706,-4.1724 l -0.005,-3e-4 c -0.83236,0 -1.641241,0.2642 -2.329379,0.7317 -0.246189,0.1453 -0.480659,0.3157 -0.678428,0.5344 -0.03685,0.038 -6.926381,7.1103 -13.607168,7.8748 -1.062548,0.1204 -3.006981,-0.7099 -5.278362,-2.0784 -2.271374,-1.3683 -4.869555,-3.1455 -7.698458,-4.3811 -4.173736,-1.8228 -8.72731,-3.8618 -13.580396,-4.6742 l -0.01079,10e-5 -0.01076,0 c -0.07571,-0.01 -0.141051,-0.027 -0.2138,-0.028 l -0.779983,-11.0001 11.817415,-1.4159 -14.878593,-25.31744 z m 7e-6,42.8035 c 0.02514,-0.01 0.01985,-0.01 0.02155,0.034 1.7e-4,0.028 0.0054,0.027 -0.0197,0.034 -0.02562,0.01 -0.02007,0.01 -0.0214,-0.028 -1.7e-4,-0.028 -0.0062,-0.033 0.02111,-0.034 z"
       style="color:#000000;font-style:normal;font-variant:normal;font-weight:normal;font-stretch:normal;font-size:medium;line-height:normal;font-family:sans-serif;text-indent:0;text-align:start;text-decoration:none;text-decoration-line:none;text-decoration-style:solid;text-decoration-color:#000000;letter-spacing:normal;word-spacing:normal;text-transform:none;direction:ltr;block-progression:tb;writing-mode:lr-tb;baseline-shift:baseline;text-anchor:start;white-space:normal;clip-rule:nonzero;display:inline;overflow:visible;visibility:visible;opacity:1;isolation:auto;mix-blend-mode:normal;color-interpolation:sRGB;color-interpolation-filters:linearRGB;solid-color:#000000;solid-opacity:1;fill:#333333;fill-opacity:1;fill-rule:evenodd;stroke:none;stroke-width:1.00000012;stroke-linecap:round;stroke-linejoin:miter;stroke-miterlimit:4;stroke-dasharray:none;stroke-dashoffset:0;stroke-opacity:1;color-rendering:auto;image-rendering:auto;shape-rendering:auto;text-rendering:auto;enable-background:accumulate" />
  </g>
</svg>
