<?xml version="1.0" encoding="UTF-8" standalone="no"?>
<!-- Created with Inkscape (http://www.inkscape.org/) -->

<svg
   xmlns:dc="http://purl.org/dc/elements/1.1/"
   xmlns:cc="http://creativecommons.org/ns#"
   xmlns:rdf="http://www.w3.org/1999/02/22-rdf-syntax-ns#"
   xmlns:svg="http://www.w3.org/2000/svg"
   xmlns="http://www.w3.org/2000/svg"
   xmlns:sodipodi="http://sodipodi.sourceforge.net/DTD/sodipodi-0.dtd"
   xmlns:inkscape="http://www.inkscape.org/namespaces/inkscape"
   width="102"
   height="68"
   viewBox="0 0 102 68"
   id="svg2"
   version="1.1"
   inkscape:version="0.91 r13725"
   sodipodi:docname="ic_scale.svg"
   inkscape:export-filename="/Users/markus/path5202.png"
   inkscape:export-xdpi="3840"
   inkscape:export-ydpi="3840">
  <sodipodi:namedview
     id="base"
     pagecolor="#ffffff"
     bordercolor="#666666"
     borderopacity="1.0"
     inkscape:pageopacity="0.0"
     inkscape:pageshadow="2"
     inkscape:zoom="1.8499027"
     inkscape:cx="50.599019"
     inkscape:cy="23.422269"
     inkscape:document-units="px"
     inkscape:current-layer="layer1"
     showgrid="false"
     units="px"
     inkscape:showpageshadow="false"
     showguides="true"
     inkscape:guide-bbox="true"
     inkscape:window-width="1680"
     inkscape:window-height="925"
     inkscape:window-x="0"
     inkscape:window-y="1"
     inkscape:window-maximized="1"
     fit-margin-top="0"
     fit-margin-left="0"
     fit-margin-right="0"
     fit-margin-bottom="0">
    <inkscape:grid
       enabled="false"
       snapvisiblegridlinesonly="true"
       id="grid4582"
       type="xygrid"
       originx="-13.657725"
       originy="-39.796853" />
  </sodipodi:namedview>
  <defs
     id="defs4" />
  <metadata
     id="metadata7">
    <rdf:RDF>
      <cc:Work
         rdf:about="">
        <dc:format>image/svg+xml</dc:format>
        <dc:type
           rdf:resource="http://purl.org/dc/dcmitype/StillImage" />
        <dc:title></dc:title>
      </cc:Work>
    </rdf:RDF>
  </metadata>
  <g
     transform="translate(-13.657727,-944.56545)"
     id="layer1"
     inkscape:groupmode="layer"
     inkscape:label="Ebene 1">
    <g
       id="g4490"
       transform="translate(0.4009755,-0.6767)">
      <path
         sodipodi:nodetypes="cccccssccccccsscscssccscccsscccccccccc"
         inkscape:transform-center-y="-7.4396044"
         inkscape:transform-center-x="-0.19076164"
         inkscape:connector-curvature="0"
         id="path5917"
         d="m 64.235859,945.91885 -8.586187,13.37016 6.967126,1.33702 -0.970139,13.56471 c -0.424035,0.0519 -0.836705,0.0986 -1.305663,0.17105 -4.670333,0.7824 -9.182497,2.78695 -13.408071,4.63255 -5.390182,2.35432 -10.331928,7.03351 -13.834978,6.63286 -6.86806,-0.78557 -13.250504,-6.99725 -14.397734,-8.16573 -0.53714,-0.67004 -1.34911,-1.06018 -2.20788,-1.06152 -1.56558,-9e-5 -2.83474,1.26908 -2.83461,2.83464 -1.3e-4,1.56553 1.26903,2.83471 2.83461,2.83462 0.72874,-6.6e-4 1.4292,-0.28231 1.95592,-0.78601 2.883014,2.55439 8.045564,6.2907 14.233214,6.99844 0.63334,0.0725 1.26929,0.0973 1.90759,0.081 4.46817,-0.11421 9.058885,-2.25265 13.772337,-4.31135 3.891921,-1.69991 7.858047,-3.38163 11.629638,-4.18732 0,0 2.28944,1.26978 4.24349,1.33702 1.954049,0.0672 4.24349,-1.33832 4.24349,-1.33832 3.772392,0.80543 7.739321,2.48829 11.632245,4.18862 5.386773,2.3528 10.613238,4.80993 15.679929,4.2304 6.283114,-0.71866 11.449744,-4.49741 14.261954,-7.00889 0.52859,0.51096 1.23507,0.79655 1.9703,0.79647 1.56518,-4.6e-4 2.8334,-1.26961 2.83334,-2.83463 -1.4e-4,-1.56488 -1.2683,-2.834 -2.83334,-2.83464 -0.57639,5.7e-4 -1.13894,0.17683 -1.61251,0.5053 -0.15389,0.0833 -0.28947,0.18895 -0.40084,0.31206 0,0 -7.05684,7.54307 -14.635385,8.40989 -3.50305,0.40065 -8.444797,-4.27853 -13.83498,-6.63286 -4.22671,-1.8461 -8.740278,-3.8506 -13.411947,-4.63255 -0.438408,-0.0676 -0.86993,-0.1221 -1.303124,-0.17888 l -0.968802,-13.55693 6.967127,-1.33702 z m -6.7e-5,30.79969 c 0.774868,3.4e-4 1.40253,0.62881 1.40233,1.40361 -4.01e-4,0.77428 -0.627997,1.40187 -1.402263,1.40229 -0.774801,1.9e-4 -1.403333,-0.6275 -1.403667,-1.40229 -2.68e-4,-0.77531 0.628331,-1.40389 1.4036,-1.40361 z"
         style="color:#000000;font-style:normal;font-variant:normal;font-weight:normal;font-stretch:normal;font-size:medium;line-height:normal;font-family:sans-serif;text-indent:0;text-align:start;text-decoration:none;text-decoration-line:none;text-decoration-style:solid;text-decoration-color:#000000;letter-spacing:normal;word-spacing:normal;text-transform:none;direction:ltr;block-progression:tb;writing-mode:lr-tb;baseline-shift:baseline;text-anchor:start;white-space:normal;clip-rule:nonzero;display:inline;overflow:visible;visibility:visible;opacity:1;isolation:auto;mix-blend-mode:normal;color-interpolation:sRGB;color-interpolation-filters:linearRGB;solid-color:#000000;solid-opacity:1;fill:#333333;fill-opacity:1;fill-rule:evenodd;stroke:none;stroke-width:3.00000024;stroke-linecap:round;stroke-linejoin:round;stroke-miterlimit:4;stroke-dasharray:none;stroke-dashoffset:0;stroke-opacity:1;color-rendering:auto;image-rendering:auto;shape-rendering:auto;text-rendering:auto;enable-background:accumulate" />
      <circle
         r="4.7213039"
         cy="978.32544"
         cx="64.286507"
         id="circle5919"
         style="fill:#333333;fill-opacity:1;stroke:none;stroke-width:1.5;stroke-linecap:butt;stroke-linejoin:round;stroke-miterlimit:4;stroke-dasharray:none;stroke-opacity:1" />
      <circle
         style="fill:#ffffff;fill-opacity:1;stroke:none;stroke-width:1.5;stroke-linecap:butt;stroke-linejoin:round;stroke-miterlimit:4;stroke-dasharray:none;stroke-opacity:1"
         id="circle5921"
         cx="64.286507"
         cy="978.32544"
         r="2.6229465" />
      <circle
         r="1.6691477"
         cy="978.32544"
         cx="64.286507"
         id="circle5923"
         style="fill:#1a1a1a;fill-opacity:1;stroke:none;stroke-width:1.5;stroke-linecap:butt;stroke-linejoin:round;stroke-miterlimit:4;stroke-dasharray:none;stroke-opacity:1" />
    </g>
  </g>
</svg>
