<?xml version="1.0" encoding="UTF-8" standalone="no"?>
<svg
   xmlns:dc="http://purl.org/dc/elements/1.1/"
   xmlns:cc="http://creativecommons.org/ns#"
   xmlns:rdf="http://www.w3.org/1999/02/22-rdf-syntax-ns#"
   xmlns:svg="http://www.w3.org/2000/svg"
   xmlns="http://www.w3.org/2000/svg"
   xmlns:sodipodi="http://sodipodi.sourceforge.net/DTD/sodipodi-0.dtd"
   xmlns:inkscape="http://www.inkscape.org/namespaces/inkscape"
   inkscape:export-ydpi="3840"
   inkscape:export-xdpi="3840"
   inkscape:export-filename="/Users/markus/path5202.png"
   sodipodi:docname="ic_splash.svg"
   inkscape:version="1.0beta1 (32d4812, 2019-09-19)"
   version="1.1"
   id="svg2"
   viewBox="0 0 128.00001 128"
   height="128"
   width="128">
  <sodipodi:namedview
     inkscape:document-rotation="0"
     inkscape:window-maximized="0"
     inkscape:window-y="100"
     inkscape:window-x="86"
     inkscape:window-height="907"
     inkscape:window-width="1600"
     inkscape:guide-bbox="true"
     showguides="true"
     inkscape:showpageshadow="false"
     units="px"
     showgrid="false"
     inkscape:current-layer="layer1"
     inkscape:document-units="px"
     inkscape:cy="64.000018"
     inkscape:cx="63.999994"
     inkscape:zoom="5.6216028"
     inkscape:pageshadow="2"
     inkscape:pageopacity="0.0"
     borderopacity="1.0"
     bordercolor="#666666"
     pagecolor="#ffffff"
     id="base">
    <inkscape:grid
       type="xygrid"
       id="grid4582"
       snapvisiblegridlinesonly="true"
       enabled="false" />
  </sodipodi:namedview>
  <defs
     id="defs4" />
  <metadata
     id="metadata7">
    <rdf:RDF>
      <cc:Work
         rdf:about="">
        <dc:format>image/svg+xml</dc:format>
        <dc:type
           rdf:resource="http://purl.org/dc/dcmitype/StillImage" />
        <dc:title />
      </cc:Work>
    </rdf:RDF>
  </metadata>
  <g
     inkscape:label="Ebene 1"
     inkscape:groupmode="layer"
     id="layer1"
     transform="translate(0,-924.3623)">
    <path
       sodipodi:nodetypes="ccccc"
       inkscape:connector-curvature="0"
       id="path5897"
       d="m 58.273201,974.97933 11.964052,0 -3.988018,75.55387 -3.988017,0 z"
       style="fill:#000000;fill-opacity:0.10196079;stroke:none;stroke-width:2;stroke-linecap:butt;stroke-linejoin:round;stroke-miterlimit:4;stroke-dasharray:none;stroke-opacity:1" />
    <path
       inkscape:connector-curvature="0"
       id="path5901"
       d="m 18.101562,976.92578 c -0.507701,-0.0293 -0.945656,0.20875 -1.320312,0.52734 -0.374656,0.3186 -0.719629,0.74307 -1.070312,1.26563 -0.701367,1.04512 -1.418929,2.4884 -2.160157,4.2168 -1.482456,3.4568 -3.041182,8.04626 -4.4667966,12.64257 -2.8512295,9.19268 -5.1660157,18.40428 -5.1660156,18.40428 a 0.6647361,0.6647361 0 1 0 1.2890624,0.3242 c 0,0 2.3093725,-9.1868 5.1464848,-18.33394 1.418556,-4.57356 2.970765,-9.13908 4.417968,-12.51368 0.723602,-1.68729 1.425209,-3.07946 2.042969,-4 0.30888,-0.46026 0.600527,-0.80059 0.828125,-0.99414 0.227598,-0.19354 0.359493,-0.21423 0.382813,-0.21289 0.03337,0.002 0.196967,0.0528 0.433593,0.27344 0.236627,0.22069 0.527649,0.58527 0.835938,1.06445 0.616579,0.95837 1.31094,2.37253 2.02539,4.07227 1.428902,3.39947 2.954897,7.94901 4.347657,12.49219 2.785519,9.0863 5.042969,18.1523 5.042969,18.1523 a 0.6653068,0.6653068 0 1 0 1.291015,-0.3222 c 0,0 -2.265336,-9.09 -5.064453,-18.22073 -1.399558,-4.56535 -2.930696,-9.13925 -4.392578,-12.61719 -0.730941,-1.73896 -1.441596,-3.20296 -2.132813,-4.27734 -0.345608,-0.53719 -0.684279,-0.97823 -1.046875,-1.31641 -0.362596,-0.33817 -0.766008,-0.5982 -1.263672,-0.62695 z"
       style="color:#000000;font-style:normal;font-variant:normal;font-weight:normal;font-stretch:normal;font-size:medium;line-height:normal;font-family:sans-serif;text-indent:0;text-align:start;text-decoration:none;text-decoration-line:none;text-decoration-style:solid;text-decoration-color:#000000;letter-spacing:normal;word-spacing:normal;text-transform:none;direction:ltr;block-progression:tb;writing-mode:lr-tb;baseline-shift:baseline;text-anchor:start;white-space:normal;clip-rule:nonzero;display:inline;overflow:visible;visibility:visible;opacity:1;isolation:auto;mix-blend-mode:normal;color-interpolation:sRGB;color-interpolation-filters:linearRGB;solid-color:#000000;solid-opacity:1;fill:#000000;fill-opacity:0.10196079;fill-rule:evenodd;stroke:none;stroke-width:1.32933927;stroke-linecap:round;stroke-linejoin:round;stroke-miterlimit:4;stroke-dasharray:none;stroke-dashoffset:0;stroke-opacity:1;color-rendering:auto;image-rendering:auto;shape-rendering:auto;text-rendering:auto;enable-background:accumulate" />
    <g
       id="g5903"
       transform="matrix(1.3238621,0,0,1.3238621,603.64312,489.2516)">
      <path
         d="m -442.81429,350.51424 a 40.929768,40.929768 0 0 1 35.44622,-20.46488 l 0,40.92977 z"
         sodipodi:end="4.712389"
         sodipodi:start="3.6651914"
         sodipodi:ry="40.929768"
         sodipodi:rx="40.929768"
         sodipodi:cy="370.97913"
         sodipodi:cx="-407.36807"
         sodipodi:type="arc"
         id="path5905"
         style="fill:#ff6600;fill-opacity:1;stroke:none;stroke-width:10.00000095;stroke-linecap:butt;stroke-linejoin:round;stroke-miterlimit:4;stroke-dasharray:none;stroke-opacity:1" />
      <path
         style="fill:#ffcc00;fill-opacity:1;stroke:none;stroke-width:10.00000095;stroke-linecap:butt;stroke-linejoin:round;stroke-miterlimit:4;stroke-dasharray:none;stroke-opacity:1"
         id="path5907"
         sodipodi:type="arc"
         sodipodi:cx="-407.36807"
         sodipodi:cy="370.97913"
         sodipodi:rx="40.929768"
         sodipodi:ry="40.929768"
         sodipodi:start="4.712389"
         sodipodi:end="5.4977871"
         d="m -407.36807,330.04936 a 40.929768,40.929768 0 0 1 28.94171,11.98805 l -28.94171,28.94172 z" />
      <path
         d="m -378.42636,342.03741 a 40.929768,40.929768 0 0 1 6.50451,8.47683 l -35.44622,20.46489 z"
         sodipodi:end="5.7595865"
         sodipodi:start="5.4977871"
         sodipodi:ry="40.929768"
         sodipodi:rx="40.929768"
         sodipodi:cy="370.97913"
         sodipodi:cx="-407.36807"
         sodipodi:type="arc"
         id="path5909"
         style="fill:#55d400;fill-opacity:1;stroke:none;stroke-width:10.00000095;stroke-linecap:butt;stroke-linejoin:round;stroke-miterlimit:4;stroke-dasharray:none;stroke-opacity:1" />
    </g>
    <path
       inkscape:connector-curvature="0"
       id="path5911"
       d="m 110.18164,976.73633 c -0.5077,-0.0293 -0.94566,0.20875 -1.32031,0.52734 -0.37466,0.3186 -0.71768,0.74307 -1.06836,1.26563 -0.70137,1.04512 -1.42088,2.48839 -2.16211,4.21679 -1.48246,3.4568 -3.03923,8.04627 -4.46484,12.64258 -2.851234,9.19263 -5.167973,18.40623 -5.167973,18.40623 a 0.66554965,0.66554965 0 1 0 1.291015,0.3242 c 0,0 2.309372,-9.1888 5.146488,-18.3359 1.41855,-4.57355 2.97076,-9.13907 4.41797,-12.51367 0.7236,-1.6873 1.4252,-3.07946 2.04296,-4 0.30888,-0.46027 0.59858,-0.8006 0.82618,-0.99414 0.22759,-0.19354 0.35949,-0.21424 0.38281,-0.21289 0.0334,0.002 0.19892,0.0527 0.43555,0.27344 0.23662,0.22069 0.52764,0.58527 0.83593,1.06445 0.61658,0.95837 1.30899,2.37253 2.02344,4.07227 1.4289,3.39947 2.9549,7.94901 4.34766,12.49218 2.78552,9.08636 5.04492,18.15236 5.04492,18.15236 a 0.6647361,0.6647361 0 1 0 1.28906,-0.3223 c 0,0 -2.26338,-9.09 -5.0625,-18.22068 -1.39956,-4.56535 -2.9307,-9.13925 -4.39258,-12.61719 -0.73094,-1.73897 -1.44159,-3.20101 -2.13281,-4.27539 -0.34561,-0.53719 -0.68428,-0.97823 -1.04687,-1.31641 -0.3626,-0.33817 -0.76797,-0.60016 -1.26563,-0.6289 z"
       style="color:#000000;font-style:normal;font-variant:normal;font-weight:normal;font-stretch:normal;font-size:medium;line-height:normal;font-family:sans-serif;text-indent:0;text-align:start;text-decoration:none;text-decoration-line:none;text-decoration-style:solid;text-decoration-color:#000000;letter-spacing:normal;word-spacing:normal;text-transform:none;direction:ltr;block-progression:tb;writing-mode:lr-tb;baseline-shift:baseline;text-anchor:start;white-space:normal;clip-rule:nonzero;display:inline;overflow:visible;visibility:visible;opacity:1;isolation:auto;mix-blend-mode:normal;color-interpolation:sRGB;color-interpolation-filters:linearRGB;solid-color:#000000;solid-opacity:1;fill:#000000;fill-opacity:0.10196079;fill-rule:evenodd;stroke:none;stroke-width:1.32933927;stroke-linecap:round;stroke-linejoin:round;stroke-miterlimit:4;stroke-dasharray:none;stroke-dashoffset:0;stroke-opacity:1;color-rendering:auto;image-rendering:auto;shape-rendering:auto;text-rendering:auto;enable-background:accumulate" />
    <path
       sodipodi:nodetypes="csczc"
       inkscape:connector-curvature="0"
       id="path5913"
       d="m 32.76026,1013.589 c 0,2.2854 -6.626556,8.1261 -14.800861,8.1261 -8.1742389,0 -14.8008612,-5.8407 -14.8008612,-8.1261 0,0 4.2716317,0.5655 14.8008612,0.5655 10.529229,0 14.800861,-0.5655 14.800861,-0.5655 z"
       style="fill:#1a1a1a;fill-opacity:1;stroke:none;stroke-width:3;stroke-linecap:round;stroke-linejoin:round;stroke-miterlimit:4;stroke-dasharray:none" />
    <path
       style="fill:#1a1a1a;fill-opacity:1;stroke:none;stroke-width:3;stroke-linecap:round;stroke-linejoin:round;stroke-miterlimit:4;stroke-dasharray:none"
       d="m 124.84145,1013.4 c 0,2.2854 -6.62656,8.1261 -14.80086,8.1261 -8.17424,0 -14.800862,-5.8407 -14.800862,-8.1261 0,0 4.271631,0.5655 14.800862,0.5655 10.52923,0 14.80086,-0.5655 14.80086,-0.5655 z"
       id="path5915"
       inkscape:connector-curvature="0"
       sodipodi:nodetypes="csczc" />
    <path
       sodipodi:nodetypes="cccccssccccccsscscssccscccsscccccccccc"
       inkscape:transform-center-y="-11.128703"
       inkscape:transform-center-x="-0.28535136"
       inkscape:connector-curvature="0"
       id="path5917"
       d="m 64.234489,946.16255 -8.536882,13.29339 6.927119,1.32934 -0.964568,13.48683 c -0.4216,0.0516 -0.831901,0.098 -1.298166,0.17006 -4.643515,0.77791 -9.129768,2.77095 -13.331078,4.60595 -5.35923,2.3408 -10.2726,6.99312 -13.755535,6.59477 -6.828615,-0.78106 -13.174415,-6.95707 -14.315054,-8.11884 -0.534062,-0.66619 -1.34137,-1.05409 -2.195204,-1.05542 -1.55659,-9e-5 -2.818465,1.26178 -2.818332,2.81835 -1.33e-4,1.55655 1.261742,2.81844 2.818332,2.81836 0.724556,-6.7e-4 1.420997,-0.28069 1.94469,-0.78151 2.866454,2.53972 7.999364,6.25458 14.151479,6.95826 0.629708,0.072 1.262008,0.0967 1.896634,0.0805 4.442518,-0.11355 9.006871,-2.23971 13.693256,-4.28659 3.869573,-1.69015 7.812924,-3.36222 11.562857,-4.16328 0,0 2.276294,1.26249 4.219123,1.32934 1.942829,0.0668 4.219123,-1.33063 4.219123,-1.33063 3.75073,0.80081 7.694879,2.474 11.565449,4.16457 5.35584,2.33929 10.552293,4.78231 15.58989,4.20611 6.247028,-0.71453 11.383998,-4.47159 14.180058,-6.96865 0.52556,0.50804 1.22798,0.79198 1.95898,0.7919 1.55619,-4.6e-4 2.81714,-1.26232 2.81707,-2.81836 -1.3e-4,-1.55588 -1.26101,-2.81772 -2.81707,-2.81835 -0.57308,5.6e-4 -1.1324,0.17581 -1.60325,0.50239 -0.153,0.0828 -0.2878,0.18787 -0.39853,0.31027 0,0 -7.01632,7.49976 -14.551347,8.3616 -3.482935,0.39835 -8.396305,-4.25396 -13.755535,-6.59477 -4.20244,-1.8355 -8.690089,-3.82849 -13.334933,-4.60595 -0.43589,-0.0672 -0.864934,-0.1214 -1.29564,-0.17785 l -0.963239,-13.47904 6.927119,-1.32934 z m -6.6e-5,30.62284 c 0.770418,3.3e-4 1.394476,0.62519 1.394277,1.39554 -3.99e-4,0.76984 -0.624391,1.39382 -1.394211,1.39425 -0.770352,1.8e-4 -1.395274,-0.6239 -1.395606,-1.39425 -2.66e-4,-0.77085 0.624722,-1.39582 1.39554,-1.39554 z"
       style="color:#000000;font-style:normal;font-variant:normal;font-weight:normal;font-stretch:normal;font-size:medium;line-height:normal;font-family:sans-serif;text-indent:0;text-align:start;text-decoration:none;text-decoration-line:none;text-decoration-style:solid;text-decoration-color:#000000;letter-spacing:normal;word-spacing:normal;text-transform:none;direction:ltr;block-progression:tb;writing-mode:lr-tb;baseline-shift:baseline;text-anchor:start;white-space:normal;clip-rule:nonzero;display:inline;overflow:visible;visibility:visible;opacity:1;isolation:auto;mix-blend-mode:normal;color-interpolation:sRGB;color-interpolation-filters:linearRGB;solid-color:#000000;solid-opacity:1;fill:#333333;fill-opacity:1;fill-rule:evenodd;stroke:none;stroke-width:3.00000024;stroke-linecap:round;stroke-linejoin:round;stroke-miterlimit:4;stroke-dasharray:none;stroke-dashoffset:0;stroke-opacity:1;color-rendering:auto;image-rendering:auto;shape-rendering:auto;text-rendering:auto;enable-background:accumulate" />
    <circle
       r="4.6941929"
       cy="978.38306"
       cx="64.284851"
       id="circle5919"
       style="fill:#333333;fill-opacity:1;stroke:none;stroke-width:1.5;stroke-linecap:butt;stroke-linejoin:round;stroke-miterlimit:4;stroke-dasharray:none;stroke-opacity:1" />
    <circle
       style="fill:#ffffff;fill-opacity:1;stroke:none;stroke-width:1.5;stroke-linecap:butt;stroke-linejoin:round;stroke-miterlimit:4;stroke-dasharray:none;stroke-opacity:1"
       id="circle5921"
       cx="64.284851"
       cy="978.38306"
       r="2.6078849" />
    <circle
       r="1.6595631"
       cy="978.38306"
       cx="64.284851"
       id="circle5923"
       style="fill:#1a1a1a;fill-opacity:1;stroke:none;stroke-width:1.5;stroke-linecap:butt;stroke-linejoin:round;stroke-miterlimit:4;stroke-dasharray:none;stroke-opacity:1" />
  </g>
</svg>
