<?xml version="1.0" encoding="UTF-8" standalone="no"?>
<svg
   xmlns:dc="http://purl.org/dc/elements/1.1/"
   xmlns:cc="http://creativecommons.org/ns#"
   xmlns:rdf="http://www.w3.org/1999/02/22-rdf-syntax-ns#"
   xmlns:svg="http://www.w3.org/2000/svg"
   xmlns="http://www.w3.org/2000/svg"
   xmlns:sodipodi="http://sodipodi.sourceforge.net/DTD/sodipodi-0.dtd"
   xmlns:inkscape="http://www.inkscape.org/namespaces/inkscape"
   height="24"
   viewBox="0 0 48 24"
   width="48"
   id="svg2"
   version="1.1"
   inkscape:version="0.91 r13725"
   sodipodi:docname="swipe_right.svg"
   style="fill:#000000">
  <metadata
     id="metadata12">
    <rdf:RDF>
      <cc:Work
         rdf:about="">
        <dc:format>image/svg+xml</dc:format>
        <dc:type
           rdf:resource="http://purl.org/dc/dcmitype/StillImage" />
        <dc:title />
      </cc:Work>
    </rdf:RDF>
  </metadata>
  <defs
     id="defs10" />
  <sodipodi:namedview
     pagecolor="#ffffff"
     bordercolor="#666666"
     borderopacity="1"
     objecttolerance="10"
     gridtolerance="10"
     guidetolerance="10"
     inkscape:pageopacity="0"
     inkscape:pageshadow="2"
     inkscape:window-width="1680"
     inkscape:window-height="925"
     id="namedview8"
     showgrid="false"
     inkscape:showpageshadow="false"
     inkscape:zoom="11.03125"
     inkscape:cx="24"
     inkscape:cy="12"
     inkscape:window-x="0"
     inkscape:window-y="1"
     inkscape:window-maximized="1"
     inkscape:current-layer="svg2" />
  <g
     id="g4223"
     style="fill:#f0f0f0;fill-opacity:1"
     transform="translate(-0.49839,0)">
    <path
       id="path4211"
       d="m 14.49839,7.41 1.41,-1.41 6,6 -6,6 -1.41,-1.41 4.58,-4.59 z"
       inkscape:connector-curvature="0"
       style="fill:#f0f0f0;fill-opacity:1" />
    <path
       inkscape:connector-curvature="0"
       d="m 8.49839,7.41 1.41,-1.41 6,6 -6,6 -1.41,-1.41 4.58,-4.59 z"
       id="path4227"
       style="fill:#f0f0f0;fill-opacity:1" />
    <path
       id="path4233"
       d="m 2.49839,7.41 1.41,-1.41 6,6 -6,6 -1.41,-1.41 4.58,-4.59 z"
       inkscape:connector-curvature="0"
       style="fill:#f0f0f0;fill-opacity:1" />
  </g>
  <path
     d="M 36,2 C 30.48,2 26,6.48 26,12 26,17.52 30.48,22 36,22 41.52,22 46,17.52 46,12 46,6.48 41.52,2 36,2 Z m 5,11 -4,0 0,4 -2,0 0,-4 -4,0 0,-2 4,0 0,-4 2,0 0,4 4,0 0,2 z"
     id="path6-1"
     inkscape:connector-curvature="0"
     style="fill:#f0f0f0;fill-opacity:1" />
</svg>
