<?xml version="1.0" encoding="UTF-8" standalone="no"?>
<svg
   xmlns:dc="http://purl.org/dc/elements/1.1/"
   xmlns:cc="http://creativecommons.org/ns#"
   xmlns:rdf="http://www.w3.org/1999/02/22-rdf-syntax-ns#"
   xmlns:svg="http://www.w3.org/2000/svg"
   xmlns="http://www.w3.org/2000/svg"
   xmlns:sodipodi="http://sodipodi.sourceforge.net/DTD/sodipodi-0.dtd"
   xmlns:inkscape="http://www.inkscape.org/namespaces/inkscape"
   height="24"
   viewBox="0 0 120 24"
   width="120"
   id="svg2"
   version="1.1"
   inkscape:version="0.91 r13725"
   sodipodi:docname="swipe_right.svg"
   style="fill:#000000">
  <metadata
     id="metadata12">
    <rdf:RDF>
      <cc:Work
         rdf:about="">
        <dc:format>image/svg+xml</dc:format>
        <dc:type
           rdf:resource="http://purl.org/dc/dcmitype/StillImage" />
        <dc:title />
      </cc:Work>
    </rdf:RDF>
  </metadata>
  <defs
     id="defs10" />
  <sodipodi:namedview
     pagecolor="#ffffff"
     bordercolor="#666666"
     borderopacity="1"
     objecttolerance="10"
     gridtolerance="10"
     guidetolerance="10"
     inkscape:pageopacity="0"
     inkscape:pageshadow="2"
     inkscape:window-width="1680"
     inkscape:window-height="925"
     id="namedview8"
     showgrid="false"
     inkscape:showpageshadow="false"
     inkscape:zoom="4.4872881"
     inkscape:cx="59"
     inkscape:cy="12"
     inkscape:window-x="0"
     inkscape:window-y="1"
     inkscape:window-maximized="1"
     inkscape:current-layer="svg2" />
  <path
     style="fill:#f0f0f0;fill-opacity:1"
     d="m 77.505862,0 12,12 -12,12 -7.50586,0 11.97266,-12 -11.97266,-12 7.50586,0 z m -14,0 12,12 -12,12 -7.505859,0 L 67.972659,12 56.000003,0 63.505862,0 Z m -14,0 12,12 -12,12 -7.505859,0 L 53.972659,12 42.000003,0 49.505862,0 Z m -14,0 12,12 -12,12 -7.505859,0 L 39.972659,12 28.000003,0 35.505862,0 Z m -14,0 12,12 -12,12 L 14,24 25.972659,12 14,0 21.505862,0 Z M 7.50586,0 l 12,12 -12,12 L 0,24 11.97266,12 0,0 7.50586,0 Z"
     id="path4211"
     inkscape:connector-curvature="0" />
  <path
     d="m 108,2 c -5.52,0 -10,4.48 -10,10 0,5.52 4.48,10 10,10 5.52,0 10,-4.48 10,-10 0,-5.52 -4.48,-10 -10,-10 z m 5,11 -4,0 0,4 -2,0 0,-4 -4,0 0,-2 4,0 0,-4 2,0 0,4 4,0 0,2 z"
     id="path6-1-0"
     inkscape:connector-curvature="0"
     style="fill:#f0f0f0;fill-opacity:1" />
</svg>
