<?xml version="1.0" encoding="UTF-8" standalone="no"?>
<svg
   xmlns:dc="http://purl.org/dc/elements/1.1/"
   xmlns:cc="http://creativecommons.org/ns#"
   xmlns:rdf="http://www.w3.org/1999/02/22-rdf-syntax-ns#"
   xmlns:svg="http://www.w3.org/2000/svg"
   xmlns="http://www.w3.org/2000/svg"
   xmlns:sodipodi="http://sodipodi.sourceforge.net/DTD/sodipodi-0.dtd"
   xmlns:inkscape="http://www.inkscape.org/namespaces/inkscape"
   height="24"
   viewBox="0 0 48 24"
   width="48"
   id="svg2"
   version="1.1"
   inkscape:version="0.91 r13725"
   sodipodi:docname="swipe_left.svg"
   style="fill:#000000">
  <metadata
     id="metadata12">
    <rdf:RDF>
      <cc:Work
         rdf:about="">
        <dc:format>image/svg+xml</dc:format>
        <dc:type
           rdf:resource="http://purl.org/dc/dcmitype/StillImage" />
        <dc:title />
      </cc:Work>
    </rdf:RDF>
  </metadata>
  <defs
     id="defs10" />
  <sodipodi:namedview
     pagecolor="#ffffff"
     bordercolor="#666666"
     borderopacity="1"
     objecttolerance="10"
     gridtolerance="10"
     guidetolerance="10"
     inkscape:pageopacity="0"
     inkscape:pageshadow="2"
     inkscape:window-width="1680"
     inkscape:window-height="925"
     id="namedview8"
     showgrid="false"
     inkscape:showpageshadow="false"
     inkscape:zoom="11.03125"
     inkscape:cx="24"
     inkscape:cy="12"
     inkscape:window-x="0"
     inkscape:window-y="1"
     inkscape:window-maximized="1"
     inkscape:current-layer="svg2" />
  <g
     id="g4243"
     transform="translate(0.59,0)"
     style="fill:#f0f0f0;fill-opacity:1">
    <path
       id="path4211"
       d="M 33.41,7.41 32,6 26,12 32,18 33.41,16.59 28.83,12 Z"
       inkscape:connector-curvature="0"
       style="fill:#f0f0f0;fill-opacity:1" />
    <path
       inkscape:connector-curvature="0"
       d="M 39.41,7.41 38,6 32,12 38,18 39.41,16.59 34.83,12 Z"
       id="path4227"
       style="fill:#f0f0f0;fill-opacity:1" />
    <path
       id="path4233"
       d="M 45.41,7.41 44,6 38,12 44,18 45.41,16.59 40.83,12 Z"
       inkscape:connector-curvature="0"
       style="fill:#f0f0f0;fill-opacity:1" />
  </g>
  <path
     d="M 12,2 C 6.48,2 2,6.48 2,12 2,17.52 6.48,22 12,22 17.52,22 22,17.52 22,12 22,6.48 17.52,2 12,2 Z m 5,11 -10,0 0,-2 10,0 0,2 z"
     id="path6-1"
     inkscape:connector-curvature="0"
     style="fill:#f0f0f0;fill-opacity:1" />
</svg>
