<?xml version="1.0" encoding="UTF-8" standalone="no"?>
<!-- Created with Inkscape (http://www.inkscape.org/) -->

<svg
   xmlns:dc="http://purl.org/dc/elements/1.1/"
   xmlns:cc="http://creativecommons.org/ns#"
   xmlns:rdf="http://www.w3.org/1999/02/22-rdf-syntax-ns#"
   xmlns:svg="http://www.w3.org/2000/svg"
   xmlns="http://www.w3.org/2000/svg"
   xmlns:sodipodi="http://sodipodi.sourceforge.net/DTD/sodipodi-0.dtd"
   xmlns:inkscape="http://www.inkscape.org/namespaces/inkscape"
   width="192"
   height="192"
   viewBox="0 0 192.00001 192"
   id="svg2"
   version="1.1"
   inkscape:version="0.91 r13725"
   sodipodi:docname="ic_launcher.svg"
   inkscape:export-filename="/Users/markus/path5202.png"
   inkscape:export-xdpi="3840"
   inkscape:export-ydpi="3840">
  <sodipodi:namedview
     id="base"
     pagecolor="#ffffff"
     bordercolor="#666666"
     borderopacity="1.0"
     inkscape:pageopacity="0.0"
     inkscape:pageshadow="2"
     inkscape:zoom="0.70710678"
     inkscape:cx="95.999998"
     inkscape:cy="8.098784"
     inkscape:document-units="px"
     inkscape:current-layer="layer1"
     showgrid="false"
     units="px"
     inkscape:showpageshadow="false"
     showguides="true"
     inkscape:guide-bbox="true"
     inkscape:window-width="1521"
     inkscape:window-height="849"
     inkscape:window-x="96"
     inkscape:window-y="55"
     inkscape:window-maximized="0">
    <inkscape:grid
       enabled="false"
       snapvisiblegridlinesonly="true"
       id="grid4582"
       type="xygrid" />
  </sodipodi:namedview>
  <defs
     id="defs4" />
  <metadata
     id="metadata7">
    <rdf:RDF>
      <cc:Work
         rdf:about="">
        <dc:format>image/svg+xml</dc:format>
        <dc:type
           rdf:resource="http://purl.org/dc/dcmitype/StillImage" />
        <dc:title />
      </cc:Work>
    </rdf:RDF>
  </metadata>
  <g
     transform="translate(0,-860.36232)"
     id="layer1"
     inkscape:groupmode="layer"
     inkscape:label="Ebene 1">
    <circle
       style="fill:#f9f9f9;fill-opacity:1;stroke:none;stroke-width:4;stroke-linecap:butt;stroke-linejoin:miter;stroke-miterlimit:4;stroke-dasharray:none;stroke-opacity:1"
       id="circle4766"
       cx="96.000008"
       cy="955.3623"
       r="88" />
    <path
       style="fill:#ff6600;fill-opacity:1;stroke:none;stroke-width:10.00000095;stroke-linecap:butt;stroke-linejoin:round;stroke-miterlimit:4;stroke-dasharray:none;stroke-opacity:1"
       d="M 96.238281 50.921875 A 145.78065 145.78065 0 0 0 9.4296875 79.660156 A 87.999995 87.999995 0 0 0 8 95 A 87.999995 87.999995 0 0 0 96 183 A 87.999995 87.999995 0 0 0 96.238281 182.99219 L 96.238281 50.921875 z "
       transform="translate(0,860.36231)"
       id="path4751" />
    <path
       style="fill:#ffcc00;fill-opacity:1;stroke:none;stroke-width:10.00000095;stroke-linecap:butt;stroke-linejoin:round;stroke-miterlimit:4;stroke-dasharray:none;stroke-opacity:1"
       d="M 96.238281 50.921875 L 96.238281 182.99219 A 87.999995 87.999995 0 0 0 104.43164 182.51172 L 169.12891 70.453125 A 145.78065 145.78065 0 0 0 96.238281 50.921875 z "
       transform="translate(0,860.36231)"
       id="path4753" />
    <path
       style="fill:#55d400;fill-opacity:1;stroke:none;stroke-width:10.00000095;stroke-linecap:butt;stroke-linejoin:round;stroke-miterlimit:4;stroke-dasharray:none;stroke-opacity:1"
       d="M 169.12891 70.453125 L 104.43164 182.51172 A 87.999995 87.999995 0 0 0 184 95 A 87.999995 87.999995 0 0 0 182.55273 79.306641 A 145.78065 145.78065 0 0 0 169.12891 70.453125 z "
       transform="translate(0,860.36231)"
       id="path4755" />
    <path
       style="color:#000000;font-style:normal;font-variant:normal;font-weight:normal;font-stretch:normal;font-size:medium;line-height:normal;font-family:sans-serif;text-indent:0;text-align:start;text-decoration:none;text-decoration-line:none;text-decoration-style:solid;text-decoration-color:#000000;letter-spacing:normal;word-spacing:normal;text-transform:none;direction:ltr;block-progression:tb;writing-mode:lr-tb;baseline-shift:baseline;text-anchor:start;white-space:normal;clip-rule:nonzero;display:inline;overflow:visible;visibility:visible;opacity:1;isolation:auto;mix-blend-mode:normal;color-interpolation:sRGB;color-interpolation-filters:linearRGB;solid-color:#000000;solid-opacity:1;fill:#333333;fill-opacity:1;fill-rule:evenodd;stroke:none;stroke-width:1.00000012;stroke-linecap:round;stroke-linejoin:miter;stroke-miterlimit:4;stroke-dasharray:none;stroke-dashoffset:0;stroke-opacity:1;color-rendering:auto;image-rendering:auto;shape-rendering:auto;text-rendering:auto;enable-background:accumulate"
       d="M 95.941406 74.103516 L 95.943359 74.111328 L 92.75 79.517578 L 55.707031 142.60352 L 87.675781 146.44922 L 85.550781 176.20703 C 85.335275 176.18803 85.185319 176.30325 84.958984 176.28125 L 84.945312 176.28125 L 84.916016 176.28125 C 80.449078 177.02973 76.077044 178.17004 71.804688 179.5332 A 87.999995 87.999995 0 0 0 96 183 A 87.999995 87.999995 0 0 0 120.24219 179.55859 C 115.91918 178.17283 111.49309 177.0172 106.96875 176.25977 L 106.93945 176.25977 L 106.91016 176.25977 C 106.70533 176.23877 106.52884 176.18559 106.33203 176.18359 L 104.22266 146.42578 L 136.19336 142.5957 L 95.941406 74.103516 z "
       transform="translate(0,860.36231)"
       id="path4757" />
    <flowRoot
       xml:space="preserve"
       id="flowRoot3776"
       style="font-style:normal;font-weight:normal;font-size:40px;line-height:125%;font-family:Sans;letter-spacing:0px;word-spacing:0px;fill:#000000;fill-opacity:1;stroke:none;stroke-width:1px;stroke-linecap:butt;stroke-linejoin:miter;stroke-opacity:1"
       transform="translate(-195.16061,-71.999883)"><flowRegion
         id="flowRegion3778"><rect
           id="rect3780"
           width="29"
           height="71"
           x="52"
           y="60" /></flowRegion><flowPara
         id="flowPara3782" /></flowRoot>    <text
       xml:space="preserve"
       style="font-style:normal;font-weight:normal;font-size:40px;line-height:125%;font-family:Sans;letter-spacing:0px;word-spacing:0px;fill:#000000;fill-opacity:1;stroke:none"
       x="4481.2451"
       y="3296.0371"
       id="text5084"
       sodipodi:linespacing="125%"><tspan
         sodipodi:role="line"
         id="tspan5086"
         x="4481.2451"
         y="3296.0371" /></text>
    <g
       transform="matrix(-0.08387426,-0.31302318,-0.31302318,0.08387426,360.09971,885.77238)"
       id="g5355"
       style="fill:#333333">
      <path
         inkscape:connector-curvature="0"
         style="fill:#333333;fill-opacity:1;stroke:none"
         d="m 70.800257,803.10815 c 18.72634,-10.81207 42.064013,-4.55865 52.875453,14.16738 6.21553,10.76497 6.67525,22.98383 2.43735,33.71348 9.95484,0.22482 20.00712,3.82743 29.87632,9.35284 5.70581,-16.36426 17.92669,-30.34 32.41043,-37.86744 a 7.6098878,7.6098878 0 0 1 2.05397,-0.12843 7.6098878,7.6098878 0 0 1 2.05385,-0.12842 7.6098878,7.6098878 0 0 1 3.78076,1.01708 7.6098878,7.6098878 0 0 1 2.18403,1.941 7.6098878,7.6098878 0 0 1 1.16879,5.70957 7.6098878,7.6098878 0 0 1 -0.34046,1.25368 7.6098878,7.6098878 0 0 1 -0.34045,1.25368 7.6098878,7.6098878 0 0 1 -1.13869,1.71405 7.6098878,7.6098878 0 0 1 -2.39442,1.38323 c -12.33033,6.40652 -22.54596,18.62752 -26.1492,32.12255 6.50822,5.40015 12.37934,12.05934 17.69138,19.58251 2.94622,-3.19898 6.27645,-6.41509 9.78804,-8.85073 10.09338,-6.95039 22.03067,-10.77888 33.55578,-11.9223 a 7.6098878,7.6098878 0 0 1 1.25571,0.33189 7.6098878,7.6098878 0 0 1 2.51017,0.66378 7.6098878,7.6098878 0 0 1 2.18447,1.94102 7.6098878,7.6098878 0 0 1 2.42684,6.04679 7.6098878,7.6098878 0 0 1 -1.00849,3.78247 7.6098878,7.6098878 0 0 1 -1.5963,0.92072 7.6098878,7.6098878 0 0 1 -1.59626,0.92072 7.6098878,7.6098878 0 0 1 -2.85201,0.58884 c -13.65036,1.36931 -27.8309,8.78649 -36.37383,19.9433 4.14518,8.3272 7.21579,16.27327 8.91185,24.65187 15.54086,-3.62622 31.79047,-2.0192 45.28817,4.71176 a 7.6098878,7.6098878 0 0 1 1.71243,1.12411 7.6098878,7.6098878 0 0 1 1.84305,3.19152 7.6098878,7.6098878 0 0 1 0.45715,0.79218 7.6098878,7.6098878 0 0 1 0.58777,2.8607 7.6098878,7.6098878 0 0 1 -0.34045,1.25368 7.6098878,7.6098878 0 0 1 -0.34046,1.25368 7.6098878,7.6098878 0 0 1 -1.1386,1.71511 7.6098878,7.6098878 0 0 1 -1.1387,1.71411 7.6098878,7.6098878 0 0 1 -2.05385,0.12842 7.6098878,7.6098878 0 0 1 -1.59627,0.92073 7.6098878,7.6098878 0 0 1 -1.25582,-0.33184 7.6098878,7.6098878 0 0 1 -2.51059,-0.66378 7.6098878,7.6098878 0 0 1 -1.25572,-0.33193 c -10.93219,-5.45468 -24.04674,-6.71593 -36.1414,-3.61644 0.84257,22.7793 -7.86138,42.849 -24.91405,52.6953 -17.24869,9.95781 -39.08043,6.90761 -58.55086,-5.565 -8.96849,9.0596 -14.53598,22.16701 -15.27897,34.36191 a 7.6098878,7.6098878 0 0 1 0.11664,2.0437 7.6098878,7.6098878 0 0 1 -0.34045,1.2537 7.6098878,7.6098878 0 0 1 -0.79867,0.4604 7.6098878,7.6098878 0 0 1 -1.1387,1.7141 7.6098878,7.6098878 0 0 1 -0.79761,0.4603 7.6098878,7.6098878 0 0 1 -1.59628,0.9207 7.6098878,7.6098878 0 0 1 -2.05385,0.129 7.6098878,7.6098878 0 0 1 -2.053973,0.1289 7.6098878,7.6098878 0 0 1 -4.69933,-2.6091 7.6098878,7.6098878 0 0 1 -0.45715,-0.7922 7.6098878,7.6098878 0 0 1 -1.04491,-3.6529 7.6098878,7.6098878 0 0 1 0.34045,-1.2527 c 0.91965,-15.0554 7.652193,-29.93151 18.564363,-41.57551 -6.41905,-5.6678 -12.547323,-11.8152 -17.691493,-19.58247 -13.6403,2.06297 -26.80473,10.14937 -34.66043,21.06847 a 7.6098878,7.6098878 0 0 1 -0.34045,1.2537 7.6098878,7.6098878 0 0 1 -0.79761,0.4604 7.6098878,7.6098878 0 0 1 -5.24642,1.9721 7.6098878,7.6098878 0 0 1 -1.25572,-0.3319 7.6098878,7.6098878 0 0 1 -4.23746,-1.8104 7.6098878,7.6098878 0 0 1 -0.45714,-0.7923 7.6098878,7.6098878 0 0 1 -1.04492,-3.6539 7.6098878,7.6098878 0 0 1 -0.45822,-0.7923 7.6098878,7.6098878 0 0 1 1.00851,-3.7825 7.6098878,7.6098878 0 0 1 0.34045,-1.2536 c 6.76957,-9.3808 16.03633,-17.83431 27.10278,-23.09844 3.86662,-1.82118 8.31639,-3.09838 12.56029,-4.05121 -3.85055,-8.35079 -6.69506,-16.79143 -8.11382,-25.11222 -13.48882,-3.62722 -29.18257,-0.8993 -40.89482,6.58318 a 7.6098878,7.6098878 0 0 1 -1.59627,0.92073 7.6098878,7.6098878 0 0 1 -2.05386,0.12842 7.6098878,7.6098878 0 0 1 -2.05396,0.12843 7.6098878,7.6098878 0 0 1 -3.78033,-1.01711 7.6098878,7.6098878 0 0 1 -0.45714,-0.79226 7.6098878,7.6098878 0 0 1 -1.84348,-3.19254 7.6098878,7.6098878 0 0 1 -0.45715,-0.79225 7.6098878,7.6098878 0 0 1 0.55137,-4.57469 7.6098878,7.6098878 0 0 1 1.59627,-0.92074 7.6098878,7.6098878 0 0 1 0.34046,-1.25368 7.6098878,7.6098878 0 0 1 0.79759,-0.46035 7.6098878,7.6098878 0 0 1 0.34046,-1.25262 c 13.75648,-8.78862 31.97364,-12.37945 48.99964,-9.13551 0.14989,-11.34095 2.02912,-21.8008 6.83756,-30.5509 -11.50435,-1.63589 -22.5161,-7.66449 -28.77541,-18.50548 -10.81155,-18.72602 -3.76051,-42.52566 14.96583,-53.33667 z"
         id="path5357"
         transform="matrix(-0.71624605,0,0,0.71624605,252.9668,272.6866)" />
    </g>
  </g>
</svg>
