<?xml version="1.0" encoding="UTF-8" standalone="no"?>
<!-- Created with Inkscape (http://www.inkscape.org/) -->

<svg
   xmlns:dc="http://purl.org/dc/elements/1.1/"
   xmlns:cc="http://creativecommons.org/ns#"
   xmlns:rdf="http://www.w3.org/1999/02/22-rdf-syntax-ns#"
   xmlns:svg="http://www.w3.org/2000/svg"
   xmlns="http://www.w3.org/2000/svg"
   xmlns:sodipodi="http://sodipodi.sourceforge.net/DTD/sodipodi-0.dtd"
   xmlns:inkscape="http://www.inkscape.org/namespaces/inkscape"
   width="48"
   height="48"
   id="svg3317"
   version="1.1"
   inkscape:version="0.91 r13725"
   sodipodi:docname="ic_launcher.svg"
   inkscape:export-filename="/home/markus/ic_launcher.png"
   inkscape:export-xdpi="90"
   inkscape:export-ydpi="90">
  <sodipodi:namedview
     id="base"
     pagecolor="#ffffff"
     bordercolor="#f0f0f0"
     borderopacity="1"
     inkscape:pageopacity="0.0"
     inkscape:pageshadow="2"
     inkscape:zoom="0.94270834"
     inkscape:cx="24"
     inkscape:cy="24"
     inkscape:document-units="px"
     inkscape:current-layer="layer1"
     showgrid="false"
     showborder="true"
     inkscape:showpageshadow="false"
     inkscape:window-width="1680"
     inkscape:window-height="925"
     inkscape:window-x="0"
     inkscape:window-y="1"
     inkscape:window-maximized="1"
     showguides="true"
     inkscape:guide-bbox="true" />
  <defs
     id="defs3319">
    <filter
       id="filter6453"
       inkscape:label="Drop Shadow"
       style="color-interpolation-filters:sRGB">
      <feFlood
         id="feFlood6455"
         result="flood"
         flood-color="rgb(0,0,0)"
         flood-opacity="0.498039" />
      <feComposite
         id="feComposite6457"
         result="composite1"
         operator="in"
         in2="SourceGraphic"
         in="flood" />
      <feGaussianBlur
         id="feGaussianBlur6459"
         result="blur"
         stdDeviation="1"
         in="composite1" />
      <feOffset
         id="feOffset6461"
         result="offset"
         dy="0"
         dx="0" />
      <feComposite
         id="feComposite6463"
         result="composite2"
         operator="over"
         in2="offset"
         in="SourceGraphic" />
    </filter>
  </defs>
  <metadata
     id="metadata3322">
    <rdf:RDF>
      <cc:Work
         rdf:about="">
        <dc:format>image/svg+xml</dc:format>
        <dc:type
           rdf:resource="http://purl.org/dc/dcmitype/StillImage" />
        <dc:title></dc:title>
      </cc:Work>
    </rdf:RDF>
  </metadata>
  <g
     inkscape:label="Ebene 1"
     inkscape:groupmode="layer"
     id="layer1"
     transform="translate(0,-1004.3622)">
    <flowRoot
       xml:space="preserve"
       id="flowRoot3776"
       style="font-style:normal;font-weight:normal;font-size:40px;line-height:125%;font-family:Sans;letter-spacing:0px;word-spacing:0px;fill:#000000;fill-opacity:1;stroke:none;stroke-width:1px;stroke-linecap:butt;stroke-linejoin:miter;stroke-opacity:1"><flowRegion
         id="flowRegion3778"><rect
           id="rect3780"
           width="29"
           height="71"
           x="52"
           y="60" /></flowRegion><flowPara
         id="flowPara3782" /></flowRoot>    <text
       xml:space="preserve"
       style="font-style:normal;font-weight:normal;font-size:40px;line-height:125%;font-family:Sans;letter-spacing:0px;word-spacing:0px;fill:#000000;fill-opacity:1;stroke:none"
       x="4676.4058"
       y="3368.0371"
       id="text5084"
       sodipodi:linespacing="125%"><tspan
         sodipodi:role="line"
         id="tspan5086"
         x="4676.4058"
         y="3368.0371" /></text>
    <path
       inkscape:connector-curvature="0"
       style="fill:#f2f2f2;fill-opacity:1;stroke:none;stroke-width:4;stroke-miterlimit:4;stroke-dasharray:none;filter:url(#filter6453)"
       d="m 24,1006.3622 a 21.999999,21.999999 0 0 0 -22,22 21.999999,21.999999 0 0 0 1.73242,8.502 C 2.58379,1036.7642 2,1036.6493 2,1036.6493 c 0,1.06 1.31038,2.4206 3.18359,3.0684 A 21.999999,21.999999 0 0 0 24,1050.3622 a 21.999999,21.999999 0 0 0 11.33984,-3.1738 c 0.48478,1.3547 2.66342,2.9082 5.2793,2.9082 2.97194,0 5.38086,-2.0067 5.38086,-3.4473 0,0 -1.55273,0.3574 -5.38086,0.3574 -2.37577,0 -3.7901,-0.1321 -4.58594,-0.2363 A 21.999999,21.999999 0 0 0 46,1028.3622 a 21.999999,21.999999 0 0 0 -22,-22 z"
       id="circle4532" />
    <circle
       style="fill:#333333;fill-opacity:1;stroke:none;stroke-width:1.5;stroke-linecap:butt;stroke-linejoin:round;stroke-miterlimit:4;stroke-dasharray:none;stroke-opacity:1"
       id="circle6057"
       cx="24.01074"
       cy="1028.359"
       r="2.762892" />
    <g
       transform="matrix(0.48131824,0,0,0.48131824,220.10594,850.52494)"
       id="g6041">
      <path
         style="fill:#ff6600;fill-opacity:1;stroke:none;stroke-width:10.00000095;stroke-linecap:butt;stroke-linejoin:round;stroke-miterlimit:4;stroke-dasharray:none;stroke-opacity:1"
         id="path6043"
         sodipodi:type="arc"
         sodipodi:cx="-407.36807"
         sodipodi:cy="370.97913"
         sodipodi:rx="40.929768"
         sodipodi:ry="40.929768"
         sodipodi:start="3.6651914"
         sodipodi:end="4.712389"
         d="m -442.81429,350.51424 a 40.929768,40.929768 0 0 1 35.44622,-20.46488 l 0,40.92977 z" />
      <path
         d="m -407.36807,330.04936 a 40.929768,40.929768 0 0 1 28.94171,11.98805 l -28.94171,28.94172 z"
         sodipodi:end="5.4977871"
         sodipodi:start="4.712389"
         sodipodi:ry="40.929768"
         sodipodi:rx="40.929768"
         sodipodi:cy="370.97913"
         sodipodi:cx="-407.36807"
         sodipodi:type="arc"
         id="path6045"
         style="fill:#ffcc00;fill-opacity:1;stroke:none;stroke-width:10.00000095;stroke-linecap:butt;stroke-linejoin:round;stroke-miterlimit:4;stroke-dasharray:none;stroke-opacity:1" />
      <path
         style="fill:#55d400;fill-opacity:1;stroke:none;stroke-width:10.00000095;stroke-linecap:butt;stroke-linejoin:round;stroke-miterlimit:4;stroke-dasharray:none;stroke-opacity:1"
         id="path6047"
         sodipodi:type="arc"
         sodipodi:cx="-407.36807"
         sodipodi:cy="370.97913"
         sodipodi:rx="40.929768"
         sodipodi:ry="40.929768"
         sodipodi:start="5.4977871"
         sodipodi:end="5.7595865"
         d="m -378.42636,342.03741 a 40.929768,40.929768 0 0 1 6.50451,8.47683 l -35.44622,20.46489 z" />
    </g>
    <path
       style="color:#000000;font-style:normal;font-variant:normal;font-weight:normal;font-stretch:normal;font-size:medium;line-height:normal;font-family:sans-serif;text-indent:0;text-align:start;text-decoration:none;text-decoration-line:none;text-decoration-style:solid;text-decoration-color:#000000;letter-spacing:normal;word-spacing:normal;text-transform:none;direction:ltr;block-progression:tb;writing-mode:lr-tb;baseline-shift:baseline;text-anchor:start;white-space:normal;clip-rule:nonzero;display:inline;overflow:visible;visibility:visible;opacity:1;isolation:auto;mix-blend-mode:normal;color-interpolation:sRGB;color-interpolation-filters:linearRGB;solid-color:#000000;solid-opacity:1;fill:#333333;fill-opacity:1;fill-rule:evenodd;stroke:none;stroke-width:0.50000006;stroke-linecap:round;stroke-linejoin:round;stroke-miterlimit:4;stroke-dasharray:none;stroke-dashoffset:0;stroke-opacity:1;color-rendering:auto;image-rendering:auto;shape-rendering:auto;text-rendering:auto;enable-background:accumulate"
       d="m 40.57617,1033.3124 c -0.18762,-0.011 -0.34724,0.077 -0.48437,0.1934 -0.13713,0.1166 -0.26287,0.2705 -0.39063,0.4609 -0.25552,0.3808 -0.51751,0.9065 -0.78711,1.5352 -0.5392,1.2573 -1.10469,2.9264 -1.62304,4.5976 -1.03672,3.3424 -1.87891,6.6914 -1.87891,6.6914 a 0.25002503,0.25002503 0 1 0 0.48437,0.1231 c 0,0 0.83969,-3.3407 1.8711,-6.6661 0.5157,-1.6626 1.07953,-3.3224 1.60547,-4.5488 0.26297,-0.6132 0.51811,-1.1192 0.74218,-1.4531 0.11204,-0.167 0.217,-0.2898 0.29883,-0.3594 0.0818,-0.07 0.12933,-0.077 0.13477,-0.076 0.009,6e-4 0.0671,0.018 0.15234,0.098 0.0852,0.079 0.19089,0.2109 0.30274,0.3848 0.2237,0.3477 0.47472,0.8627 0.73437,1.4804 0.5193,1.2355 1.07376,2.8894 1.58008,4.5411 1.01265,3.3032 1.83398,6.5976 1.83398,6.5976 a 0.25059034,0.25059034 0 0 0 0.48633,-0.1211 c 0,0 -0.82403,-3.305 -1.84179,-6.625 -0.50889,-1.66 -1.06596,-3.3229 -1.59766,-4.5879 -0.26585,-0.6325 -0.52362,-1.1633 -0.77539,-1.5547 -0.12589,-0.1956 -0.25019,-0.3567 -0.38281,-0.4804 -0.13262,-0.1237 -0.281,-0.2199 -0.46485,-0.2305 z"
       id="path6140"
       inkscape:connector-curvature="0" />
    <path
       style="color:#000000;font-style:normal;font-variant:normal;font-weight:normal;font-stretch:normal;font-size:medium;line-height:normal;font-family:sans-serif;text-indent:0;text-align:start;text-decoration:none;text-decoration-line:none;text-decoration-style:solid;text-decoration-color:#000000;letter-spacing:normal;word-spacing:normal;text-transform:none;direction:ltr;block-progression:tb;writing-mode:lr-tb;baseline-shift:baseline;text-anchor:start;white-space:normal;clip-rule:nonzero;display:inline;overflow:visible;visibility:visible;opacity:1;isolation:auto;mix-blend-mode:normal;color-interpolation:sRGB;color-interpolation-filters:linearRGB;solid-color:#000000;solid-opacity:1;fill:#333333;fill-opacity:1;fill-rule:evenodd;stroke:none;stroke-width:0.50000006;stroke-linecap:round;stroke-linejoin:round;stroke-miterlimit:4;stroke-dasharray:none;stroke-dashoffset:0;stroke-opacity:1;color-rendering:auto;image-rendering:auto;shape-rendering:auto;text-rendering:auto;enable-background:accumulate"
       d="m 7.43945,1023.3124 c -0.18762,-0.011 -0.34919,0.077 -0.48632,0.1934 -0.13714,0.1166 -0.26287,0.2705 -0.39063,0.4609 -0.25552,0.3808 -0.51751,0.9065 -0.78711,1.5352 -0.5392,1.2573 -1.10469,2.9264 -1.62305,4.5976 -1.03671,3.3424 -1.8789,6.6914 -1.8789,6.6914 a 0.25002503,0.25002503 0 1 0 0.48437,0.1231 c 0,0 0.84165,-3.3407 1.87305,-6.6661 0.5157,-1.6626 1.07953,-3.3224 1.60547,-4.5488 0.26297,-0.6132 0.51811,-1.1192 0.74219,-1.4531 0.11203,-0.167 0.21699,-0.2898 0.29882,-0.3594 0.0818,-0.07 0.12738,-0.077 0.13282,-0.076 0.009,6e-4 0.0671,0.018 0.15234,0.098 0.0852,0.079 0.19088,0.2109 0.30273,0.3848 0.22371,0.3477 0.47668,0.8627 0.73633,1.4804 0.5193,1.2355 1.07376,2.8894 1.58008,4.5411 1.01265,3.3032 1.83399,6.5976 1.83399,6.5976 A 0.25002503,0.25002503 0 1 0 12.5,1036.7909 c 0,0 -0.82208,-3.305 -1.83984,-6.625 -0.50889,-1.66 -1.06595,-3.3229 -1.59766,-4.5879 -0.26585,-0.6325 -0.52557,-1.1633 -0.77734,-1.5547 -0.12589,-0.1956 -0.24824,-0.3567 -0.38086,-0.4804 -0.13262,-0.1237 -0.281,-0.2199 -0.46485,-0.2305 z"
       id="path6039"
       inkscape:connector-curvature="0" />
    <path
       style="color:#000000;font-style:normal;font-variant:normal;font-weight:normal;font-stretch:normal;font-size:medium;line-height:normal;font-family:sans-serif;text-indent:0;text-align:start;text-decoration:none;text-decoration-line:none;text-decoration-style:solid;text-decoration-color:#000000;letter-spacing:normal;word-spacing:normal;text-transform:none;direction:ltr;block-progression:tb;writing-mode:lr-tb;baseline-shift:baseline;text-anchor:start;white-space:normal;clip-rule:nonzero;display:inline;overflow:visible;visibility:visible;opacity:1;isolation:auto;mix-blend-mode:normal;color-interpolation:sRGB;color-interpolation-filters:linearRGB;solid-color:#000000;solid-opacity:1;fill:#333333;fill-opacity:1;fill-rule:evenodd;stroke:none;stroke-width:1.00000012;stroke-linecap:round;stroke-linejoin:miter;stroke-miterlimit:4;stroke-dasharray:none;stroke-dashoffset:0;stroke-opacity:1;color-rendering:auto;image-rendering:auto;shape-rendering:auto;text-rendering:auto;enable-background:accumulate"
       d="m 28.0598,1013.1594 -0.60597,0.5938 -7.04183,6.9392 4.03862,1.6201 -1.31814,3.8101 c -0.0275,-0.01 -0.0512,0 -0.0799,-0.011 l -0.002,-5e-4 -0.004,-10e-4 c -1.79021,-0.172 -3.59213,0.1171 -5.23799,0.3658 -1.11588,0.1686 -2.202,0.5521 -3.13357,0.8204 -0.93158,0.2683 -1.69585,0.3741 -2.05958,0.2307 -2.08029,-0.8206 -3.74031,-3.4991 -4.01128,-3.9785 l 0.0225,0.044 c -0.18569,-0.4227 -0.55401,-0.7382 -0.99944,-0.8582 -0.80767,-0.2165 -1.65134,0.2689 -1.8677,1.0766 -0.21649,0.8077 0.27087,1.6519 1.07862,1.8683 0.21847,0.058 0.4312,-0.039 0.6499,-0.079 0.82583,1.2052 2.23536,2.9034 4.36724,3.7442 0.23724,0.094 0.48081,0.1661 0.72637,0.2247 1.7174,0.4135 3.57348,0.069 5.40399,-0.2081 1.48416,-0.2243 2.96135,-0.4177 4.26432,-0.3617 0.1665,0.1611 0.58409,0.6103 1.32293,0.8357 0.77039,0.2343 1.34938,0.016 1.59046,-0.057 1.15862,0.6031 2.3453,1.5116 3.52105,2.4499 1.65367,1.3198 3.29653,2.7471 5.31608,3.048 2.2976,0.3424 4.3717,-0.4342 5.66657,-1.0597 0.17087,0.1452 0.30577,0.3388 0.52628,0.3979 l 0.002,5e-4 c 0.80759,0.2161 1.65005,-0.2718 1.86633,-1.0791 0.21625,-0.8074 -0.26932,-1.6511 -1.07672,-1.8677 l -0.002,-6e-4 c -0.29414,-0.078 -0.60457,-0.062 -0.89181,0.038 -0.10069,0.028 -0.19962,0.066 -0.29014,0.1245 -0.0166,0.01 -3.1187,1.8555 -5.55022,1.4933 -0.38661,-0.058 -0.99468,-0.5352 -1.66728,-1.2334 -0.67263,-0.6981 -1.42197,-1.5715 -2.30403,-2.2755 -1.3014,-1.0386 -2.71648,-2.1895 -4.35338,-2.9356 l -0.004,-10e-4 -0.004,-10e-4 c -0.026,-0.01 -0.0472,-0.023 -0.0729,-0.03 l 0.7654,-3.9583 4.30707,0.6182 -2.85853,-10.3482 z m -4.0501,15.1152 c 0.01,0 0.008,0 0.004,0.014 -0.003,0.01 -6.6e-4,0.01 -0.0101,0.01 -0.01,0 -0.008,0 -0.005,-0.012 0.003,-0.01 0.001,-0.012 0.0107,-0.01 z"
       id="path6055"
       inkscape:connector-curvature="0"
       inkscape:transform-center-y="-4.0819508"
       inkscape:transform-center-x="0.08915969" />
    <circle
       r="0.94815201"
       cy="1028.359"
       cx="24.01074"
       id="circle6059"
       style="fill:#ffffff;fill-opacity:1;stroke:none;stroke-width:1.5;stroke-linecap:butt;stroke-linejoin:round;stroke-miterlimit:4;stroke-dasharray:none;stroke-opacity:1" />
    <path
       sodipodi:nodetypes="csczc"
       inkscape:connector-curvature="0"
       id="path6095"
       d="m 46,1046.65 c 0,1.4406 -2.40922,3.4464 -5.38116,3.4464 -2.97192,0 -5.38117,-2.0058 -5.38117,-3.4464 0,0 1.55304,0.3565 5.38117,0.3565 3.82812,0 5.38116,-0.3565 5.38116,-0.3565 z"
       style="fill:#1a1a1a;fill-opacity:1;stroke:none;stroke-width:3;stroke-linecap:round;stroke-linejoin:round;stroke-miterlimit:4;stroke-dasharray:none" />
    <path
       style="fill:#1a1a1a;fill-opacity:1;stroke:none;stroke-width:3;stroke-linecap:round;stroke-linejoin:round;stroke-miterlimit:4;stroke-dasharray:none"
       d="m 12.76234,1036.65 c 0,1.4406 -2.40923,3.4464 -5.38117,3.4464 C 4.40925,1040.0964 2,1038.0906 2,1036.65 c 0,0 1.55304,0.3565 5.38117,0.3565 3.82812,0 5.38117,-0.3565 5.38117,-0.3565 z"
       id="path6051"
       inkscape:connector-curvature="0"
       sodipodi:nodetypes="csczc" />
    <path
       inkscape:connector-curvature="0"
       id="path4823"
       d="m 28.06055,1013.1591 -0.60742,0.5937 c -0.0546,0.054 -7.04102,6.9395 -7.04102,6.9395 l 3.46289,3.2871 c -0.36291,1.0489 -0.74219,2.1426 -0.74219,2.1426 l -0.002,0 c -0.0272,-0.01 -0.0496,2e-4 -0.0781,-0.01 l -0.002,0 c -10e-4,-2e-4 -0.004,0 -0.004,0 -1.78999,-0.1718 -3.59261,0.1165 -5.23828,0.3652 -1.11559,0.1687 -2.20146,0.5521 -3.13281,0.8203 l -0.002,0 c -0.86771,0.2499 -1.57612,0.3504 -1.96485,0.2481 l -4.22056,-4.1895 c -0.20362,-0.3005 -0.5054,-0.5252 -0.86133,-0.6211 -0.80767,-0.2165 -1.65083,0.2685 -1.86718,1.0762 -0.17121,0.6387 0.10156,1.2966 0.62109,1.6524 l 23.94922,23.9492 a 21.999999,21.999999 0 0 0 15.47656,-18.3067 l -17.74609,-17.9472 z"
       style="color:#000000;font-style:normal;font-variant:normal;font-weight:normal;font-stretch:normal;font-size:medium;line-height:normal;font-family:sans-serif;text-indent:0;text-align:start;text-decoration:none;text-decoration-line:none;text-decoration-style:solid;text-decoration-color:#000000;letter-spacing:normal;word-spacing:normal;text-transform:none;direction:ltr;block-progression:tb;writing-mode:lr-tb;baseline-shift:baseline;text-anchor:start;white-space:normal;clip-rule:nonzero;display:inline;overflow:visible;visibility:visible;opacity:1;isolation:auto;mix-blend-mode:normal;color-interpolation:sRGB;color-interpolation-filters:linearRGB;solid-color:#000000;solid-opacity:1;fill:#000000;fill-opacity:0.0627451;fill-rule:evenodd;stroke:none;stroke-width:1.00000012;stroke-linecap:round;stroke-linejoin:miter;stroke-miterlimit:4;stroke-dasharray:none;stroke-dashoffset:0;stroke-opacity:1;color-rendering:auto;image-rendering:auto;shape-rendering:auto;text-rendering:auto;enable-background:accumulate" />
    <path
       inkscape:connector-curvature="0"
       style="fill:#000000;fill-opacity:0.0627451;stroke:none;stroke-width:3;stroke-linecap:round;stroke-linejoin:round;stroke-miterlimit:4;stroke-dasharray:none"
       d="m 12.76172,1036.6493 c 0,0 -1.55129,0.3574 -5.37891,0.3574 l -0.002,0 c -1.63862,0 -2.78689,-0.068 -3.64843,-0.1425 a 21.999999,21.999999 0 0 0 4.23632,6.541 l 0.75,0.75 a 21.999999,21.999999 0 0 0 15.28125,6.207 21.999999,21.999999 0 0 0 2.32617,-0.1484 l -13.36523,-13.3653 c -0.28999,0.1615 -0.12356,-0.1235 -0.19922,-0.1992 z"
       id="path5769" />
    <g
       transform="matrix(-0.02216959,-0.08273808,-0.08273808,0.02216959,107.17341,1036.6272)"
       id="g5355"
       style="fill:#333333">
      <path
         inkscape:connector-curvature="0"
         style="fill:#333333;fill-opacity:1;stroke:none"
         d="m 70.800257,803.10815 c 18.72634,-10.81207 42.064013,-4.55865 52.875453,14.16738 6.21553,10.76497 6.67525,22.98383 2.43735,33.71348 9.95484,0.22482 20.00712,3.82743 29.87632,9.35284 5.70581,-16.36426 17.92669,-30.34 32.41043,-37.86744 a 7.6098878,7.6098878 0 0 1 2.05397,-0.12843 7.6098878,7.6098878 0 0 1 2.05385,-0.12842 7.6098878,7.6098878 0 0 1 3.78076,1.01708 7.6098878,7.6098878 0 0 1 2.18403,1.941 7.6098878,7.6098878 0 0 1 1.16879,5.70957 7.6098878,7.6098878 0 0 1 -0.34046,1.25368 7.6098878,7.6098878 0 0 1 -0.34045,1.25368 7.6098878,7.6098878 0 0 1 -1.13869,1.71405 7.6098878,7.6098878 0 0 1 -2.39442,1.38323 c -12.33033,6.40652 -22.54596,18.62752 -26.1492,32.12255 6.50822,5.40015 12.37934,12.05934 17.69138,19.58251 2.94622,-3.19898 6.27645,-6.41509 9.78804,-8.85073 10.09338,-6.95039 22.03067,-10.77888 33.55578,-11.9223 a 7.6098878,7.6098878 0 0 1 1.25571,0.33189 7.6098878,7.6098878 0 0 1 2.51017,0.66378 7.6098878,7.6098878 0 0 1 2.18447,1.94102 7.6098878,7.6098878 0 0 1 2.42684,6.04679 7.6098878,7.6098878 0 0 1 -1.00849,3.78247 7.6098878,7.6098878 0 0 1 -1.5963,0.92072 7.6098878,7.6098878 0 0 1 -1.59626,0.92072 7.6098878,7.6098878 0 0 1 -2.85201,0.58884 c -13.65036,1.36931 -27.8309,8.78649 -36.37383,19.9433 4.14518,8.3272 7.21579,16.27327 8.91185,24.65187 15.54086,-3.62622 31.79047,-2.0192 45.28817,4.71176 a 7.6098878,7.6098878 0 0 1 1.71243,1.12411 7.6098878,7.6098878 0 0 1 1.84305,3.19152 7.6098878,7.6098878 0 0 1 0.45715,0.79218 7.6098878,7.6098878 0 0 1 0.58777,2.8607 7.6098878,7.6098878 0 0 1 -0.34045,1.25368 7.6098878,7.6098878 0 0 1 -0.34046,1.25368 7.6098878,7.6098878 0 0 1 -1.1386,1.71511 7.6098878,7.6098878 0 0 1 -1.1387,1.71411 7.6098878,7.6098878 0 0 1 -2.05385,0.12842 7.6098878,7.6098878 0 0 1 -1.59627,0.92073 7.6098878,7.6098878 0 0 1 -1.25582,-0.33184 7.6098878,7.6098878 0 0 1 -2.51059,-0.66378 7.6098878,7.6098878 0 0 1 -1.25572,-0.33193 c -10.93219,-5.45468 -24.04674,-6.71593 -36.1414,-3.61644 0.84257,22.7793 -7.86138,42.849 -24.91405,52.6953 -17.24869,9.95781 -39.08043,6.90761 -58.55086,-5.565 -8.96849,9.0596 -14.53598,22.16701 -15.27897,34.36191 a 7.6098878,7.6098878 0 0 1 0.11664,2.0437 7.6098878,7.6098878 0 0 1 -0.34045,1.2537 7.6098878,7.6098878 0 0 1 -0.79867,0.4604 7.6098878,7.6098878 0 0 1 -1.1387,1.7141 7.6098878,7.6098878 0 0 1 -0.79761,0.4603 7.6098878,7.6098878 0 0 1 -1.59628,0.9207 7.6098878,7.6098878 0 0 1 -2.05385,0.129 7.6098878,7.6098878 0 0 1 -2.053973,0.1289 7.6098878,7.6098878 0 0 1 -4.69933,-2.6091 7.6098878,7.6098878 0 0 1 -0.45715,-0.7922 7.6098878,7.6098878 0 0 1 -1.04491,-3.6529 7.6098878,7.6098878 0 0 1 0.34045,-1.2527 c 0.91965,-15.0554 7.652193,-29.93151 18.564363,-41.57551 -6.41905,-5.6678 -12.547323,-11.8152 -17.691493,-19.58247 -13.6403,2.06297 -26.80473,10.14937 -34.66043,21.06847 a 7.6098878,7.6098878 0 0 1 -0.34045,1.2537 7.6098878,7.6098878 0 0 1 -0.79761,0.4604 7.6098878,7.6098878 0 0 1 -5.24642,1.9721 7.6098878,7.6098878 0 0 1 -1.25572,-0.3319 7.6098878,7.6098878 0 0 1 -4.23746,-1.8104 7.6098878,7.6098878 0 0 1 -0.45714,-0.7923 7.6098878,7.6098878 0 0 1 -1.04492,-3.6539 7.6098878,7.6098878 0 0 1 -0.45822,-0.7923 7.6098878,7.6098878 0 0 1 1.00851,-3.7825 7.6098878,7.6098878 0 0 1 0.34045,-1.2536 c 6.76957,-9.3808 16.03633,-17.83431 27.10278,-23.09844 3.86662,-1.82118 8.31639,-3.09838 12.56029,-4.05121 -3.85055,-8.35079 -6.69506,-16.79143 -8.11382,-25.11222 -13.48882,-3.62722 -29.18257,-0.8993 -40.89482,6.58318 a 7.6098878,7.6098878 0 0 1 -1.59627,0.92073 7.6098878,7.6098878 0 0 1 -2.05386,0.12842 7.6098878,7.6098878 0 0 1 -2.05396,0.12843 7.6098878,7.6098878 0 0 1 -3.78033,-1.01711 7.6098878,7.6098878 0 0 1 -0.45714,-0.79226 7.6098878,7.6098878 0 0 1 -1.84348,-3.19254 7.6098878,7.6098878 0 0 1 -0.45715,-0.79225 7.6098878,7.6098878 0 0 1 0.55137,-4.57469 7.6098878,7.6098878 0 0 1 1.59627,-0.92074 7.6098878,7.6098878 0 0 1 0.34046,-1.25368 7.6098878,7.6098878 0 0 1 0.79759,-0.46035 7.6098878,7.6098878 0 0 1 0.34046,-1.25262 c 13.75648,-8.78862 31.97364,-12.37945 48.99964,-9.13551 0.14989,-11.34095 2.02912,-21.8008 6.83756,-30.5509 -11.50435,-1.63589 -22.5161,-7.66449 -28.77541,-18.50548 -10.81155,-18.72602 -3.76051,-42.52566 14.96583,-53.33667 z"
         id="path5357"
         transform="matrix(-0.71624605,0,0,0.71624605,252.9668,272.6866)" />
      <path
         inkscape:connector-curvature="0"
         style="fill:#000000;fill-opacity:1;stroke:none"
         d="m 172.88153,898.78816 c 1.83132,1.05745 -6.95107,19.96031 -20.00325,42.56771 -13.05188,22.60654 -25.3621,40.23658 -27.19342,39.17911 -1.83139,-1.05746 7.28157,-20.53316 20.33346,-43.13977 13.05218,-22.60659 25.03181,-39.66449 26.86321,-38.60705 z"
         id="path5359" />
    </g>
  </g>
</svg>
