<?xml version="1.0" encoding="UTF-8" standalone="no"?>
<svg
   xmlns:dc="http://purl.org/dc/elements/1.1/"
   xmlns:cc="http://creativecommons.org/ns#"
   xmlns:rdf="http://www.w3.org/1999/02/22-rdf-syntax-ns#"
   xmlns:svg="http://www.w3.org/2000/svg"
   xmlns="http://www.w3.org/2000/svg"
   xmlns:sodipodi="http://sodipodi.sourceforge.net/DTD/sodipodi-0.dtd"
   xmlns:inkscape="http://www.inkscape.org/namespaces/inkscape"
   width="120"
   height="88"
   viewBox="0 0 120 88"
   id="svg2"
   version="1.1"
   inkscape:version="1.0beta1 (32d4812, 2019-09-19)"
   sodipodi:docname="ic_empty_arguments_night.svg"
   inkscape:export-filename="/Users/markus/path5202.png"
   inkscape:export-xdpi="3840"
   inkscape:export-ydpi="3840">
  <sodipodi:namedview
     id="base"
     pagecolor="#ffffff"
     bordercolor="#eeeeee"
     borderopacity="1"
     inkscape:pageopacity="0.0"
     inkscape:pageshadow="2"
     inkscape:zoom="5.7202225"
     inkscape:cx="60"
     inkscape:cy="43.999593"
     inkscape:document-units="px"
     inkscape:current-layer="layer1"
     showgrid="false"
     units="px"
     inkscape:showpageshadow="false"
     showguides="true"
     inkscape:guide-bbox="true"
     inkscape:window-width="1600"
     inkscape:window-height="907"
     inkscape:window-x="0"
     inkscape:window-y="0"
     inkscape:window-maximized="0"
     showborder="true"
     fit-margin-top="0"
     fit-margin-left="0"
     fit-margin-right="0"
     fit-margin-bottom="0"
     inkscape:document-rotation="0">
    <inkscape:grid
       enabled="false"
       snapvisiblegridlinesonly="true"
       id="grid4582"
       type="xygrid"
       originx="-4.9042712"
       originy="-1.6455" />
  </sodipodi:namedview>
  <defs
     id="defs4" />
  <metadata
     id="metadata7">
    <rdf:RDF>
      <cc:Work
         rdf:about="">
        <dc:format>image/svg+xml</dc:format>
        <dc:type
           rdf:resource="http://purl.org/dc/dcmitype/StillImage" />
        <dc:title />
      </cc:Work>
    </rdf:RDF>
  </metadata>
  <g
     transform="translate(-4.9042713,-962.7168)"
     id="layer1"
     inkscape:groupmode="layer"
     inkscape:label="Ebene 1">
    <circle
       style="fill:#333333;fill-opacity:1;stroke:none;stroke-width:1.5;stroke-linecap:butt;stroke-linejoin:round;stroke-miterlimit:4;stroke-dasharray:none;stroke-opacity:1"
       id="circle5919"
       cx="40.175743"
       cy="1006.2059"
       r="0" />
    <circle
       cy="1006.2059"
       cx="40.175743"
       id="circle5921"
       style="fill:#ffffff;fill-opacity:1;stroke:none;stroke-width:1.5;stroke-linecap:butt;stroke-linejoin:round;stroke-miterlimit:4;stroke-dasharray:none;stroke-opacity:1"
       r="0" />
    <circle
       style="fill:#1a1a1a;fill-opacity:1;stroke:none;stroke-width:1.5;stroke-linecap:butt;stroke-linejoin:round;stroke-miterlimit:4;stroke-dasharray:none;stroke-opacity:1"
       id="circle5923"
       cx="40.175743"
       cy="1006.2059"
       r="0" />
    <path
       transform="translate(4.9042713,962.7168)"
       d="M 60.052734 10.494141 A 33.428093 33.428093 0 0 0 31.103516 27.208984 L 54.890625 40.941406 C 55.783023 40.662877 56.682909 40.41496 57.597656 40.261719 C 57.885305 40.216819 58.138343 40.18825 58.398438 40.15625 L 58.994141 31.835938 L 54.720703 31.015625 L 59.986328 22.816406 L 65.253906 31.017578 L 60.978516 31.835938 L 61.574219 40.152344 C 61.839931 40.187144 62.104137 40.219719 62.373047 40.261719 C 63.31888 40.420023 64.248061 40.679455 65.169922 40.970703 L 89.003906 27.208984 A 33.428093 33.428093 0 0 0 83.691406 20.285156 A 33.428093 33.428093 0 0 0 60.054688 10.494141 A 33.428093 33.428093 0 0 1 60.052734 10.494141 z M 59.986328 41.707031 C 59.510795 41.706931 59.124836 42.092759 59.125 42.568359 C 59.125205 43.043559 59.511082 43.427834 59.986328 43.427734 C 60.461247 43.427534 60.845457 43.043259 60.845703 42.568359 C 60.845826 42.093059 60.461616 41.707331 59.986328 41.707031 z M 57.382812 43.636719 C 57.086323 43.700043 56.782485 43.793173 56.482422 43.873047 L 58.769531 87.203125 L 61.228516 87.203125 L 63.515625 43.880859 C 63.20623 43.798052 62.893502 43.701964 62.587891 43.636719 C 62.587891 43.636719 61.1849 44.498031 59.986328 44.457031 C 58.787756 44.415731 57.382812 43.636719 57.382812 43.636719 z M 29.292969 44.261719 C 29.103672 44.646037 28.913095 45.048773 28.71875 45.501953 C 27.804192 47.634453 26.842382 50.465181 25.962891 53.300781 C 24.253725 58.811263 22.905895 64.146649 22.828125 64.455078 C 22.957306 64.469668 23.3087 64.492054 23.658203 64.521484 C 23.783984 64.024026 25.078363 58.919844 26.746094 53.542969 C 27.621231 50.721369 28.579846 47.906119 29.472656 45.824219 C 29.633379 45.449455 29.788032 45.130937 29.943359 44.808594 C 29.68371 44.68179 29.460292 44.494335 29.292969 44.261719 z M 90.576172 44.419922 C 90.388319 44.625422 90.153708 44.784159 89.886719 44.880859 C 90.029526 45.187059 90.171561 45.482831 90.318359 45.832031 C 91.199878 47.929231 92.140777 50.736263 93 53.539062 C 94.636929 58.878663 95.901801 63.91265 96.025391 64.40625 C 96.374951 64.37625 96.726279 64.351891 96.855469 64.337891 C 96.778569 64.029891 95.462456 58.770228 93.785156 53.298828 C 92.921736 50.482428 91.976084 47.661225 91.074219 45.515625 C 90.906404 45.116425 90.740657 44.768522 90.576172 44.419922 z M 33.410156 45.724609 C 33.444636 45.804799 33.477076 45.866799 33.511719 45.949219 C 34.393238 48.046419 35.334137 50.85355 36.193359 53.65625 C 37.829838 58.994471 39.094523 64.025415 39.21875 64.521484 C 39.568375 64.492034 39.919903 64.469658 40.048828 64.455078 C 39.971878 64.147067 38.655815 58.887332 36.978516 53.416016 C 36.23098 50.977527 35.4238 48.561035 34.634766 46.556641 C 34.198887 46.282589 33.788499 46.003586 33.410156 45.724609 z M 86.150391 46.029297 C 85.777588 46.290397 85.37847 46.545175 84.955078 46.796875 C 84.217317 48.695975 83.468349 50.930494 82.769531 53.183594 C 81.060367 58.694094 79.712536 64.029491 79.634766 64.337891 C 79.763952 64.352891 80.115284 64.37725 80.464844 64.40625 C 80.590043 63.91125 81.884594 58.806034 83.552734 53.427734 C 84.38613 50.740834 85.29451 48.077097 86.150391 46.029297 z "
       style="fill:#ffffff;fill-opacity:0.05098039;stroke:none;stroke-width:2;stroke-linecap:butt;stroke-linejoin:round;stroke-miterlimit:4;stroke-dasharray:none;stroke-opacity:1"
       id="path5897" />
    <path
       transform="translate(4.9042713,962.7168)"
       d="M 103.93555 0.796875 C 101.55268 0.796875 99.619141 2.7304813 99.619141 5.1132812 C 99.619141 7.4961812 101.55268 9.4296875 103.93555 9.4296875 C 106.31842 9.4296875 108.25391 7.4961812 108.25391 5.1132812 C 108.25391 2.7304813 106.31842 0.796875 103.93555 0.796875 z M 103.50391 2.9550781 L 104.36719 2.9550781 L 104.36719 4.6816406 L 106.09375 4.6816406 L 106.09375 5.5449219 L 104.36719 5.5449219 L 104.36719 7.2714844 L 103.50391 7.2714844 L 103.50391 5.5449219 L 101.77734 5.5449219 L 101.77734 4.6816406 L 103.50391 4.6816406 L 103.50391 2.9550781 z M 20.560547 7.3105469 C 18.511279 7.3105469 16.847656 8.9722144 16.847656 11.021484 C 16.847656 13.070814 18.511279 14.734375 20.560547 14.734375 C 22.609815 14.734375 24.273438 13.070814 24.273438 11.021484 C 24.273438 8.9722144 22.609815 7.3105469 20.560547 7.3105469 z M 18.705078 10.650391 L 22.417969 10.650391 L 22.417969 11.392578 L 18.705078 11.392578 L 18.705078 10.650391 z M 114.09375 10.917969 C 111.24581 10.917969 108.93555 13.230275 108.93555 16.078125 C 108.93555 18.926115 111.24581 21.236328 114.09375 21.236328 C 116.94169 21.236328 119.25391 18.926115 119.25391 16.078125 C 119.25391 13.230275 116.94169 10.917969 114.09375 10.917969 z M 113.57812 13.498047 L 114.61133 13.498047 L 114.61133 15.560547 L 116.67383 15.560547 L 116.67383 16.59375 L 114.61133 16.59375 L 114.61133 18.65625 L 113.57812 18.65625 L 113.57812 16.59375 L 111.51562 16.59375 L 111.51562 15.560547 L 113.57812 15.560547 L 113.57812 13.498047 z M 5.1425781 16.728516 C 2.7158872 16.728516 0.74609375 18.69831 0.74609375 21.125 C 0.74609375 23.55176 2.7158872 25.521484 5.1425781 25.521484 C 7.5692691 25.521484 9.5390625 23.55176 9.5390625 21.125 C 9.5390625 18.69831 7.5692691 16.728516 5.1425781 16.728516 z M 2.9433594 20.685547 L 7.3398438 20.685547 L 7.3398438 21.564453 L 2.9433594 21.564453 L 2.9433594 20.685547 z M 98.09375 20.96875 C 96.37808 20.96875 94.986328 22.362505 94.986328 24.078125 C 94.986328 25.793825 96.37808 27.185547 98.09375 27.185547 C 99.80942 27.185547 101.20312 25.793825 101.20312 24.078125 C 101.20312 22.362505 99.80942 20.96875 98.09375 20.96875 z M 97.783203 22.523438 L 98.40625 22.523438 L 98.40625 23.765625 L 99.648438 23.765625 L 99.648438 24.388672 L 98.40625 24.388672 L 98.40625 25.630859 L 97.783203 25.630859 L 97.783203 24.388672 L 96.541016 24.388672 L 96.541016 23.765625 L 97.783203 23.765625 L 97.783203 22.523438 z M 59.986328 22.816406 L 54.720703 31.015625 L 58.994141 31.835938 L 58.398438 40.15625 C 58.138343 40.18825 57.885305 40.216819 57.597656 40.261719 C 54.732975 40.741619 51.964923 41.971416 49.373047 43.103516 C 46.066825 44.547616 43.035415 47.417675 40.886719 47.171875 C 36.674003 46.690075 32.760325 42.878909 32.056641 42.162109 C 31.727167 41.751209 31.227921 41.512619 30.701172 41.511719 C 29.740879 41.511719 28.962809 42.2898 28.962891 43.25 C 28.962809 44.2103 29.740879 44.990334 30.701172 44.990234 C 31.148166 44.989834 31.577314 44.816812 31.900391 44.507812 C 33.668767 46.074612 36.83549 48.366681 40.630859 48.800781 C 41.019339 48.844781 41.409266 48.859609 41.800781 48.849609 C 44.541463 48.779609 47.35887 47.467778 50.25 46.205078 C 52.63722 45.162378 55.0694 44.130819 57.382812 43.636719 C 57.382812 43.636719 58.787756 44.415731 59.986328 44.457031 C 61.1849 44.498031 62.587891 43.636719 62.587891 43.636719 C 64.901795 44.130719 67.33482 45.162078 69.722656 46.205078 C 73.026787 47.648178 76.233998 49.156281 79.341797 48.800781 C 83.195721 48.359981 86.364893 46.042453 88.089844 44.501953 C 88.41407 44.815353 88.845903 44.990334 89.296875 44.990234 C 90.256921 44.990034 91.035197 44.21 91.035156 43.25 C 91.035074 42.2902 90.256839 41.512119 89.296875 41.511719 C 88.943331 41.512119 88.599073 41.620766 88.308594 41.822266 C 88.214204 41.873266 88.130814 41.938172 88.0625 42.013672 C 88.0625 42.013672 83.734453 46.640175 79.085938 47.171875 C 76.937241 47.417675 73.905831 44.547616 70.599609 43.103516 C 68.007036 41.971116 65.238549 40.741319 62.373047 40.261719 C 62.104137 40.219719 61.839931 40.187144 61.574219 40.152344 L 60.978516 31.835938 L 65.253906 31.017578 L 59.986328 22.816406 z M 21.533203 26.583984 C 19.451843 26.583984 17.761719 28.272156 17.761719 30.353516 C 17.761719 32.434936 19.451843 34.125 21.533203 34.125 C 23.614563 34.125 25.302734 32.434936 25.302734 30.353516 C 25.302734 28.272156 23.614563 26.583984 21.533203 26.583984 z M 111.6543 28.642578 C 109.40572 28.642578 107.58008 30.466344 107.58008 32.714844 C 107.58008 34.963444 109.40572 36.789062 111.6543 36.789062 C 113.90288 36.789062 115.72656 34.963444 115.72656 32.714844 C 115.72656 30.466344 113.90288 28.642578 111.6543 28.642578 z M 19.648438 29.976562 L 23.417969 29.976562 L 23.417969 30.730469 L 19.648438 30.730469 L 19.648438 29.976562 z M 111.24609 30.679688 L 112.06055 30.679688 L 112.06055 32.308594 L 113.68945 32.308594 L 113.68945 33.123047 L 112.06055 33.123047 L 112.06055 34.751953 L 111.24609 34.751953 L 111.24609 33.123047 L 109.61719 33.123047 L 109.61719 32.308594 L 111.24609 32.308594 L 111.24609 30.679688 z M 9.2402344 34.931641 C 7.5591834 34.931641 6.1933594 36.295583 6.1933594 37.976562 C 6.1933594 39.657663 7.5591834 41.021484 9.2402344 41.021484 C 10.921285 41.021484 12.285156 39.657662 12.285156 37.976562 C 12.285156 36.295583 10.921285 34.931641 9.2402344 34.931641 z M 7.7167969 37.671875 L 10.761719 37.671875 L 10.761719 38.28125 L 7.7167969 38.28125 L 7.7167969 37.671875 z M 100.45508 38.105469 C 98.005488 38.105469 96.017578 40.093469 96.017578 42.542969 C 96.017578 44.992569 98.005488 46.980469 100.45508 46.980469 C 102.90467 46.980469 104.89258 44.992569 104.89258 42.542969 C 104.89258 40.093469 102.90467 38.105469 100.45508 38.105469 z M 100.01172 40.324219 L 100.89844 40.324219 L 100.89844 42.099609 L 102.67383 42.099609 L 102.67383 42.986328 L 100.89844 42.986328 L 100.89844 44.761719 L 100.01172 44.761719 L 100.01172 42.986328 L 98.236328 42.986328 L 98.236328 42.099609 L 100.01172 42.099609 L 100.01172 40.324219 z M 59.986328 41.707031 C 60.461616 41.707331 60.845826 42.093059 60.845703 42.568359 C 60.845457 43.043259 60.461247 43.427534 59.986328 43.427734 C 59.511082 43.427834 59.125205 43.043559 59.125 42.568359 C 59.124836 42.092759 59.510795 41.706931 59.986328 41.707031 z M 15.828125 44.660156 C 13.211319 44.660156 11.085938 46.783591 11.085938 49.400391 C 11.085938 52.017091 13.211319 54.140625 15.828125 54.140625 C 18.444933 54.140625 20.568359 52.017091 20.568359 49.400391 C 20.568359 46.783591 18.444933 44.660156 15.828125 44.660156 z M 13.457031 48.925781 L 18.197266 48.925781 L 18.197266 49.875 L 13.457031 49.875 L 13.457031 48.925781 z M 79.113281 64.294922 C 79.113281 65.704822 83.203234 69.308594 88.246094 69.308594 C 93.288995 69.308594 97.376953 65.704822 97.376953 64.294922 C 97.376953 64.294922 94.741797 64.644531 88.246094 64.644531 C 81.750391 64.644531 79.113281 64.294922 79.113281 64.294922 z M 22.306641 64.412109 C 22.306641 65.822009 26.394641 69.425781 31.4375 69.425781 C 36.480401 69.425781 40.568359 65.822009 40.568359 64.412109 C 40.568359 64.412109 37.933203 64.761719 31.4375 64.761719 C 24.941798 64.761719 22.306641 64.412109 22.306641 64.412109 z "
       style="fill:#ffffff;fill-opacity:0.2;stroke:none;stroke-width:3;stroke-linecap:round;stroke-linejoin:round;stroke-miterlimit:4;stroke-dasharray:none"
       id="path5913" />
  </g>
</svg>
