<?xml version="1.0" encoding="UTF-8" standalone="no"?>
<svg
   xmlns:dc="http://purl.org/dc/elements/1.1/"
   xmlns:cc="http://creativecommons.org/ns#"
   xmlns:rdf="http://www.w3.org/1999/02/22-rdf-syntax-ns#"
   xmlns:svg="http://www.w3.org/2000/svg"
   xmlns="http://www.w3.org/2000/svg"
   xmlns:sodipodi="http://sodipodi.sourceforge.net/DTD/sodipodi-0.dtd"
   xmlns:inkscape="http://www.inkscape.org/namespaces/inkscape"
   width="128"
   height="128"
   viewBox="0 0 128.00001 128"
   id="svg2"
   version="1.1"
   inkscape:version="1.0beta1 (32d4812, 2019-09-19)"
   sodipodi:docname="ic_splash.svg"
   inkscape:export-filename="/Users/markus/path5202.png"
   inkscape:export-xdpi="3840"
   inkscape:export-ydpi="3840">
  <sodipodi:namedview
     id="base"
     pagecolor="#ffffff"
     bordercolor="#666666"
     borderopacity="1.0"
     inkscape:pageopacity="0.0"
     inkscape:pageshadow="2"
     inkscape:zoom="4.6535935"
     inkscape:cx="64.284851"
     inkscape:cy="54.020757"
     inkscape:document-units="px"
     inkscape:current-layer="layer1"
     showgrid="false"
     units="px"
     inkscape:showpageshadow="false"
     showguides="true"
     inkscape:guide-bbox="true"
     inkscape:window-width="1600"
     inkscape:window-height="907"
     inkscape:window-x="0"
     inkscape:window-y="0"
     inkscape:window-maximized="0"
     inkscape:document-rotation="0">
    <inkscape:grid
       enabled="false"
       snapvisiblegridlinesonly="true"
       id="grid4582"
       type="xygrid" />
  </sodipodi:namedview>
  <defs
     id="defs4" />
  <metadata
     id="metadata7">
    <rdf:RDF>
      <cc:Work
         rdf:about="">
        <dc:format>image/svg+xml</dc:format>
        <dc:type
           rdf:resource="http://purl.org/dc/dcmitype/StillImage" />
        <dc:title />
      </cc:Work>
    </rdf:RDF>
  </metadata>
  <g
     transform="translate(0,-924.3623)"
     id="layer1"
     inkscape:groupmode="layer"
     inkscape:label="Ebene 1">
    <path
       transform="translate(0,924.3623)"
       d="M 63.929688 1.8300781 A 54.185368 54.185368 0 0 0 17.417969 28.921875 L 61.125 54.15625 A 3.1637769 3.1637769 0 0 1 61.121094 54.021484 A 3.1637769 3.1637769 0 0 1 64.285156 50.857422 A 3.1637769 3.1637769 0 0 1 64.34375 50.859375 L 64.34375 1.8300781 A 54.185368 54.185368 0 0 0 63.929688 1.8300781 z "
       style="opacity:1;fill:#ff6600;fill-opacity:1;stroke:none;stroke-width:13.2386;stroke-linecap:butt;stroke-linejoin:round;stroke-miterlimit:4;stroke-dasharray:none;stroke-opacity:1;stop-opacity:1"
       id="path5905" />
    <path
       transform="translate(0,924.3623)"
       d="M 64.34375 1.8300781 L 64.34375 50.859375 A 3.1637769 3.1637769 0 0 1 67.298828 53.058594 L 102.6582 17.699219 A 54.185368 54.185368 0 0 0 64.34375 1.8300781 z "
       style="opacity:1;fill:#ffcc00;fill-opacity:1;stroke:none;stroke-width:13.2386;stroke-linecap:butt;stroke-linejoin:round;stroke-miterlimit:4;stroke-dasharray:none;stroke-opacity:1;stop-opacity:1"
       id="path5907" />
    <path
       transform="translate(0,924.3623)"
       d="M 102.6582 17.699219 L 67.298828 53.058594 A 3.1637769 3.1637769 0 0 1 67.449219 54.021484 A 3.1637769 3.1637769 0 0 1 67.441406 54.224609 L 111.26953 28.921875 A 54.185368 54.185368 0 0 0 102.6582 17.699219 z "
       style="opacity:1;fill:#55d400;fill-opacity:1;stroke:none;stroke-width:13.2386;stroke-linecap:butt;stroke-linejoin:round;stroke-miterlimit:4;stroke-dasharray:none;stroke-opacity:1;stop-opacity:1"
       id="path5909" />
    <path
       style="fill:#ffffff;fill-opacity:0.10196079;stroke:none;stroke-width:2;stroke-linecap:butt;stroke-linejoin:round;stroke-miterlimit:4;stroke-dasharray:none;stroke-opacity:1"
       d="m 58.273201,974.97933 11.964052,0 -3.988018,75.55387 -3.988017,0 z"
       id="path5897"
       inkscape:connector-curvature="0"
       sodipodi:nodetypes="ccccc" />
    <path
       transform="translate(0,924.3623)"
       d="M 110.18164 52.375 C 109.67394 52.3457 109.23598 52.583754 108.86133 52.902344 C 108.48667 53.220944 108.14365 53.645409 107.79297 54.167969 C 107.0916 55.213089 106.37209 56.656366 105.63086 58.384766 C 104.1484 61.841566 102.59163 66.431034 101.16602 71.027344 C 98.314782 80.219974 95.998047 89.431641 95.998047 89.431641 A 0.66554965 0.66554965 0 1 0 97.289062 89.755859 C 97.289062 89.755859 99.598431 80.568975 102.43555 71.421875 C 103.8541 66.848325 105.40631 62.282803 106.85352 58.908203 C 107.57712 57.220903 108.27872 55.828743 108.89648 54.908203 C 109.20536 54.447933 109.49506 54.107602 109.72266 53.914062 C 109.95025 53.720523 110.08215 53.699822 110.10547 53.701172 C 110.13887 53.703172 110.30439 53.753869 110.54102 53.974609 C 110.77764 54.195299 111.06866 54.559883 111.37695 55.039062 C 111.99353 55.997432 112.68594 57.411588 113.40039 59.111328 C 114.82929 62.510798 116.35529 67.060346 117.74805 71.603516 C 120.53357 80.689876 122.79297 89.755859 122.79297 89.755859 A 0.6647361 0.6647361 0 1 0 124.08203 89.431641 C 124.08203 89.431641 121.81865 80.343571 119.01953 71.212891 C 117.61997 66.647541 116.08883 62.073643 114.62695 58.595703 C 113.89601 56.856733 113.18536 55.394693 112.49414 54.320312 C 112.14853 53.783122 111.80986 53.342086 111.44727 53.003906 C 111.08467 52.665736 110.6793 52.40374 110.18164 52.375 z M 18.101562 52.564453 C 17.593861 52.535153 17.155906 52.771254 16.78125 53.089844 C 16.406594 53.408444 16.06162 53.834862 15.710938 54.357422 C 15.009571 55.402542 14.292009 56.845819 13.550781 58.574219 C 12.068325 62.031019 10.509599 66.618534 9.0839844 71.214844 C 6.2327549 80.407524 3.9179687 89.619141 3.9179688 89.619141 A 0.6647361 0.6647361 0 1 0 5.2070312 89.943359 C 5.2070312 89.943359 7.5164033 80.758468 10.353516 71.611328 C 11.772072 67.037768 13.324281 62.472256 14.771484 59.097656 C 15.495086 57.410366 16.196693 56.018196 16.814453 55.097656 C 17.123333 54.637396 17.41498 54.297066 17.642578 54.103516 C 17.870176 53.909976 18.002071 53.889285 18.025391 53.890625 C 18.058761 53.892625 18.222358 53.943422 18.458984 54.164062 C 18.695611 54.384752 18.986633 54.749336 19.294922 55.228516 C 19.911501 56.186886 20.605862 57.601041 21.320312 59.300781 C 22.749215 62.700251 24.275209 67.249789 25.667969 71.792969 C 28.453488 80.879269 30.710938 89.943359 30.710938 89.943359 A 0.6653068 0.6653068 0 0 0 32.001953 89.623047 C 32.001953 89.623047 29.736617 80.533074 26.9375 71.402344 C 25.537942 66.836994 24.006804 62.263096 22.544922 58.785156 C 21.813981 57.046196 21.103326 55.582193 20.412109 54.507812 C 20.066501 53.970622 19.72783 53.529586 19.365234 53.191406 C 19.002638 52.853236 18.599226 52.593203 18.101562 52.564453 z "
       style="color:#000000;font-style:normal;font-variant:normal;font-weight:normal;font-stretch:normal;font-size:medium;line-height:normal;font-family:sans-serif;text-indent:0;text-align:start;text-decoration:none;text-decoration-line:none;text-decoration-style:solid;text-decoration-color:#000000;letter-spacing:normal;word-spacing:normal;text-transform:none;direction:ltr;block-progression:tb;writing-mode:lr-tb;baseline-shift:baseline;text-anchor:start;white-space:normal;clip-rule:nonzero;display:inline;overflow:visible;visibility:visible;opacity:1;isolation:auto;mix-blend-mode:normal;color-interpolation:sRGB;color-interpolation-filters:linearRGB;solid-color:#000000;solid-opacity:1;fill:#1a0000;fill-opacity:0;fill-rule:evenodd;stroke:none;stroke-width:1.32933927;stroke-linecap:round;stroke-linejoin:round;stroke-miterlimit:4;stroke-dasharray:none;stroke-dashoffset:0;stroke-opacity:1;color-rendering:auto;image-rendering:auto;shape-rendering:auto;text-rendering:auto;enable-background:accumulate"
       id="path5901" />
    <path
       transform="translate(0,924.3623)"
       d="M 64.234375 21.800781 L 55.697266 35.09375 L 62.625 36.423828 L 61.660156 49.910156 C 61.238556 49.961756 60.827593 50.008018 60.361328 50.080078 C 55.717813 50.857988 51.23256 52.850547 47.03125 54.685547 C 41.67202 57.026347 36.758326 61.6796 33.275391 61.28125 C 26.446776 60.50019 20.101575 54.323879 18.960938 53.162109 C 18.426876 52.495919 17.619459 52.106799 16.765625 52.105469 C 15.209035 52.105379 13.947133 53.367258 13.947266 54.923828 C 13.947133 56.480378 15.209035 57.742265 16.765625 57.742188 C 17.490181 57.741517 18.185291 57.461756 18.708984 56.960938 C 21.575438 59.500656 26.709213 63.216242 32.861328 63.919922 C 33.491036 63.991922 34.123188 64.0162 34.757812 64 C 39.20033 63.88645 43.764787 61.759771 48.451172 59.712891 C 52.268595 58.045518 56.156846 56.401132 59.861328 55.587891 A 4.6941929 4.6941929 0 0 0 64.285156 58.714844 A 4.6941929 4.6941929 0 0 0 68.701172 55.609375 C 72.377726 56.429636 76.23195 58.059421 80.017578 59.712891 C 85.373418 62.052181 90.569825 64.496122 95.607422 63.919922 C 101.85445 63.205392 106.99105 59.448232 109.78711 56.951172 C 110.31267 57.459212 111.01509 57.742266 111.74609 57.742188 C 113.30228 57.741728 114.56452 56.479868 114.56445 54.923828 C 114.56432 53.367948 113.30215 52.106099 111.74609 52.105469 C 111.17301 52.106029 110.61343 52.282795 110.14258 52.609375 C 109.98958 52.692175 109.85487 52.797522 109.74414 52.919922 C 109.74414 52.919922 102.72839 60.41941 95.193359 61.28125 C 91.710424 61.6796 86.79673 57.026357 81.4375 54.685547 C 77.23506 52.850047 72.74836 50.857538 68.103516 50.080078 C 67.667626 50.012878 67.237347 49.958794 66.806641 49.902344 L 65.84375 36.423828 L 72.771484 35.09375 L 64.234375 21.800781 z M 64.261719 51.412109 A 2.6078849 2.6078849 0 0 1 64.285156 51.412109 A 2.6078849 2.6078849 0 0 1 66.892578 54.021484 A 2.6078849 2.6078849 0 0 1 64.285156 56.628906 A 2.6078849 2.6078849 0 0 1 61.677734 54.021484 A 2.6078849 2.6078849 0 0 1 64.261719 51.412109 z M 64.277344 52.361328 A 1.6595631 1.6595631 0 0 0 62.625 54.021484 A 1.6595631 1.6595631 0 0 0 64.285156 55.679688 A 1.6595631 1.6595631 0 0 0 65.945312 54.021484 A 1.6595631 1.6595631 0 0 0 64.285156 52.361328 A 1.6595631 1.6595631 0 0 0 64.277344 52.361328 z M 95.240234 89.037109 C 95.240234 91.322509 101.86678 97.164062 110.04102 97.164062 C 118.21532 97.164062 124.8418 91.322509 124.8418 89.037109 C 124.8418 89.037109 120.57025 89.603516 110.04102 89.603516 C 99.511773 89.603516 95.240234 89.037109 95.240234 89.037109 z M 3.1582031 89.226562 C 3.1582031 91.511962 9.7847467 97.353516 17.958984 97.353516 C 26.133289 97.353516 32.759766 91.511962 32.759766 89.226562 C 32.759766 89.226562 28.488213 89.792969 17.958984 89.792969 C 7.4297561 89.792969 3.1582031 89.226565 3.1582031 89.226562 z "
       style="fill:#ffffff;fill-opacity:1;stroke:none;stroke-width:3;stroke-linecap:round;stroke-linejoin:round;stroke-miterlimit:4;stroke-dasharray:none"
       id="path5913" />
  </g>
</svg>
