<?xml version="1.0" encoding="UTF-8" standalone="no"?>
<svg
   xmlns:dc="http://purl.org/dc/elements/1.1/"
   xmlns:cc="http://creativecommons.org/ns#"
   xmlns:rdf="http://www.w3.org/1999/02/22-rdf-syntax-ns#"
   xmlns:svg="http://www.w3.org/2000/svg"
   xmlns="http://www.w3.org/2000/svg"
   xmlns:sodipodi="http://sodipodi.sourceforge.net/DTD/sodipodi-0.dtd"
   xmlns:inkscape="http://www.inkscape.org/namespaces/inkscape"
   inkscape:export-ydpi="3840"
   inkscape:export-xdpi="3840"
   inkscape:export-filename="/Users/markus/path5202.png"
   sodipodi:docname="scale_pan.svg"
   inkscape:version="1.0beta1 (32d4812, 2019-09-19)"
   version="1.1"
   id="svg2"
   viewBox="0 0 30.000002 48"
   height="48"
   width="30">
  <sodipodi:namedview
     inkscape:document-rotation="0"
     fit-margin-bottom="0"
     fit-margin-right="0"
     fit-margin-left="0"
     fit-margin-top="0"
     inkscape:window-maximized="0"
     inkscape:window-y="0"
     inkscape:window-x="0"
     inkscape:window-height="907"
     inkscape:window-width="1600"
     inkscape:guide-bbox="true"
     showguides="true"
     inkscape:showpageshadow="false"
     units="px"
     showgrid="false"
     inkscape:current-layer="layer1"
     inkscape:document-units="px"
     inkscape:cy="24"
     inkscape:cx="15"
     inkscape:zoom="14.5625"
     inkscape:pageshadow="2"
     inkscape:pageopacity="0.0"
     borderopacity="1.0"
     bordercolor="#666666"
     pagecolor="#ffffff"
     id="base">
    <inkscape:grid
       originy="-41.47427"
       originx="-49.113669"
       type="xygrid"
       id="grid4582"
       snapvisiblegridlinesonly="true"
       enabled="false" />
  </sodipodi:namedview>
  <defs
     id="defs4" />
  <metadata
     id="metadata7">
    <rdf:RDF>
      <cc:Work
         rdf:about="">
        <dc:format>image/svg+xml</dc:format>
        <dc:type
           rdf:resource="http://purl.org/dc/dcmitype/StillImage" />
        <dc:title />
      </cc:Work>
    </rdf:RDF>
  </metadata>
  <g
     inkscape:label="Ebene 1"
     inkscape:groupmode="layer"
     id="layer1"
     transform="translate(-49.113674,-962.88804)">
    <path
       inkscape:connector-curvature="0"
       id="path5901"
       d="m 64.255859,964.36523 c -0.510633,-0.0295 -0.951305,0.20887 -1.328125,0.5293 -0.37682,0.32044 -0.72151,0.74786 -1.074218,1.27344 -0.705418,1.05115 -1.42832,2.5038 -2.173828,4.24219 -1.491018,3.47676 -3.058339,8.09198 -4.492188,12.71484 -2.867697,9.24572 -5.197266,18.5117 -5.197266,18.5117 a 0.66863503,0.66863503 0 1 0 1.296875,0.3262 c 0,0 2.324237,-9.24147 5.177735,-18.44142 1.426749,-4.59997 2.987798,-9.19185 4.443359,-12.58593 0.727781,-1.69705 1.43336,-3.09564 2.054688,-4.02149 0.310664,-0.46292 0.603119,-0.80534 0.832031,-1 0.228912,-0.19466 0.361312,-0.2162 0.384766,-0.21484 0.03356,0.002 0.199506,0.0534 0.4375,0.27539 0.237993,0.22196 0.529773,0.58836 0.839843,1.07031 0.62014,0.9639 1.318533,2.38615 2.03711,4.0957 1.437154,3.41911 2.970289,7.99504 4.371093,12.56446 2.801609,9.13883 5.074219,18.25582 5.074219,18.25582 a 0.66857526,0.66857526 0 1 0 1.296875,-0.3222 c 0,0 -2.276512,-9.14276 -5.091797,-18.3262 -1.407642,-4.59172 -2.947643,-9.19143 -4.417969,-12.68945 -0.735162,-1.74901 -1.449322,-3.22215 -2.144531,-4.30274 -0.347604,-0.54029 -0.689997,-0.98409 -1.054687,-1.32422 -0.36469,-0.34012 -0.770947,-0.60195 -1.271485,-0.63086 z"
       style="color:#000000;font-style:normal;font-variant:normal;font-weight:normal;font-stretch:normal;font-size:medium;line-height:normal;font-family:sans-serif;text-indent:0;text-align:start;text-decoration:none;text-decoration-line:none;text-decoration-style:solid;text-decoration-color:#000000;letter-spacing:normal;word-spacing:normal;text-transform:none;direction:ltr;block-progression:tb;writing-mode:lr-tb;baseline-shift:baseline;text-anchor:start;white-space:normal;clip-rule:nonzero;display:inline;overflow:visible;visibility:visible;opacity:1;isolation:auto;mix-blend-mode:normal;color-interpolation:sRGB;color-interpolation-filters:linearRGB;solid-color:#000000;solid-opacity:1;fill:#ffffff;fill-opacity:0.10196079;fill-rule:evenodd;stroke:none;stroke-width:1.33701682;stroke-linecap:round;stroke-linejoin:round;stroke-miterlimit:4;stroke-dasharray:none;stroke-dashoffset:0;stroke-opacity:1;color-rendering:auto;image-rendering:auto;shape-rendering:auto;text-rendering:auto;enable-background:accumulate" />
    <path
       sodipodi:nodetypes="csczc"
       inkscape:connector-curvature="0"
       id="path5913"
       d="m 79.00001,1001.2407 c 0,2.2986 -6.66482,8.1731 -14.88633,8.1731 -8.22145,0 -14.88635,-5.8745 -14.88635,-8.1731 0,0 4.29631,0.5688 14.88635,0.5688 10.59003,0 14.88633,-0.5688 14.88633,-0.5688 z"
       style="fill:#ffffff;fill-opacity:1;stroke:none;stroke-width:3;stroke-linecap:round;stroke-linejoin:round;stroke-miterlimit:4;stroke-dasharray:none" />
  </g>
</svg>
